CooperHewittInterpol1-Book.ufo
<glyph name="numbersign" format="1">
  <advance width="600"/>
  <unicode hex="0023"/>
  <outline>
    <contour>
      <point x="245" y="479" type="line" smooth="yes"/>
      <point x="394" y="479" type="line" smooth="yes"/>
      <point x="354" y="301" type="line" smooth="yes"/>
      <point x="205" y="301" type="line" smooth="yes"/>
    </contour>
    <contour>
      <point x="91" y="479" type="line" smooth="yes"/>
      <point x="180" y="479" type="line" smooth="yes"/>
      <point x="140" y="301" type="line" smooth="yes"/>
      <point x="33" y="301" type="line" smooth="yes"/>
      <point x="33" y="235" type="line" smooth="yes"/>
      <point x="125" y="235" type="line" smooth="yes"/>
      <point x="72" y="0" type="line" smooth="yes"/>
      <point x="138" y="0" type="line" smooth="yes"/>
      <point x="190" y="235" type="line" smooth="yes"/>
      <point x="339" y="235" type="line" smooth="yes"/>
      <point x="287" y="0" type="line" smooth="yes"/>
      <point x="352" y="0" type="line" smooth="yes"/>
      <point x="405" y="235" type="line" smooth="yes"/>
      <point x="509" y="235" type="line" smooth="yes"/>
      <point x="509" y="301" type="line" smooth="yes"/>
      <point x="420" y="301" type="line" smooth="yes"/>
      <point x="460" y="479" type="line" smooth="yes"/>
      <point x="567" y="479" type="line" smooth="yes"/>
      <point x="567" y="545" type="line" smooth="yes"/>
      <point x="475" y="545" type="line" smooth="yes"/>
      <point x="528" y="780" type="line" smooth="yes"/>
      <point x="462" y="780" type="line" smooth="yes"/>
      <point x="409" y="545" type="line" smooth="yes"/>
      <point x="260" y="545" type="line" smooth="yes"/>
      <point x="313" y="780" type="line" smooth="yes"/>
      <point x="248" y="780" type="line" smooth="yes"/>
      <point x="195" y="545" type="line" smooth="yes"/>
      <point x="91" y="545" type="line" smooth="yes"/>
    </contour>
  </outline>
</glyph>
<glyph name="dollar" format="1">
  <advance width="600"/>
  <unicode hex="0024"/>
  <outline>
    <contour>
      <point x="143" y="547" type="line" smooth="yes"/>
      <point x="143" y="552" type="line" smooth="yes"/>
      <point x="188" y="635" type="line" smooth="yes"/>
      <point x="298" y="665" type="line" smooth="yes"/>
      <point x="302" y="665" type="line" smooth="yes"/>
      <point x="317" y="664" type="line" smooth="yes"/>
      <point x="332" y="663" type="line" smooth="yes"/>
      <point x="276" y="431" type="line" smooth="yes"/>
      <point x="173" y="473" type="line" smooth="yes"/>
    </contour>
    <contour>
      <point x="310" y="115" type="line" smooth="yes"/>
      <point x="307" y="115" type="line" smooth="yes"/>
      <point x="284" y="116" type="line" smooth="yes"/>
      <point x="262" y="119" type="line" smooth="yes"/>
      <point x="321" y="364" type="line" smooth="yes"/>
      <point x="429" y="325" type="line" smooth="yes"/>
      <point x="464" y="242" type="line" smooth="yes"/>
      <point x="464" y="237" type="line" smooth="yes"/>
      <point x="422" y="147" type="line" smooth="yes"/>
    </contour>
    <contour>
      <point x="435" y="840" type="line" smooth="yes"/>
      <point x="374" y="840" type="line" smooth="yes"/>
      <point x="346" y="724" type="line" smooth="yes"/>
      <point x="324" y="726" type="line" smooth="yes"/>
      <point x="300" y="727" type="line" smooth="yes"/>
      <point x="135" y="679" type="line" smooth="yes"/>
      <point x="71" y="547" type="line" smooth="yes"/>
      <point x="71" y="540" type="line" smooth="yes"/>
      <point x="114" y="432" type="line" smooth="yes"/>
      <point x="262" y="372" type="line" smooth="yes"/>
      <point x="206" y="138" type="line" smooth="yes"/>
      <point x="153" y="192" type="line" smooth="yes"/>
      <point x="134" y="274" type="line" smooth="yes"/>
      <point x="63" y="274" type="line" smooth="yes"/>
      <point x="63" y="267" type="line" smooth="yes"/>
      <point x="96" y="149" type="line" smooth="yes"/>
      <point x="191" y="73" type="line" smooth="yes"/>
      <point x="159" y="-60" type="line" smooth="yes"/>
      <point x="220" y="-60" type="line" smooth="yes"/>
      <point x="248" y="57" type="line" smooth="yes"/>
      <point x="277" y="54" type="line" smooth="yes"/>
      <point x="308" y="53" type="line" smooth="yes"/>
      <point x="476" y="104" type="line" smooth="yes"/>
      <point x="537" y="241" type="line" smooth="yes"/>
      <point x="537" y="249" type="line" smooth="yes"/>
      <point x="487" y="367" type="line" smooth="yes"/>
      <point x="335" y="423" type="line" smooth="yes"/>
      <point x="389" y="647" type="line" smooth="yes"/>
      <point x="443" y="590" type="line" smooth="yes"/>
      <point x="460" y="496" type="line" smooth="yes"/>
      <point x="530" y="496" type="line" smooth="yes"/>
      <point x="530" y="512" type="line" smooth="yes"/>
      <point x="499" y="638" type="line" smooth="yes"/>
      <point x="404" y="711" type="line" smooth="yes"/>
    </contour>
  </outline>
</glyph>
<glyph name="ampersand" format="1">
  <advance width="661"/>
  <unicode hex="0026"/>
  <outline>
    <contour>
      <point x="141" y="628" type="line" smooth="yes"/>
      <point x="169" y="697" type="line" smooth="yes"/>
      <point x="251" y="727" type="line" smooth="yes"/>
      <point x="258" y="727" type="line" smooth="yes"/>
      <point x="340" y="697" type="line" smooth="yes"/>
      <point x="367" y="628" type="line" smooth="yes"/>
      <point x="367" y="619" type="line" smooth="yes"/>
      <point x="324" y="531" type="line" smooth="yes"/>
      <point x="225" y="460" type="line" smooth="yes"/>
      <point x="165" y="534" type="line" smooth="yes"/>
      <point x="141" y="619" type="line" smooth="yes"/>
    </contour>
    <contour>
      <point x="269" y="54" type="line" smooth="yes"/>
      <point x="152" y="96" type="line" smooth="yes"/>
      <point x="114" y="207" type="line" smooth="yes"/>
      <point x="114" y="216" type="line" smooth="yes"/>
      <point x="143" y="306" type="line" smooth="yes"/>
      <point x="214" y="374" type="line" smooth="yes"/>
      <point x="443" y="125" type="line" smooth="yes"/>
      <point x="365" y="71" type="line" smooth="yes"/>
      <point x="275" y="54" type="line" smooth="yes"/>
    </contour>
    <contour>
      <point x="265" y="-11" type="line" smooth="yes"/>
      <point x="388" y="10" type="line" smooth="yes"/>
      <point x="489" y="75" type="line" smooth="yes"/>
      <point x="559" y="0" type="line" smooth="yes"/>
      <point x="650" y="0" type="line" smooth="yes"/>
      <point x="532" y="128" type="line" smooth="yes"/>
      <point x="580" y="243" type="line" smooth="yes"/>
      <point x="598" y="394" type="line" smooth="yes"/>
      <point x="525" y="394" type="line" smooth="yes"/>
      <point x="525" y="391" type="line" smooth="yes"/>
      <point x="514" y="272" type="line" smooth="yes"/>
      <point x="483" y="182" type="line" smooth="yes"/>
      <point x="270" y="413" type="line" smooth="yes"/>
      <point x="386" y="500" type="line" smooth="yes"/>
      <point x="440" y="619" type="line" smooth="yes"/>
      <point x="440" y="629" type="line" smooth="yes"/>
      <point x="393" y="745" type="line" smooth="yes"/>
      <point x="254" y="791" type="line" smooth="yes"/>
      <point x="116" y="745" type="line" smooth="yes"/>
      <point x="69" y="629" type="line" smooth="yes"/>
      <point x="69" y="619" type="line" smooth="yes"/>
      <point x="95" y="517" type="line" smooth="yes"/>
      <point x="169" y="422" type="line" smooth="yes"/>
      <point x="80" y="337" type="line" smooth="yes"/>
      <point x="42" y="213" type="line" smooth="yes"/>
      <point x="42" y="203" type="line" smooth="yes"/>
      <point x="102" y="45" type="line" smooth="yes"/>
    </contour>
  </outline>
</glyph>
<glyph name="parenleft" format="1">
  <advance width="317"/>
  <unicode hex="0028"/>
  <outline>
    <contour>
      <point x="51" y="350" type="line" smooth="yes"/>
      <point x="97" y="73" type="line" smooth="yes"/>
      <point x="206" y="-120" type="line" smooth="yes"/>
      <point x="283" y="-120" type="line" smooth="yes"/>
      <point x="168" y="83" type="line" smooth="yes"/>
      <point x="122" y="350" type="line" smooth="yes"/>
      <point x="122" y="370" type="line" smooth="yes"/>
      <point x="168" y="637" type="line" smooth="yes"/>
      <point x="283" y="840" type="line" smooth="yes"/>
      <point x="206" y="840" type="line" smooth="yes"/>
      <point x="97" y="647" type="line" smooth="yes"/>
      <point x="51" y="370" type="line" smooth="yes"/>
    </contour>
  </outline>
</glyph>
<glyph name="two" format="1">
  <advance width="600"/>
  <unicode hex="0032"/>
  <outline>
    <contour>
      <point x="240" y="65" type="line" smooth="yes"/>
      <point x="165" y="64" type="line" smooth="yes"/>
      <point x="453" y="370" type="line" smooth="yes"/>
      <point x="525" y="468" type="line" smooth="yes"/>
      <point x="544" y="571" type="line" smooth="yes"/>
      <point x="544" y="583" type="line" smooth="yes"/>
      <point x="481" y="733" type="line" smooth="yes"/>
      <point x="300" y="791" type="line" smooth="yes"/>
      <point x="115" y="726" type="line" smooth="yes"/>
      <point x="56" y="544" type="line" smooth="yes"/>
      <point x="56" y="520" type="line" smooth="yes"/>
      <point x="127" y="520" type="line" smooth="yes"/>
      <point x="170" y="679" type="line" smooth="yes"/>
      <point x="297" y="727" type="line" smooth="yes"/>
      <point x="303" y="727" type="line" smooth="yes"/>
      <point x="426" y="686" type="line" smooth="yes"/>
      <point x="473" y="572" type="line" smooth="yes"/>
      <point x="473" y="562" type="line" smooth="yes"/>
      <point x="456" y="484" type="line" smooth="yes"/>
      <point x="393" y="403" type="line" smooth="yes"/>
      <point x="56" y="45" type="line" smooth="yes"/>
      <point x="56" y="0" type="line" smooth="yes"/>
      <point x="544" y="0" type="line" smooth="yes"/>
      <point x="544" y="65" type="line" smooth="yes"/>
    </contour>
  </outline>
</glyph>
<glyph name="three" format="1">
  <advance width="600"/>
  <unicode hex="0033"/>
  <outline>
    <contour>
      <point x="122" y="250" type="line" smooth="yes"/>
      <point x="51" y="250" type="line" smooth="yes"/>
      <point x="51" y="239" type="line" smooth="yes"/>
      <point x="112" y="56" type="line" smooth="yes"/>
      <point x="300" y="-11" type="line" smooth="yes"/>
      <point x="480" y="48" type="line" smooth="yes"/>
      <point x="549" y="200" type="line" smooth="yes"/>
      <point x="549" y="216" type="line" smooth="yes"/>
      <point x="514" y="333" type="line" smooth="yes"/>
      <point x="423" y="398" type="line" smooth="yes"/>
      <point x="510" y="459" type="line" smooth="yes"/>
      <point x="544" y="570" type="line" smooth="yes"/>
      <point x="544" y="585" type="line" smooth="yes"/>
      <point x="481" y="733" type="line" smooth="yes"/>
      <point x="300" y="791" type="line" smooth="yes"/>
      <point x="115" y="726" type="line" smooth="yes"/>
      <point x="56" y="544" type="line" smooth="yes"/>
      <point x="56" y="520" type="line" smooth="yes"/>
      <point x="127" y="520" type="line" smooth="yes"/>
      <point x="169" y="679" type="line" smooth="yes"/>
      <point x="295" y="727" type="line" smooth="yes"/>
      <point x="305" y="727" type="line" smooth="yes"/>
      <point x="427" y="686" type="line" smooth="yes"/>
      <point x="473" y="576" type="line" smooth="yes"/>
      <point x="473" y="569" type="line" smooth="yes"/>
      <point x="426" y="463" type="line" smooth="yes"/>
      <point x="310" y="430" type="line" smooth="yes"/>
      <point x="200" y="430" type="line" smooth="yes"/>
      <point x="200" y="366" type="line" smooth="yes"/>
      <point x="314" y="366" type="line" smooth="yes"/>
      <point x="431" y="329" type="line" smooth="yes"/>
      <point x="478" y="217" type="line" smooth="yes"/>
      <point x="478" y="203" type="line" smooth="yes"/>
      <point x="425" y="90" type="line" smooth="yes"/>
      <point x="305" y="53" type="line" smooth="yes"/>
      <point x="295" y="53" type="line" smooth="yes"/>
      <point x="168" y="101" type="line" smooth="yes"/>
    </contour>
  </outline>
</glyph>
<glyph name="five" format="1">
  <advance width="600"/>
  <unicode hex="0035"/>
  <outline>
    <contour>
      <point x="51" y="250" type="line" smooth="yes"/>
      <point x="51" y="239" type="line" smooth="yes"/>
      <point x="112" y="56" type="line" smooth="yes"/>
      <point x="300" y="-11" type="line" smooth="yes"/>
      <point x="478" y="52" type="line" smooth="yes"/>
      <point x="549" y="236" type="line" smooth="yes"/>
      <point x="549" y="248" type="line" smooth="yes"/>
      <point x="478" y="431" type="line" smooth="yes"/>
      <point x="302" y="494" type="line" smooth="yes"/>
      <point x="207" y="479" type="line" smooth="yes"/>
      <point x="132" y="438" type="line" smooth="yes"/>
      <point x="145" y="715" type="line" smooth="yes"/>
      <point x="539" y="715" type="line" smooth="yes"/>
      <point x="539" y="780" type="line" smooth="yes"/>
      <point x="76" y="780" type="line" smooth="yes"/>
      <point x="57" y="342" type="line" smooth="yes"/>
      <point x="117" y="324" type="line" smooth="yes"/>
      <point x="190" y="404" type="line" smooth="yes"/>
      <point x="294" y="430" type="line" smooth="yes"/>
      <point x="303" y="430" type="line" smooth="yes"/>
      <point x="425" y="388" type="line" smooth="yes"/>
      <point x="478" y="251" type="line" smooth="yes"/>
      <point x="478" y="233" type="line" smooth="yes"/>
      <point x="425" y="96" type="line" smooth="yes"/>
      <point x="305" y="53" type="line" smooth="yes"/>
      <point x="295" y="53" type="line" smooth="yes"/>
      <point x="168" y="101" type="line" smooth="yes"/>
      <point x="122" y="250" type="line" smooth="yes"/>
    </contour>
  </outline>
</glyph>
<glyph name="eight" format="1">
  <advance width="600"/>
  <unicode hex="0038"/>
  <outline>
    <contour>
      <point x="305" y="727" type="line" smooth="yes"/>
      <point x="427" y="687" type="line" smooth="yes"/>
      <point x="473" y="579" type="line" smooth="yes"/>
      <point x="473" y="571" type="line" smooth="yes"/>
      <point x="426" y="465" type="line" smooth="yes"/>
      <point x="310" y="430" type="line" smooth="yes"/>
      <point x="290" y="430" type="line" smooth="yes"/>
      <point x="174" y="465" type="line" smooth="yes"/>
      <point x="127" y="571" type="line" smooth="yes"/>
      <point x="127" y="579" type="line" smooth="yes"/>
      <point x="174" y="687" type="line" smooth="yes"/>
      <point x="295" y="727" type="line" smooth="yes"/>
    </contour>
    <contour>
      <point x="286" y="366" type="line" smooth="yes"/>
      <point x="314" y="366" type="line" smooth="yes"/>
      <point x="431" y="328" type="line" smooth="yes"/>
      <point x="478" y="215" type="line" smooth="yes"/>
      <point x="478" y="201" type="line" smooth="yes"/>
      <point x="425" y="88" type="line" smooth="yes"/>
      <point x="305" y="53" type="line" smooth="yes"/>
      <point x="295" y="53" type="line" smooth="yes"/>
      <point x="175" y="88" type="line" smooth="yes"/>
      <point x="122" y="201" type="line" smooth="yes"/>
      <point x="122" y="215" type="line" smooth="yes"/>
      <point x="170" y="328" type="line" smooth="yes"/>
    </contour>
    <contour>
      <point x="300" y="-11" type="line" smooth="yes"/>
      <point x="480" y="47" type="line" smooth="yes"/>
      <point x="549" y="198" type="line" smooth="yes"/>
      <point x="549" y="214" type="line" smooth="yes"/>
      <point x="513" y="332" type="line" smooth="yes"/>
      <point x="422" y="398" type="line" smooth="yes"/>
      <point x="510" y="460" type="line" smooth="yes"/>
      <point x="544" y="572" type="line" smooth="yes"/>
      <point x="544" y="587" type="line" smooth="yes"/>
      <point x="481" y="734" type="line" smooth="yes"/>
      <point x="300" y="791" type="line" smooth="yes"/>
      <point x="119" y="734" type="line" smooth="yes"/>
      <point x="56" y="587" type="line" smooth="yes"/>
      <point x="56" y="572" type="line" smooth="yes"/>
      <point x="90" y="460" type="line" smooth="yes"/>
      <point x="177" y="398" type="line" smooth="yes"/>
      <point x="86" y="332" type="line" smooth="yes"/>
      <point x="51" y="214" type="line" smooth="yes"/>
      <point x="51" y="198" type="line" smooth="yes"/>
      <point x="120" y="47" type="line" smooth="yes"/>
    </contour>
  </outline>
</glyph>
<glyph name="nine" format="1">
  <advance width="600"/>
  <unicode hex="0039"/>
  <outline>
    <contour>
      <point x="294" y="354" type="line" smooth="yes"/>
      <point x="288" y="354" type="line" smooth="yes"/>
      <point x="165" y="400" type="line" smooth="yes"/>
      <point x="118" y="531" type="line" smooth="yes"/>
      <point x="118" y="548" type="line" smooth="yes"/>
      <point x="166" y="680" type="line" smooth="yes"/>
      <point x="293" y="727" type="line" smooth="yes"/>
      <point x="299" y="727" type="line" smooth="yes"/>
      <point x="423" y="672" type="line" smooth="yes"/>
      <point x="474" y="520" type="line" smooth="yes"/>
      <point x="474" y="510" type="line" smooth="yes"/>
      <point x="473" y="487" type="line" smooth="yes"/>
      <point x="472" y="463" type="line" smooth="yes"/>
      <point x="400" y="384" type="line" smooth="yes"/>
    </contour>
    <contour>
      <point x="83" y="-11" type="line" smooth="yes"/>
      <point x="274" y="26" type="line" smooth="yes"/>
      <point x="435" y="149" type="line" smooth="yes"/>
      <point x="521" y="323" type="line" smooth="yes"/>
      <point x="545" y="506" type="line" smooth="yes"/>
      <point x="545" y="517" type="line" smooth="yes"/>
      <point x="475" y="720" type="line" smooth="yes"/>
      <point x="296" y="791" type="line" smooth="yes"/>
      <point x="116" y="730" type="line" smooth="yes"/>
      <point x="47" y="545" type="line" smooth="yes"/>
      <point x="47" y="535" type="line" smooth="yes"/>
      <point x="114" y="351" type="line" smooth="yes"/>
      <point x="281" y="290" type="line" smooth="yes"/>
      <point x="381" y="309" type="line" smooth="yes"/>
      <point x="457" y="361" type="line" smooth="yes"/>
      <point x="427" y="273" type="line" smooth="yes"/>
      <point x="378" y="191" type="line" smooth="yes"/>
      <point x="241" y="85" type="line" smooth="yes"/>
      <point x="83" y="53" type="line" smooth="yes"/>
    </contour>
  </outline>
</glyph>
<glyph name="colon" format="1">
  <advance width="216"/>
  <unicode hex="003A"/>
  <outline>
    <contour>
      <point x="153" y="435" type="line" smooth="yes"/>
      <point x="63" y="435" type="line" smooth="yes"/>
      <point x="63" y="345" type="line" smooth="yes"/>
      <point x="153" y="345" type="line" smooth="yes"/>
    </contour>
    <contour>
      <point x="153" y="90" type="line" smooth="yes"/>
      <point x="63" y="90" type="line" smooth="yes"/>
      <point x="63" y="0" type="line" smooth="yes"/>
      <point x="153" y="0" type="line" smooth="yes"/>
    </contour>
  </outline>
</glyph>
<glyph name="semicolon" format="1">
  <advance width="216"/>
  <unicode hex="003B"/>
  <outline>
    <contour>
      <point x="153" y="435" type="line" smooth="yes"/>
      <point x="63" y="435" type="line" smooth="yes"/>
      <point x="63" y="345" type="line" smooth="yes"/>
      <point x="153" y="345" type="line" smooth="yes"/>
    </contour>
    <contour>
      <point x="153" y="90" type="line" smooth="yes"/>
      <point x="63" y="90" type="line" smooth="yes"/>
      <point x="63" y="0" type="line" smooth="yes"/>
      <point x="110" y="0" type="line" smooth="yes"/>
      <point x="89" y="-59" type="line" smooth="yes"/>
      <point x="40" y="-76" type="line" smooth="yes"/>
      <point x="40" y="-118" type="line" smooth="yes"/>
      <point x="124" y="-84" type="line" smooth="yes"/>
      <point x="153" y="18" type="line" smooth="yes"/>
    </contour>
  </outline>
</glyph>
<glyph name="question" format="1">
  <advance width="455"/>
  <unicode hex="003F"/>
  <outline>
    <contour>
      <point x="271" y="90" type="line" smooth="yes"/>
      <point x="181" y="90" type="line" smooth="yes"/>
      <point x="181" y="0" type="line" smooth="yes"/>
      <point x="271" y="0" type="line" smooth="yes"/>
    </contour>
    <contour>
      <point x="231" y="726" type="line" smooth="yes"/>
      <point x="329" y="686" type="line" smooth="yes"/>
      <point x="354" y="576" type="line" smooth="yes"/>
      <point x="276" y="405" type="line" smooth="yes"/>
      <point x="203" y="189" type="line" smooth="yes"/>
      <point x="250" y="189" type="line" smooth="yes"/>
      <point x="341" y="387" type="line" smooth="yes"/>
      <point x="427" y="583" type="line" smooth="yes"/>
      <point x="382" y="734" type="line" smooth="yes"/>
      <point x="231" y="791" type="line" smooth="yes"/>
      <point x="67" y="712" type="line" smooth="yes"/>
      <point x="26" y="516" type="line" smooth="yes"/>
      <point x="26" y="504" type="line" smooth="yes"/>
      <point x="97" y="504" type="line" smooth="yes"/>
      <point x="125" y="666" type="line" smooth="yes"/>
    </contour>
  </outline>
</glyph>
<glyph name="at" format="1">
  <advance width="961"/>
  <unicode hex="0040"/>
  <outline>
    <contour>
      <point x="465" y="109" type="line" smooth="yes"/>
      <point x="357" y="159" type="line" smooth="yes"/>
      <point x="323" y="283" type="line" smooth="yes"/>
      <point x="323" y="307" type="line" smooth="yes"/>
      <point x="357" y="431" type="line" smooth="yes"/>
      <point x="465" y="481" type="line" smooth="yes"/>
      <point x="548" y="454" type="line" smooth="yes"/>
      <point x="598" y="401" type="line" smooth="yes"/>
      <point x="598" y="189" type="line" smooth="yes"/>
      <point x="548" y="136" type="line" smooth="yes"/>
    </contour>
    <contour>
      <point x="501" y="-156" type="line" smooth="yes"/>
      <point x="205" y="-47" type="line" smooth="yes"/>
      <point x="90" y="270" type="line" smooth="yes"/>
      <point x="90" y="310" type="line" smooth="yes"/>
      <point x="203" y="624" type="line" smooth="yes"/>
      <point x="496" y="736" type="line" smooth="yes"/>
      <point x="502" y="736" type="line" smooth="yes"/>
      <point x="757" y="656" type="line" smooth="yes"/>
      <point x="869" y="388" type="line" smooth="yes"/>
      <point x="869" y="358" type="line" smooth="yes"/>
      <point x="813" y="160" type="line" smooth="yes"/>
      <point x="663" y="114" type="line" smooth="yes"/>
      <point x="663" y="383" type="line" smooth="yes"/>
      <point x="669" y="530" type="line" smooth="yes"/>
      <point x="615" y="530" type="line" smooth="yes"/>
      <point x="605" y="457" type="line" smooth="yes"/>
      <point x="547" y="516" type="line" smooth="yes"/>
      <point x="450" y="541" type="line" smooth="yes"/>
      <point x="300" y="470" type="line" smooth="yes"/>
      <point x="254" y="307" type="line" smooth="yes"/>
      <point x="254" y="283" type="line" smooth="yes"/>
      <point x="300" y="120" type="line" smooth="yes"/>
      <point x="450" y="49" type="line" smooth="yes"/>
      <point x="547" y="74" type="line" smooth="yes"/>
      <point x="605" y="133" type="line" smooth="yes"/>
      <point x="615" y="60" type="line" smooth="yes"/>
      <point x="661" y="60" type="line" smooth="yes"/>
      <point x="853" y="119" type="line" smooth="yes"/>
      <point x="928" y="358" type="line" smooth="yes"/>
      <point x="928" y="388" type="line" smooth="yes"/>
      <point x="801" y="692" type="line" smooth="yes"/>
      <point x="499" y="791" type="line" smooth="yes"/>
      <point x="163" y="664" type="line" smooth="yes"/>
      <point x="33" y="310" type="line" smooth="yes"/>
      <point x="33" y="270" type="line" smooth="yes"/>
      <point x="165" y="-84" type="line" smooth="yes"/>
      <point x="504" y="-211" type="line" smooth="yes"/>
      <point x="686" y="-188" type="line" smooth="yes"/>
      <point x="868" y="-95" type="line" smooth="yes"/>
      <point x="836" y="-52" type="line" smooth="yes"/>
      <point x="679" y="-132" type="line" smooth="yes"/>
      <point x="507" y="-156" type="line" smooth="yes"/>
    </contour>
  </outline>
</glyph>
<glyph name="B" format="1">
  <advance width="586"/>
  <unicode hex="0042"/>
  <outline>
    <contour>
      <point x="275" y="715" type="line" smooth="yes"/>
      <point x="388" y="685" type="line" smooth="yes"/>
      <point x="435" y="582" type="line" smooth="yes"/>
      <point x="435" y="566" type="line" smooth="yes"/>
      <point x="388" y="463" type="line" smooth="yes"/>
      <point x="275" y="433" type="line" smooth="yes"/>
      <point x="146" y="433" type="line" smooth="yes"/>
      <point x="146" y="715" type="line" smooth="yes"/>
    </contour>
    <contour>
      <point x="293" y="368" type="line" smooth="yes"/>
      <point x="407" y="334" type="line" smooth="yes"/>
      <point x="455" y="224" type="line" smooth="yes"/>
      <point x="455" y="209" type="line" smooth="yes"/>
      <point x="407" y="99" type="line" smooth="yes"/>
      <point x="293" y="65" type="line" smooth="yes"/>
      <point x="146" y="65" type="line" smooth="yes"/>
      <point x="146" y="368" type="line" smooth="yes"/>
    </contour>
    <contour>
      <point x="74" y="780" type="line" smooth="yes"/>
      <point x="74" y="0" type="line" smooth="yes"/>
      <point x="288" y="0" type="line" smooth="yes"/>
      <point x="458" y="48" type="line" smooth="yes"/>
      <point x="529" y="206" type="line" smooth="yes"/>
      <point x="529" y="226" type="line" smooth="yes"/>
      <point x="491" y="343" type="line" smooth="yes"/>
      <point x="393" y="403" type="line" smooth="yes"/>
      <point x="477" y="460" type="line" smooth="yes"/>
      <point x="509" y="564" type="line" smooth="yes"/>
      <point x="509" y="584" type="line" smooth="yes"/>
      <point x="439" y="735" type="line" smooth="yes"/>
      <point x="272" y="780" type="line" smooth="yes"/>
    </contour>
  </outline>
</glyph>
<glyph name="D" format="1">
  <advance width="639"/>
  <unicode hex="0044"/>
  <outline>
    <contour>
      <point x="146" y="65" type="line" smooth="yes"/>
      <point x="146" y="715" type="line" smooth="yes"/>
      <point x="274" y="715" type="line" smooth="yes"/>
      <point x="447" y="646" type="line" smooth="yes"/>
      <point x="508" y="410" type="line" smooth="yes"/>
      <point x="508" y="370" type="line" smooth="yes"/>
      <point x="447" y="134" type="line" smooth="yes"/>
      <point x="274" y="65" type="line" smooth="yes"/>
    </contour>
    <contour>
      <point x="582" y="370" type="line" smooth="yes"/>
      <point x="582" y="410" type="line" smooth="yes"/>
      <point x="502" y="696" type="line" smooth="yes"/>
      <point x="280" y="780" type="line" smooth="yes"/>
      <point x="74" y="780" type="line" smooth="yes"/>
      <point x="74" y="0" type="line" smooth="yes"/>
      <point x="280" y="0" type="line" smooth="yes"/>
      <point x="502" y="84" type="line" smooth="yes"/>
    </contour>
  </outline>
</glyph>
<glyph name="J" format="1">
  <advance width="495"/>
  <unicode hex="004A"/>
  <outline>
    <contour>
      <point x="354" y="780" type="line" smooth="yes"/>
      <point x="354" y="252" type="line" smooth="yes"/>
      <point x="325" y="102" type="line" smooth="yes"/>
      <point x="226" y="54" type="line" smooth="yes"/>
      <point x="127" y="102" type="line" smooth="yes"/>
      <point x="97" y="254" type="line" smooth="yes"/>
      <point x="29" y="254" type="line" smooth="yes"/>
      <point x="29" y="240" type="line" smooth="yes"/>
      <point x="72" y="55" type="line" smooth="yes"/>
      <point x="227" y="-11" type="line" smooth="yes"/>
      <point x="381" y="56" type="line" smooth="yes"/>
      <point x="426" y="240" type="line" smooth="yes"/>
      <point x="426" y="780" type="line" smooth="yes"/>
    </contour>
  </outline>
</glyph>
<glyph name="Q" format="1">
  <advance width="649"/>
  <unicode hex="0051"/>
  <outline>
    <contour>
      <point x="353" y="226" type="line" smooth="yes"/>
      <point x="291" y="226" type="line" smooth="yes"/>
      <point x="355" y="55" type="line" smooth="yes"/>
      <point x="342" y="54" type="line" smooth="yes"/>
      <point x="328" y="54" type="line" smooth="yes"/>
      <point x="321" y="54" type="line" smooth="yes"/>
      <point x="177" y="129" type="line" smooth="yes"/>
      <point x="131" y="370" type="line" smooth="yes"/>
      <point x="131" y="410" type="line" smooth="yes"/>
      <point x="177" y="651" type="line" smooth="yes"/>
      <point x="321" y="726" type="line" smooth="yes"/>
      <point x="328" y="726" type="line" smooth="yes"/>
      <point x="472" y="651" type="line" smooth="yes"/>
      <point x="518" y="410" type="line" smooth="yes"/>
      <point x="518" y="370" type="line" smooth="yes"/>
      <point x="492" y="172" type="line" smooth="yes"/>
      <point x="412" y="72" type="line" smooth="yes"/>
    </contour>
    <contour>
      <point x="324" y="-11" type="line" smooth="yes"/>
      <point x="352" y="-10" type="line" smooth="yes"/>
      <point x="378" y="-7" type="line" smooth="yes"/>
      <point x="413" y="-100" type="line" smooth="yes"/>
      <point x="479" y="-100" type="line" smooth="yes"/>
      <point x="437" y="9" type="line" smooth="yes"/>
      <point x="553" y="128" type="line" smooth="yes"/>
      <point x="592" y="370" type="line" smooth="yes"/>
      <point x="592" y="410" type="line" smooth="yes"/>
      <point x="525" y="702" type="line" smooth="yes"/>
      <point x="324" y="791" type="line" smooth="yes"/>
      <point x="124" y="702" type="line" smooth="yes"/>
      <point x="57" y="410" type="line" smooth="yes"/>
      <point x="57" y="370" type="line" smooth="yes"/>
      <point x="124" y="78" type="line" smooth="yes"/>
    </contour>
  </outline>
</glyph>
<glyph name="bracketleft" format="1">
  <advance width="317"/>
  <unicode hex="005B"/>
  <outline>
    <contour>
      <point x="67" y="840" type="line" smooth="yes"/>
      <point x="67" y="-120" type="line" smooth="yes"/>
      <point x="275" y="-120" type="line" smooth="yes"/>
      <point x="275" y="-54" type="line" smooth="yes"/>
      <point x="138" y="-54" type="line" smooth="yes"/>
      <point x="138" y="774" type="line" smooth="yes"/>
      <point x="275" y="774" type="line" smooth="yes"/>
      <point x="275" y="840" type="line" smooth="yes"/>
    </contour>
  </outline>
</glyph>
<glyph name="b" format="1">
  <advance width="537"/>
  <unicode hex="0062"/>
  <outline>
    <contour>
      <point x="136" y="396" type="line" smooth="yes"/>
      <point x="184" y="450" type="line" smooth="yes"/>
      <point x="270" y="478" type="line" smooth="yes"/>
      <point x="381" y="424" type="line" smooth="yes"/>
      <point x="417" y="277" type="line" smooth="yes"/>
      <point x="417" y="253" type="line" smooth="yes"/>
      <point x="381" y="106" type="line" smooth="yes"/>
      <point x="270" y="52" type="line" smooth="yes"/>
      <point x="184" y="80" type="line" smooth="yes"/>
      <point x="136" y="134" type="line" smooth="yes"/>
    </contour>
    <contour>
      <point x="136" y="800" type="line" smooth="yes"/>
      <point x="66" y="800" type="line" smooth="yes"/>
      <point x="66" y="150" type="line" smooth="yes"/>
      <point x="60" y="0" type="line" smooth="yes"/>
      <point x="118" y="0" type="line" smooth="yes"/>
      <point x="128" y="72" type="line" smooth="yes"/>
      <point x="187" y="13" type="line" smooth="yes"/>
      <point x="286" y="-11" type="line" smooth="yes"/>
      <point x="442" y="66" type="line" smooth="yes"/>
      <point x="489" y="253" type="line" smooth="yes"/>
      <point x="489" y="277" type="line" smooth="yes"/>
      <point x="442" y="464" type="line" smooth="yes"/>
      <point x="286" y="541" type="line" smooth="yes"/>
      <point x="194" y="520" type="line" smooth="yes"/>
      <point x="136" y="469" type="line" smooth="yes"/>
    </contour>
  </outline>
</glyph>
<glyph name="j" format="1">
  <advance width="216"/>
  <unicode hex="006A"/>
  <outline>
    <contour>
      <point x="153" y="745" type="line" smooth="yes"/>
      <point x="63" y="745" type="line" smooth="yes"/>
      <point x="63" y="655" type="line" smooth="yes"/>
      <point x="153" y="655" type="line" smooth="yes"/>
    </contour>
    <contour>
      <point x="73" y="-44" type="line" smooth="yes"/>
      <point x="47" y="-128" type="line" smooth="yes"/>
      <point x="-29" y="-148" type="line" smooth="yes"/>
      <point x="-62" y="-145" type="line" smooth="yes"/>
      <point x="-86" y="-139" type="line" smooth="yes"/>
      <point x="-86" y="-200" type="line" smooth="yes"/>
      <point x="-62" y="-207" type="line" smooth="yes"/>
      <point x="-12" y="-211" type="line" smooth="yes"/>
      <point x="99" y="-175" type="line" smooth="yes"/>
      <point x="143" y="-53" type="line" smooth="yes"/>
      <point x="143" y="530" type="line" smooth="yes"/>
      <point x="73" y="530" type="line" smooth="yes"/>
    </contour>
  </outline>
</glyph>
<glyph name="m" format="1">
  <advance width="805"/>
  <unicode hex="006D"/>
  <outline>
    <contour>
      <point x="744" y="0" type="line" smooth="yes"/>
      <point x="744" y="384" type="line" smooth="yes"/>
      <point x="706" y="500" type="line" smooth="yes"/>
      <point x="596" y="541" type="line" smooth="yes"/>
      <point x="491" y="515" type="line" smooth="yes"/>
      <point x="429" y="453" type="line" smooth="yes"/>
      <point x="379" y="518" type="line" smooth="yes"/>
      <point x="292" y="541" type="line" smooth="yes"/>
      <point x="190" y="516" type="line" smooth="yes"/>
      <point x="128" y="458" type="line" smooth="yes"/>
      <point x="118" y="530" type="line" smooth="yes"/>
      <point x="60" y="530" type="line" smooth="yes"/>
      <point x="66" y="380" type="line" smooth="yes"/>
      <point x="66" y="0" type="line" smooth="yes"/>
      <point x="136" y="0" type="line" smooth="yes"/>
      <point x="136" y="398" type="line" smooth="yes"/>
      <point x="183" y="451" type="line" smooth="yes"/>
      <point x="268" y="478" type="line" smooth="yes"/>
      <point x="342" y="456" type="line" smooth="yes"/>
      <point x="370" y="374" type="line" smooth="yes"/>
      <point x="370" y="0" type="line" smooth="yes"/>
      <point x="440" y="0" type="line" smooth="yes"/>
      <point x="440" y="398" type="line" smooth="yes"/>
      <point x="487" y="451" type="line" smooth="yes"/>
      <point x="572" y="478" type="line" smooth="yes"/>
      <point x="646" y="456" type="line" smooth="yes"/>
      <point x="674" y="374" type="line" smooth="yes"/>
      <point x="674" y="0" type="line" smooth="yes"/>
    </contour>
  </outline>
</glyph>
<glyph name="n" format="1">
  <advance width="528"/>
  <unicode hex="006E"/>
  <outline>
    <contour>
      <point x="467" y="0" type="line" smooth="yes"/>
      <point x="467" y="371" type="line" smooth="yes"/>
      <point x="426" y="493" type="line" smooth="yes"/>
      <point x="306" y="541" type="line" smooth="yes"/>
      <point x="195" y="516" type="line" smooth="yes"/>
      <point x="128" y="455" type="line" smooth="yes"/>
      <point x="118" y="530" type="line" smooth="yes"/>
      <point x="60" y="530" type="line" smooth="yes"/>
      <point x="66" y="380" type="line" smooth="yes"/>
      <point x="66" y="0" type="line" smooth="yes"/>
      <point x="136" y="0" type="line" smooth="yes"/>
      <point x="136" y="396" type="line" smooth="yes"/>
      <point x="186" y="450" type="line" smooth="yes"/>
      <point x="282" y="478" type="line" smooth="yes"/>
      <point x="366" y="450" type="line" smooth="yes"/>
      <point x="397" y="361" type="line" smooth="yes"/>
      <point x="397" y="0" type="line" smooth="yes"/>
    </contour>
  </outline>
</glyph>
<glyph name="p" format="1">
  <advance width="537"/>
  <unicode hex="0070"/>
  <outline>
    <contour>
      <point x="136" y="396" type="line" smooth="yes"/>
      <point x="184" y="450" type="line" smooth="yes"/>
      <point x="270" y="478" type="line" smooth="yes"/>
      <point x="381" y="424" type="line" smooth="yes"/>
      <point x="417" y="277" type="line" smooth="yes"/>
      <point x="417" y="253" type="line" smooth="yes"/>
      <point x="381" y="106" type="line" smooth="yes"/>
      <point x="270" y="52" type="line" smooth="yes"/>
      <point x="184" y="80" type="line" smooth="yes"/>
      <point x="136" y="134" type="line" smooth="yes"/>
    </contour>
    <contour>
      <point x="286" y="-11" type="line" smooth="yes"/>
      <point x="442" y="66" type="line" smooth="yes"/>
      <point x="489" y="253" type="line" smooth="yes"/>
      <point x="489" y="277" type="line" smooth="yes"/>
      <point x="442" y="464" type="line" smooth="yes"/>
      <point x="286" y="541" type="line" smooth="yes"/>
      <point x="187" y="516" type="line" smooth="yes"/>
      <point x="128" y="458" type="line" smooth="yes"/>
      <point x="118" y="530" type="line" smooth="yes"/>
      <point x="60" y="530" type="line" smooth="yes"/>
      <point x="66" y="380" type="line" smooth="yes"/>
      <point x="66" y="-200" type="line" smooth="yes"/>
      <point x="136" y="-200" type="line" smooth="yes"/>
      <point x="136" y="60" type="line" smooth="yes"/>
      <point x="194" y="10" type="line" smooth="yes"/>
    </contour>
  </outline>
</glyph>
<glyph name="q" format="1">
  <advance width="539"/>
  <unicode hex="0071"/>
  <outline>
    <contour>
      <point x="403" y="396" type="line" smooth="yes"/>
      <point x="403" y="134" type="line" smooth="yes"/>
      <point x="354" y="80" type="line" smooth="yes"/>
      <point x="268" y="52" type="line" smooth="yes"/>
      <point x="157" y="106" type="line" smooth="yes"/>
      <point x="121" y="253" type="line" smooth="yes"/>
      <point x="121" y="277" type="line" smooth="yes"/>
      <point x="157" y="424" type="line" smooth="yes"/>
      <point x="268" y="478" type="line" smooth="yes"/>
      <point x="354" y="450" type="line" smooth="yes"/>
    </contour>
    <contour>
      <point x="403" y="-200" type="line" smooth="yes"/>
      <point x="472" y="-200" type="line" smooth="yes"/>
      <point x="472" y="380" type="line" smooth="yes"/>
      <point x="479" y="530" type="line" smooth="yes"/>
      <point x="420" y="530" type="line" smooth="yes"/>
      <point x="410" y="457" type="line" smooth="yes"/>
      <point x="351" y="516" type="line" smooth="yes"/>
      <point x="252" y="541" type="line" smooth="yes"/>
      <point x="96" y="464" type="line" smooth="yes"/>
      <point x="49" y="277" type="line" smooth="yes"/>
      <point x="49" y="253" type="line" smooth="yes"/>
      <point x="96" y="66" type="line" smooth="yes"/>
      <point x="252" y="-11" type="line" smooth="yes"/>
      <point x="344" y="10" type="line" smooth="yes"/>
      <point x="403" y="62" type="line" smooth="yes"/>
    </contour>
  </outline>
</glyph>
<glyph name="r" format="1">
  <advance width="333"/>
  <unicode hex="0072"/>
  <outline>
    <contour>
      <point x="276" y="541" type="line" smooth="yes"/>
      <point x="186" y="517" type="line" smooth="yes"/>
      <point x="128" y="460" type="line" smooth="yes"/>
      <point x="118" y="530" type="line" smooth="yes"/>
      <point x="60" y="530" type="line" smooth="yes"/>
      <point x="66" y="380" type="line" smooth="yes"/>
      <point x="66" y="0" type="line" smooth="yes"/>
      <point x="136" y="0" type="line" smooth="yes"/>
      <point x="136" y="393" type="line" smooth="yes"/>
      <point x="185" y="446" type="line" smooth="yes"/>
      <point x="277" y="473" type="line" smooth="yes"/>
      <point x="291" y="473" type="line" smooth="yes"/>
      <point x="291" y="540" type="line" smooth="yes"/>
      <point x="286" y="541" type="line" smooth="yes"/>
    </contour>
  </outline>
</glyph>
<glyph name="u" format="1">
  <advance width="528"/>
  <unicode hex="0075"/>
  <outline>
    <contour>
      <point x="61" y="530" type="line" smooth="yes"/>
      <point x="61" y="159" type="line" smooth="yes"/>
      <point x="102" y="37" type="line" smooth="yes"/>
      <point x="222" y="-11" type="line" smooth="yes"/>
      <point x="333" y="14" type="line" smooth="yes"/>
      <point x="399" y="74" type="line" smooth="yes"/>
      <point x="410" y="0" type="line" smooth="yes"/>
      <point x="468" y="0" type="line" smooth="yes"/>
      <point x="462" y="150" type="line" smooth="yes"/>
      <point x="462" y="530" type="line" smooth="yes"/>
      <point x="392" y="530" type="line" smooth="yes"/>
      <point x="392" y="134" type="line" smooth="yes"/>
      <point x="342" y="80" type="line" smooth="yes"/>
      <point x="245" y="52" type="line" smooth="yes"/>
      <point x="161" y="81" type="line" smooth="yes"/>
      <point x="130" y="169" type="line" smooth="yes"/>
      <point x="130" y="530" type="line" smooth="yes"/>
    </contour>
  </outline>
</glyph>
<glyph name="braceleft" format="1">
  <advance width="317"/>
  <unicode hex="007B"/>
  <outline>
    <contour>
      <point x="275" y="840" type="line" smooth="yes"/>
      <point x="257" y="840" type="line" smooth="yes"/>
      <point x="157" y="811" type="line" smooth="yes"/>
      <point x="111" y="701" type="line" smooth="yes"/>
      <point x="111" y="481" type="line" smooth="yes"/>
      <point x="89" y="410" type="line" smooth="yes"/>
      <point x="25" y="393" type="line" smooth="yes"/>
      <point x="25" y="327" type="line" smooth="yes"/>
      <point x="89" y="310" type="line" smooth="yes"/>
      <point x="111" y="239" type="line" smooth="yes"/>
      <point x="111" y="19" type="line" smooth="yes"/>
      <point x="157" y="-91" type="line" smooth="yes"/>
      <point x="257" y="-120" type="line" smooth="yes"/>
      <point x="275" y="-120" type="line" smooth="yes"/>
      <point x="275" y="-54" type="line" smooth="yes"/>
      <point x="206" y="-33" type="line" smooth="yes"/>
      <point x="181" y="49" type="line" smooth="yes"/>
      <point x="181" y="257" type="line" smooth="yes"/>
      <point x="166" y="322" type="line" smooth="yes"/>
      <point x="127" y="360" type="line" smooth="yes"/>
      <point x="166" y="397" type="line" smooth="yes"/>
      <point x="181" y="463" type="line" smooth="yes"/>
      <point x="181" y="671" type="line" smooth="yes"/>
      <point x="206" y="753" type="line" smooth="yes"/>
      <point x="275" y="774" type="line" smooth="yes"/>
    </contour>
  </outline>
</glyph>
<glyph name="cent" format="1">
  <advance width="600"/>
  <unicode hex="00A2"/>
  <outline>
    <contour>
      <point x="135" y="376" type="line" smooth="yes"/>
      <point x="135" y="404" type="line" smooth="yes"/>
      <point x="180" y="597" type="line" smooth="yes"/>
      <point x="313" y="661" type="line" smooth="yes"/>
      <point x="316" y="661" type="line" smooth="yes"/>
      <point x="323" y="661" type="line" smooth="yes"/>
      <point x="329" y="660" type="line" smooth="yes"/>
      <point x="208" y="153" type="line" smooth="yes"/>
      <point x="153" y="239" type="line" smooth="yes"/>
    </contour>
    <contour>
      <point x="434" y="840" type="line" smooth="yes"/>
      <point x="372" y="840" type="line" smooth="yes"/>
      <point x="344" y="725" type="line" smooth="yes"/>
      <point x="329" y="726" type="line" smooth="yes"/>
      <point x="313" y="727" type="line" smooth="yes"/>
      <point x="125" y="644" type="line" smooth="yes"/>
      <point x="62" y="404" type="line" smooth="yes"/>
      <point x="62" y="376" type="line" smooth="yes"/>
      <point x="94" y="190" type="line" smooth="yes"/>
      <point x="191" y="82" type="line" smooth="yes"/>
      <point x="157" y="-60" type="line" smooth="yes"/>
      <point x="219" y="-60" type="line" smooth="yes"/>
      <point x="248" y="61" type="line" smooth="yes"/>
      <point x="279" y="57" type="line" smooth="yes"/>
      <point x="313" y="55" type="line" smooth="yes"/>
      <point x="484" y="115" type="line" smooth="yes"/>
      <point x="538" y="269" type="line" smooth="yes"/>
      <point x="538" y="282" type="line" smooth="yes"/>
      <point x="467" y="282" type="line" smooth="yes"/>
      <point x="432" y="165" type="line" smooth="yes"/>
      <point x="316" y="120" type="line" smooth="yes"/>
      <point x="313" y="120" type="line" smooth="yes"/>
      <point x="287" y="121" type="line" smooth="yes"/>
      <point x="263" y="125" type="line" smooth="yes"/>
      <point x="388" y="648" type="line" smooth="yes"/>
      <point x="448" y="587" type="line" smooth="yes"/>
      <point x="467" y="477" type="line" smooth="yes"/>
      <point x="538" y="477" type="line" smooth="yes"/>
      <point x="538" y="501" type="line" smooth="yes"/>
      <point x="506" y="635" type="line" smooth="yes"/>
      <point x="404" y="714" type="line" smooth="yes"/>
    </contour>
  </outline>
</glyph>
<glyph name="sterling" format="1">
  <advance width="600"/>
  <unicode hex="00A3"/>
  <outline>
    <contour>
      <point x="328" y="726" type="line" smooth="yes"/>
      <point x="442" y="664" type="line" smooth="yes"/>
      <point x="477" y="500" type="line" smooth="yes"/>
      <point x="548" y="500" type="line" smooth="yes"/>
      <point x="548" y="512" type="line" smooth="yes"/>
      <point x="499" y="712" type="line" smooth="yes"/>
      <point x="328" y="791" type="line" smooth="yes"/>
      <point x="170" y="731" type="line" smooth="yes"/>
      <point x="116" y="577" type="line" smooth="yes"/>
      <point x="122" y="494" type="line" smooth="yes"/>
      <point x="136" y="416" type="line" smooth="yes"/>
      <point x="56" y="416" type="line" smooth="yes"/>
      <point x="56" y="351" type="line" smooth="yes"/>
      <point x="154" y="351" type="line" smooth="yes"/>
      <point x="194" y="213" type="line" smooth="yes"/>
      <point x="221" y="66" type="line" smooth="yes"/>
      <point x="56" y="66" type="line" smooth="yes"/>
      <point x="56" y="0" type="line" smooth="yes"/>
      <point x="544" y="0" type="line" smooth="yes"/>
      <point x="544" y="66" type="line" smooth="yes"/>
      <point x="283" y="66" type="line" smooth="yes"/>
      <point x="264" y="214" type="line" smooth="yes"/>
      <point x="230" y="351" type="line" smooth="yes"/>
      <point x="413" y="351" type="line" smooth="yes"/>
      <point x="413" y="416" type="line" smooth="yes"/>
      <point x="212" y="416" type="line" smooth="yes"/>
      <point x="196" y="495" type="line" smooth="yes"/>
      <point x="189" y="570" type="line" smooth="yes"/>
      <point x="223" y="684" type="line" smooth="yes"/>
    </contour>
  </outline>
</glyph>
<glyph name="section" format="1">
  <advance width="513"/>
  <unicode hex="00A7"/>
  <outline>
    <contour>
      <point x="399" y="390" type="line" smooth="yes"/>
      <point x="365" y="317" type="line" smooth="yes"/>
      <point x="264" y="290" type="line" smooth="yes"/>
      <point x="260" y="290" type="line" smooth="yes"/>
      <point x="149" y="315" type="line" smooth="yes"/>
      <point x="114" y="390" type="line" smooth="yes"/>
      <point x="149" y="463" type="line" smooth="yes"/>
      <point x="249" y="490" type="line" smooth="yes"/>
      <point x="252" y="490" type="line" smooth="yes"/>
      <point x="364" y="465" type="line" smooth="yes"/>
    </contour>
    <contour>
      <point x="471" y="389" type="line" smooth="yes"/>
      <point x="471" y="395" type="line" smooth="yes"/>
      <point x="426" y="503" type="line" smooth="yes"/>
      <point x="281" y="544" type="line" smooth="yes"/>
      <point x="168" y="575" type="line" smooth="yes"/>
      <point x="141" y="640" type="line" smooth="yes"/>
      <point x="174" y="708" type="line" smooth="yes"/>
      <point x="267" y="732" type="line" smooth="yes"/>
      <point x="369" y="699" type="line" smooth="yes"/>
      <point x="396" y="609" type="line" smooth="yes"/>
      <point x="466" y="609" type="line" smooth="yes"/>
      <point x="466" y="613" type="line" smooth="yes"/>
      <point x="421" y="741" type="line" smooth="yes"/>
      <point x="267" y="791" type="line" smooth="yes"/>
      <point x="122" y="750" type="line" smooth="yes"/>
      <point x="70" y="640" type="line" smooth="yes"/>
      <point x="70" y="634" type="line" smooth="yes"/>
      <point x="84" y="568" type="line" smooth="yes"/>
      <point x="132" y="520" type="line" smooth="yes"/>
      <point x="64" y="469" type="line" smooth="yes"/>
      <point x="41" y="391" type="line" smooth="yes"/>
      <point x="41" y="385" type="line" smooth="yes"/>
      <point x="87" y="278" type="line" smooth="yes"/>
      <point x="232" y="236" type="line" smooth="yes"/>
      <point x="345" y="205" type="line" smooth="yes"/>
      <point x="372" y="140" type="line" smooth="yes"/>
      <point x="339" y="72" type="line" smooth="yes"/>
      <point x="245" y="48" type="line" smooth="yes"/>
      <point x="144" y="81" type="line" smooth="yes"/>
      <point x="117" y="171" type="line" smooth="yes"/>
      <point x="47" y="171" type="line" smooth="yes"/>
      <point x="47" y="167" type="line" smooth="yes"/>
      <point x="92" y="39" type="line" smooth="yes"/>
      <point x="245" y="-11" type="line" smooth="yes"/>
      <point x="391" y="30" type="line" smooth="yes"/>
      <point x="443" y="140" type="line" smooth="yes"/>
      <point x="443" y="146" type="line" smooth="yes"/>
      <point x="429" y="212" type="line" smooth="yes"/>
      <point x="380" y="260" type="line" smooth="yes"/>
      <point x="448" y="310" type="line" smooth="yes"/>
    </contour>
  </outline>
</glyph>
<glyph name="dieresis" format="1">
  <advance width="500"/>
  <unicode hex="00A8"/>
  <outline>
    <contour>
      <point x="377" y="745" type="line" smooth="yes"/>
      <point x="290" y="745" type="line" smooth="yes"/>
      <point x="290" y="657" type="line" smooth="yes"/>
      <point x="377" y="657" type="line" smooth="yes"/>
    </contour>
    <contour>
      <point x="210" y="745" type="line" smooth="yes"/>
      <point x="123" y="745" type="line" smooth="yes"/>
      <point x="123" y="657" type="line" smooth="yes"/>
      <point x="210" y="657" type="line" smooth="yes"/>
    </contour>
  </outline>
</glyph>
<glyph name="copyright" format="1">
  <advance width="920"/>
  <unicode hex="00A9"/>
  <outline>
    <contour>
      <point x="461" y="206" type="line" smooth="yes"/>
      <point x="352" y="260" type="line" smooth="yes"/>
      <point x="320" y="378" type="line" smooth="yes"/>
      <point x="320" y="402" type="line" smooth="yes"/>
      <point x="352" y="520" type="line" smooth="yes"/>
      <point x="461" y="574" type="line" smooth="yes"/>
      <point x="559" y="538" type="line" smooth="yes"/>
      <point x="586" y="459" type="line" smooth="yes"/>
      <point x="651" y="459" type="line" smooth="yes"/>
      <point x="651" y="476" type="line" smooth="yes"/>
      <point x="609" y="580" type="line" smooth="yes"/>
      <point x="460" y="636" type="line" smooth="yes"/>
      <point x="299" y="560" type="line" smooth="yes"/>
      <point x="252" y="402" type="line" smooth="yes"/>
      <point x="252" y="378" type="line" smooth="yes"/>
      <point x="299" y="220" type="line" smooth="yes"/>
      <point x="460" y="144" type="line" smooth="yes"/>
      <point x="609" y="198" type="line" smooth="yes"/>
      <point x="651" y="298" type="line" smooth="yes"/>
      <point x="651" y="311" type="line" smooth="yes"/>
      <point x="586" y="311" type="line" smooth="yes"/>
      <point x="560" y="242" type="line" smooth="yes"/>
    </contour>
    <contour>
      <point x="102" y="390" type="line" smooth="yes"/>
      <point x="207" y="643" type="line" smooth="yes"/>
      <point x="460" y="748" type="line" smooth="yes"/>
      <point x="713" y="643" type="line" smooth="yes"/>
      <point x="818" y="390" type="line" smooth="yes"/>
      <point x="713" y="137" type="line" smooth="yes"/>
      <point x="460" y="32" type="line" smooth="yes"/>
      <point x="207" y="137" type="line" smooth="yes"/>
    </contour>
    <contour>
      <point x="59" y="390" type="line" smooth="yes"/>
      <point x="177" y="107" type="line" smooth="yes"/>
      <point x="460" y="-11" type="line" smooth="yes"/>
      <point x="743" y="107" type="line" smooth="yes"/>
      <point x="861" y="390" type="line" smooth="yes"/>
      <point x="743" y="673" type="line" smooth="yes"/>
      <point x="460" y="791" type="line" smooth="yes"/>
      <point x="177" y="673" type="line" smooth="yes"/>
    </contour>
  </outline>
</glyph>
<glyph name="ordfeminine" format="1">
  <advance width="390"/>
  <unicode hex="00AA"/>
  <outline>
    <contour>
      <point x="352" y="212" type="line" smooth="yes"/>
      <point x="352" y="269" type="line" smooth="yes"/>
      <point x="47" y="269" type="line" smooth="yes"/>
      <point x="47" y="212" type="line" smooth="yes"/>
    </contour>
    <contour>
      <point x="172" y="433" type="line" smooth="yes"/>
      <point x="118" y="452" type="line" smooth="yes"/>
      <point x="102" y="495" type="line" smooth="yes"/>
      <point x="102" y="501" type="line" smooth="yes"/>
      <point x="122" y="551" type="line" smooth="yes"/>
      <point x="178" y="575" type="line" smooth="yes"/>
      <point x="284" y="592" type="line" smooth="yes"/>
      <point x="284" y="488" type="line" smooth="yes"/>
      <point x="246" y="453" type="line" smooth="yes"/>
    </contour>
    <contour>
      <point x="299" y="388" type="line" smooth="yes"/>
      <point x="352" y="388" type="line" smooth="yes"/>
      <point x="347" y="499" type="line" smooth="yes"/>
      <point x="347" y="644" type="line" smooth="yes"/>
      <point x="316" y="751" type="line" smooth="yes"/>
      <point x="200" y="791" type="line" smooth="yes"/>
      <point x="82" y="748" type="line" smooth="yes"/>
      <point x="53" y="659" type="line" smooth="yes"/>
      <point x="53" y="652" type="line" smooth="yes"/>
      <point x="114" y="652" type="line" smooth="yes"/>
      <point x="131" y="713" type="line" smooth="yes"/>
      <point x="199" y="739" type="line" smooth="yes"/>
      <point x="266" y="715" type="line" smooth="yes"/>
      <point x="284" y="644" type="line" smooth="yes"/>
      <point x="284" y="635" type="line" smooth="yes"/>
      <point x="170" y="618" type="line" smooth="yes"/>
      <point x="79" y="585" type="line" smooth="yes"/>
      <point x="38" y="496" type="line" smooth="yes"/>
      <point x="38" y="489" type="line" smooth="yes"/>
      <point x="68" y="410" type="line" smooth="yes"/>
      <point x="154" y="379" type="line" smooth="yes"/>
      <point x="237" y="397" type="line" smooth="yes"/>
      <point x="290" y="441" type="line" smooth="yes"/>
    </contour>
  </outline>
</glyph>
<glyph name="degree" format="1">
  <advance width="400"/>
  <unicode hex="00B0"/>
  <outline>
    <contour>
      <point x="353" y="639" type="line" smooth="yes"/>
      <point x="309" y="750" type="line" smooth="yes"/>
      <point x="200" y="791" type="line" smooth="yes"/>
      <point x="91" y="750" type="line" smooth="yes"/>
      <point x="47" y="639" type="line" smooth="yes"/>
      <point x="47" y="635" type="line" smooth="yes"/>
      <point x="91" y="524" type="line" smooth="yes"/>
      <point x="200" y="484" type="line" smooth="yes"/>
      <point x="309" y="524" type="line" smooth="yes"/>
      <point x="353" y="635" type="line" smooth="yes"/>
    </contour>
    <contour>
      <point x="300" y="634" type="line" smooth="yes"/>
      <point x="271" y="563" type="line" smooth="yes"/>
      <point x="203" y="537" type="line" smooth="yes"/>
      <point x="197" y="537" type="line" smooth="yes"/>
      <point x="129" y="563" type="line" smooth="yes"/>
      <point x="100" y="634" type="line" smooth="yes"/>
      <point x="100" y="641" type="line" smooth="yes"/>
      <point x="129" y="712" type="line" smooth="yes"/>
      <point x="197" y="737" type="line" smooth="yes"/>
      <point x="203" y="737" type="line" smooth="yes"/>
      <point x="271" y="712" type="line" smooth="yes"/>
      <point x="300" y="641" type="line" smooth="yes"/>
    </contour>
  </outline>
</glyph>
<glyph name="twosuperior" format="1">
  <advance width="300"/>
  <unicode hex="00B2"/>
  <outline>
    <contour>
      <point x="275" y="442" type="line" smooth="yes"/>
      <point x="111" y="442" type="line" smooth="yes"/>
      <point x="230" y="571" type="line" smooth="yes"/>
      <point x="265" y="619" type="line" smooth="yes"/>
      <point x="275" y="672" type="line" smooth="yes"/>
      <point x="275" y="679" type="line" smooth="yes"/>
      <point x="246" y="754" type="line" smooth="yes"/>
      <point x="150" y="786" type="line" smooth="yes"/>
      <point x="55" y="754" type="line" smooth="yes"/>
      <point x="25" y="661" type="line" smooth="yes"/>
      <point x="25" y="650" type="line" smooth="yes"/>
      <point x="84" y="650" type="line" smooth="yes"/>
      <point x="101" y="714" type="line" smooth="yes"/>
      <point x="148" y="733" type="line" smooth="yes"/>
      <point x="151" y="733" type="line" smooth="yes"/>
      <point x="197" y="716" type="line" smooth="yes"/>
      <point x="215" y="669" type="line" smooth="yes"/>
      <point x="215" y="664" type="line" smooth="yes"/>
      <point x="208" y="631" type="line" smooth="yes"/>
      <point x="183" y="599" type="line" smooth="yes"/>
      <point x="25" y="427" type="line" smooth="yes"/>
      <point x="25" y="390" type="line" smooth="yes"/>
      <point x="275" y="390" type="line" smooth="yes"/>
    </contour>
  </outline>
</glyph>
<glyph name="ordmasculine" format="1">
  <advance width="418"/>
  <unicode hex="00BA"/>
  <outline>
    <contour>
      <point x="48" y="212" type="line" smooth="yes"/>
      <point x="371" y="212" type="line" smooth="yes"/>
      <point x="371" y="269" type="line" smooth="yes"/>
      <point x="48" y="269" type="line" smooth="yes"/>
    </contour>
    <contour>
      <point x="104" y="575" type="line" smooth="yes"/>
      <point x="104" y="595" type="line" smooth="yes"/>
      <point x="129" y="697" type="line" smooth="yes"/>
      <point x="209" y="735" type="line" smooth="yes"/>
      <point x="289" y="697" type="line" smooth="yes"/>
      <point x="314" y="595" type="line" smooth="yes"/>
      <point x="314" y="575" type="line" smooth="yes"/>
      <point x="289" y="474" type="line" smooth="yes"/>
      <point x="209" y="435" type="line" smooth="yes"/>
      <point x="129" y="474" type="line" smooth="yes"/>
    </contour>
    <contour>
      <point x="378" y="575" type="line" smooth="yes"/>
      <point x="378" y="595" type="line" smooth="yes"/>
      <point x="338" y="735" type="line" smooth="yes"/>
      <point x="209" y="791" type="line" smooth="yes"/>
      <point x="81" y="735" type="line" smooth="yes"/>
      <point x="40" y="595" type="line" smooth="yes"/>
      <point x="40" y="575" type="line" smooth="yes"/>
      <point x="81" y="436" type="line" smooth="yes"/>
      <point x="209" y="379" type="line" smooth="yes"/>
      <point x="338" y="436" type="line" smooth="yes"/>
    </contour>
  </outline>
</glyph>
<glyph name="onehalf" format="1">
  <advance width="800"/>
  <unicode hex="00BD"/>
  <outline>
    <contour>
      <point x="277" y="390" type="line" smooth="yes"/>
      <point x="277" y="442" type="line" smooth="yes"/>
      <point x="185" y="442" type="line" smooth="yes"/>
      <point x="185" y="781" type="line" smooth="yes"/>
      <point x="142" y="781" type="line" smooth="yes"/>
      <point x="20" y="698" type="line" smooth="yes"/>
      <point x="49" y="654" type="line" smooth="yes"/>
      <point x="125" y="705" type="line" smooth="yes"/>
      <point x="125" y="442" type="line" smooth="yes"/>
      <point x="32" y="442" type="line" smooth="yes"/>
      <point x="32" y="390" type="line" smooth="yes"/>
    </contour>
    <contour>
      <point x="775" y="52" type="line" smooth="yes"/>
      <point x="611" y="52" type="line" smooth="yes"/>
      <point x="730" y="181" type="line" smooth="yes"/>
      <point x="765" y="229" type="line" smooth="yes"/>
      <point x="775" y="282" type="line" smooth="yes"/>
      <point x="775" y="289" type="line" smooth="yes"/>
      <point x="746" y="364" type="line" smooth="yes"/>
      <point x="650" y="396" type="line" smooth="yes"/>
      <point x="555" y="364" type="line" smooth="yes"/>
      <point x="525" y="271" type="line" smooth="yes"/>
      <point x="525" y="260" type="line" smooth="yes"/>
      <point x="584" y="260" type="line" smooth="yes"/>
      <point x="601" y="324" type="line" smooth="yes"/>
      <point x="648" y="343" type="line" smooth="yes"/>
      <point x="651" y="343" type="line" smooth="yes"/>
      <point x="697" y="326" type="line" smooth="yes"/>
      <point x="715" y="279" type="line" smooth="yes"/>
      <point x="715" y="274" type="line" smooth="yes"/>
      <point x="708" y="241" type="line" smooth="yes"/>
      <point x="683" y="209" type="line" smooth="yes"/>
      <point x="525" y="37" type="line" smooth="yes"/>
      <point x="525" y="0" type="line" smooth="yes"/>
      <point x="775" y="0" type="line" smooth="yes"/>
    </contour>
    <contour>
      <point x="144" y="0" type="line" smooth="yes"/>
      <point x="720" y="780" type="line" smooth="yes"/>
      <point x="656" y="780" type="line" smooth="yes"/>
      <point x="80" y="0" type="line" smooth="yes"/>
    </contour>
  </outline>
</glyph>
<glyph name="threequarters" format="1">
  <advance width="800"/>
  <unicode hex="00BE"/>
  <outline>
    <contour>
      <point x="674" y="293" type="line" smooth="yes"/>
      <point x="673" y="254" type="line" smooth="yes"/>
      <point x="673" y="146" type="line" smooth="yes"/>
      <point x="614" y="146" type="line" smooth="yes"/>
      <point x="580" y="145" type="line" smooth="yes"/>
    </contour>
    <contour>
      <point x="144" y="0" type="line" smooth="yes"/>
      <point x="720" y="780" type="line" smooth="yes"/>
      <point x="656" y="780" type="line" smooth="yes"/>
      <point x="80" y="0" type="line" smooth="yes"/>
    </contour>
    <contour>
      <point x="82" y="515" type="line" smooth="yes"/>
      <point x="22" y="515" type="line" smooth="yes"/>
      <point x="22" y="508" type="line" smooth="yes"/>
      <point x="54" y="416" type="line" smooth="yes"/>
      <point x="150" y="383" type="line" smooth="yes"/>
      <point x="245" y="417" type="line" smooth="yes"/>
      <point x="277" y="492" type="line" smooth="yes"/>
      <point x="277" y="501" type="line" smooth="yes"/>
      <point x="262" y="556" type="line" smooth="yes"/>
      <point x="224" y="589" type="line" smooth="yes"/>
      <point x="260" y="620" type="line" smooth="yes"/>
      <point x="275" y="674" type="line" smooth="yes"/>
      <point x="275" y="682" type="line" smooth="yes"/>
      <point x="246" y="754" type="line" smooth="yes"/>
      <point x="150" y="786" type="line" smooth="yes"/>
      <point x="55" y="754" type="line" smooth="yes"/>
      <point x="25" y="661" type="line" smooth="yes"/>
      <point x="25" y="650" type="line" smooth="yes"/>
      <point x="84" y="650" type="line" smooth="yes"/>
      <point x="100" y="714" type="line" smooth="yes"/>
      <point x="147" y="733" type="line" smooth="yes"/>
      <point x="152" y="733" type="line" smooth="yes"/>
      <point x="197" y="717" type="line" smooth="yes"/>
      <point x="215" y="675" type="line" smooth="yes"/>
      <point x="215" y="671" type="line" smooth="yes"/>
      <point x="198" y="629" type="line" smooth="yes"/>
      <point x="153" y="615" type="line" smooth="yes"/>
      <point x="100" y="615" type="line" smooth="yes"/>
      <point x="100" y="563" type="line" smooth="yes"/>
      <point x="155" y="563" type="line" smooth="yes"/>
      <point x="200" y="548" type="line" smooth="yes"/>
      <point x="218" y="504" type="line" smooth="yes"/>
      <point x="218" y="497" type="line" smooth="yes"/>
      <point x="198" y="451" type="line" smooth="yes"/>
      <point x="152" y="436" type="line" smooth="yes"/>
      <point x="147" y="436" type="line" smooth="yes"/>
      <point x="100" y="455" type="line" smooth="yes"/>
    </contour>
    <contour>
      <point x="733" y="0" type="line" smooth="yes"/>
      <point x="733" y="93" type="line" smooth="yes"/>
      <point x="785" y="93" type="line" smooth="yes"/>
      <point x="785" y="146" type="line" smooth="yes"/>
      <point x="733" y="146" type="line" smooth="yes"/>
      <point x="733" y="390" type="line" smooth="yes"/>
      <point x="675" y="390" type="line" smooth="yes"/>
      <point x="514" y="134" type="line" smooth="yes"/>
      <point x="514" y="93" type="line" smooth="yes"/>
      <point x="673" y="93" type="line" smooth="yes"/>
      <point x="673" y="0" type="line" smooth="yes"/>
    </contour>
  </outline>
</glyph>
<glyph name="questiondown" format="1">
  <advance width="455"/>
  <unicode hex="00BF"/>
  <outline>
    <contour>
      <point x="184" y="440" type="line" smooth="yes"/>
      <point x="274" y="440" type="line" smooth="yes"/>
      <point x="274" y="530" type="line" smooth="yes"/>
      <point x="184" y="530" type="line" smooth="yes"/>
    </contour>
    <contour>
      <point x="224" y="-146" type="line" smooth="yes"/>
      <point x="130" y="-113" type="line" smooth="yes"/>
      <point x="101" y="-22" type="line" smooth="yes"/>
      <point x="179" y="145" type="line" smooth="yes"/>
      <point x="252" y="341" type="line" smooth="yes"/>
      <point x="205" y="341" type="line" smooth="yes"/>
      <point x="114" y="164" type="line" smooth="yes"/>
      <point x="28" y="-29" type="line" smooth="yes"/>
      <point x="77" y="-161" type="line" smooth="yes"/>
      <point x="224" y="-211" type="line" smooth="yes"/>
      <point x="388" y="-137" type="line" smooth="yes"/>
      <point x="429" y="48" type="line" smooth="yes"/>
      <point x="429" y="60" type="line" smooth="yes"/>
      <point x="357" y="60" type="line" smooth="yes"/>
      <point x="330" y="-91" type="line" smooth="yes"/>
    </contour>
  </outline>
</glyph>
<glyph name="Atilde" format="1">
  <advance width="611"/>
  <unicode hex="00C3"/>
  <outline>
    <contour>
      <point x="407" y="936" type="line" smooth="yes"/>
      <point x="396" y="902" type="line" smooth="yes"/>
      <point x="370" y="893" type="line" smooth="yes"/>
      <point x="310" y="920" type="line" smooth="yes"/>
      <point x="232" y="947" type="line" smooth="yes"/>
      <point x="175" y="925" type="line" smooth="yes"/>
      <point x="153" y="854" type="line" smooth="yes"/>
      <point x="203" y="854" type="line" smooth="yes"/>
      <point x="214" y="888" type="line" smooth="yes"/>
      <point x="240" y="897" type="line" smooth="yes"/>
      <point x="300" y="870" type="line" smooth="yes"/>
      <point x="378" y="843" type="line" smooth="yes"/>
      <point x="435" y="865" type="line" smooth="yes"/>
      <point x="457" y="936" type="line" smooth="yes"/>
    </contour>
    <contour>
      <point x="305" y="709" type="line" smooth="yes"/>
      <point x="429" y="265" type="line" smooth="yes"/>
      <point x="181" y="265" type="line" smooth="yes"/>
    </contour>
    <contour>
      <point x="254" y="788" type="line" smooth="yes"/>
      <point x="29" y="0" type="line" smooth="yes"/>
      <point x="107" y="0" type="line" smooth="yes"/>
      <point x="163" y="200" type="line" smooth="yes"/>
      <point x="448" y="200" type="line" smooth="yes"/>
      <point x="504" y="0" type="line" smooth="yes"/>
      <point x="582" y="0" type="line" smooth="yes"/>
      <point x="357" y="788" type="line" smooth="yes"/>
    </contour>
  </outline>
</glyph>
<glyph name="Aring" format="1">
  <advance width="611"/>
  <unicode hex="00C5"/>
  <outline>
    <contour>
      <point x="249" y="867" type="line" smooth="yes"/>
      <point x="265" y="907" type="line" smooth="yes"/>
      <point x="305" y="923" type="line" smooth="yes"/>
      <point x="345" y="907" type="line" smooth="yes"/>
      <point x="361" y="867" type="line" smooth="yes"/>
      <point x="345" y="827" type="line" smooth="yes"/>
      <point x="305" y="811" type="line" smooth="yes"/>
      <point x="265" y="827" type="line" smooth="yes"/>
    </contour>
    <contour>
      <point x="305" y="709" type="line" smooth="yes"/>
      <point x="429" y="265" type="line" smooth="yes"/>
      <point x="181" y="265" type="line" smooth="yes"/>
    </contour>
    <contour>
      <point x="211" y="867" type="line" smooth="yes"/>
      <point x="223" y="821" type="line" smooth="yes"/>
      <point x="254" y="788" type="line" smooth="yes"/>
      <point x="29" y="0" type="line" smooth="yes"/>
      <point x="107" y="0" type="line" smooth="yes"/>
      <point x="163" y="200" type="line" smooth="yes"/>
      <point x="448" y="200" type="line" smooth="yes"/>
      <point x="504" y="0" type="line" smooth="yes"/>
      <point x="582" y="0" type="line" smooth="yes"/>
      <point x="357" y="788" type="line" smooth="yes"/>
      <point x="356" y="788" type="line" smooth="yes"/>
      <point x="387" y="821" type="line" smooth="yes"/>
      <point x="399" y="867" type="line" smooth="yes"/>
      <point x="372" y="934" type="line" smooth="yes"/>
      <point x="305" y="961" type="line" smooth="yes"/>
      <point x="239" y="934" type="line" smooth="yes"/>
    </contour>
  </outline>
</glyph>
<glyph name="Ccedilla" format="1">
  <advance width="618"/>
  <unicode hex="00C7"/>
  <outline>
    <contour>
      <point x="240" y="-191" type="line" smooth="yes"/>
      <point x="280" y="-206" type="line" smooth="yes"/>
      <point x="332" y="-211" type="line" smooth="yes"/>
      <point x="406" y="-193" type="line" smooth="yes"/>
      <point x="435" y="-133" type="line" smooth="yes"/>
      <point x="403" y="-74" type="line" smooth="yes"/>
      <point x="335" y="-56" type="line" smooth="yes"/>
      <point x="331" y="-56" type="line" smooth="yes"/>
      <point x="348" y="-10" type="line" smooth="yes"/>
      <point x="514" y="62" type="line" smooth="yes"/>
      <point x="568" y="244" type="line" smooth="yes"/>
      <point x="568" y="254" type="line" smooth="yes"/>
      <point x="494" y="254" type="line" smooth="yes"/>
      <point x="455" y="106" type="line" smooth="yes"/>
      <point x="328" y="54" type="line" smooth="yes"/>
      <point x="321" y="54" type="line" smooth="yes"/>
      <point x="177" y="129" type="line" smooth="yes"/>
      <point x="131" y="370" type="line" smooth="yes"/>
      <point x="131" y="410" type="line" smooth="yes"/>
      <point x="177" y="651" type="line" smooth="yes"/>
      <point x="321" y="726" type="line" smooth="yes"/>
      <point x="328" y="726" type="line" smooth="yes"/>
      <point x="455" y="671" type="line" smooth="yes"/>
      <point x="494" y="496" type="line" smooth="yes"/>
      <point x="568" y="496" type="line" smooth="yes"/>
      <point x="568" y="524" type="line" smooth="yes"/>
      <point x="507" y="724" type="line" smooth="yes"/>
      <point x="322" y="791" type="line" smooth="yes"/>
      <point x="122" y="702" type="line" smooth="yes"/>
      <point x="57" y="410" type="line" smooth="yes"/>
      <point x="57" y="370" type="line" smooth="yes"/>
      <point x="117" y="86" type="line" smooth="yes"/>
      <point x="300" y="-10" type="line" smooth="yes"/>
      <point x="273" y="-80" type="line" smooth="yes"/>
      <point x="292" y="-103" type="line" smooth="yes"/>
      <point x="301" y="-102" type="line" smooth="yes"/>
      <point x="321" y="-100" type="line" smooth="yes"/>
      <point x="366" y="-107" type="line" smooth="yes"/>
      <point x="383" y="-131" type="line" smooth="yes"/>
      <point x="369" y="-156" type="line" smooth="yes"/>
      <point x="325" y="-162" type="line" smooth="yes"/>
      <point x="287" y="-158" type="line" smooth="yes"/>
      <point x="255" y="-147" type="line" smooth="yes"/>
    </contour>
  </outline>
</glyph>
<glyph name="Eacute" format="1">
  <advance width="549"/>
  <unicode hex="00C9"/>
  <outline>
    <contour>
      <point x="323" y="950" type="line" smooth="yes"/>
      <point x="263" y="840" type="line" smooth="yes"/>
      <point x="335" y="840" type="line" smooth="yes"/>
      <point x="397" y="950" type="line" smooth="yes"/>
    </contour>
    <contour>
      <point x="74" y="780" type="line" smooth="yes"/>
      <point x="74" y="0" type="line" smooth="yes"/>
      <point x="509" y="0" type="line" smooth="yes"/>
      <point x="509" y="65" type="line" smooth="yes"/>
      <point x="146" y="65" type="line" smooth="yes"/>
      <point x="146" y="366" type="line" smooth="yes"/>
      <point x="459" y="366" type="line" smooth="yes"/>
      <point x="459" y="430" type="line" smooth="yes"/>
      <point x="146" y="430" type="line" smooth="yes"/>
      <point x="146" y="715" type="line" smooth="yes"/>
      <point x="509" y="715" type="line" smooth="yes"/>
      <point x="509" y="780" type="line" smooth="yes"/>
    </contour>
  </outline>
</glyph>
<glyph name="Ecircumflex" format="1">
  <advance width="549"/>
  <unicode hex="00CA"/>
  <outline>
    <contour>
      <point x="231" y="840" type="line" smooth="yes"/>
      <point x="299" y="906" type="line" smooth="yes"/>
      <point x="367" y="840" type="line" smooth="yes"/>
      <point x="437" y="840" type="line" smooth="yes"/>
      <point x="331" y="950" type="line" smooth="yes"/>
      <point x="267" y="950" type="line" smooth="yes"/>
      <point x="161" y="840" type="line" smooth="yes"/>
    </contour>
    <contour>
      <point x="74" y="780" type="line" smooth="yes"/>
      <point x="74" y="0" type="line" smooth="yes"/>
      <point x="509" y="0" type="line" smooth="yes"/>
      <point x="509" y="65" type="line" smooth="yes"/>
      <point x="146" y="65" type="line" smooth="yes"/>
      <point x="146" y="366" type="line" smooth="yes"/>
      <point x="459" y="366" type="line" smooth="yes"/>
      <point x="459" y="430" type="line" smooth="yes"/>
      <point x="146" y="430" type="line" smooth="yes"/>
      <point x="146" y="715" type="line" smooth="yes"/>
      <point x="509" y="715" type="line" smooth="yes"/>
      <point x="509" y="780" type="line" smooth="yes"/>
    </contour>
  </outline>
</glyph>
<glyph name="Igrave" format="1">
  <advance width="229"/>
  <unicode hex="00CC"/>
  <outline>
    <contour>
      <point x="17" y="950" type="line" smooth="yes"/>
      <point x="79" y="840" type="line" smooth="yes"/>
      <point x="151" y="840" type="line" smooth="yes"/>
      <point x="91" y="950" type="line" smooth="yes"/>
    </contour>
    <contour>
      <point x="151" y="780" type="line" smooth="yes"/>
      <point x="79" y="780" type="line" smooth="yes"/>
      <point x="79" y="0" type="line" smooth="yes"/>
      <point x="151" y="0" type="line" smooth="yes"/>
    </contour>
  </outline>
</glyph>
<glyph name="Eth" format="1">
  <advance width="699"/>
  <unicode hex="00D0"/>
  <outline>
    <contour>
      <point x="206" y="715" type="line" smooth="yes"/>
      <point x="334" y="715" type="line" smooth="yes"/>
      <point x="507" y="646" type="line" smooth="yes"/>
      <point x="568" y="410" type="line" smooth="yes"/>
      <point x="568" y="370" type="line" smooth="yes"/>
      <point x="507" y="134" type="line" smooth="yes"/>
      <point x="334" y="65" type="line" smooth="yes"/>
      <point x="206" y="65" type="line" smooth="yes"/>
      <point x="206" y="369" type="line" smooth="yes"/>
      <point x="419" y="369" type="line" smooth="yes"/>
      <point x="419" y="428" type="line" smooth="yes"/>
      <point x="206" y="428" type="line" smooth="yes"/>
    </contour>
    <contour>
      <point x="18" y="369" type="line" smooth="yes"/>
      <point x="134" y="369" type="line" smooth="yes"/>
      <point x="134" y="0" type="line" smooth="yes"/>
      <point x="340" y="0" type="line" smooth="yes"/>
      <point x="562" y="84" type="line" smooth="yes"/>
      <point x="642" y="370" type="line" smooth="yes"/>
      <point x="642" y="410" type="line" smooth="yes"/>
      <point x="562" y="696" type="line" smooth="yes"/>
      <point x="340" y="780" type="line" smooth="yes"/>
      <point x="134" y="780" type="line" smooth="yes"/>
      <point x="134" y="428" type="line" smooth="yes"/>
      <point x="18" y="428" type="line" smooth="yes"/>
    </contour>
  </outline>
</glyph>
<glyph name="Ntilde" format="1">
  <advance width="659"/>
  <unicode hex="00D1"/>
  <outline>
    <contour>
      <point x="431" y="936" type="line" smooth="yes"/>
      <point x="420" y="902" type="line" smooth="yes"/>
      <point x="394" y="893" type="line" smooth="yes"/>
      <point x="334" y="920" type="line" smooth="yes"/>
      <point x="256" y="947" type="line" smooth="yes"/>
      <point x="199" y="925" type="line" smooth="yes"/>
      <point x="177" y="854" type="line" smooth="yes"/>
      <point x="227" y="854" type="line" smooth="yes"/>
      <point x="238" y="888" type="line" smooth="yes"/>
      <point x="264" y="897" type="line" smooth="yes"/>
      <point x="324" y="870" type="line" smooth="yes"/>
      <point x="402" y="843" type="line" smooth="yes"/>
      <point x="459" y="865" type="line" smooth="yes"/>
      <point x="481" y="936" type="line" smooth="yes"/>
    </contour>
    <contour>
      <point x="585" y="780" type="line" smooth="yes"/>
      <point x="517" y="780" type="line" smooth="yes"/>
      <point x="517" y="303" type="line" smooth="yes"/>
      <point x="520" y="122" type="line" smooth="yes"/>
      <point x="152" y="780" type="line" smooth="yes"/>
      <point x="74" y="780" type="line" smooth="yes"/>
      <point x="74" y="0" type="line" smooth="yes"/>
      <point x="142" y="0" type="line" smooth="yes"/>
      <point x="142" y="477" type="line" smooth="yes"/>
      <point x="138" y="658" type="line" smooth="yes"/>
      <point x="507" y="0" type="line" smooth="yes"/>
      <point x="585" y="0" type="line" smooth="yes"/>
    </contour>
  </outline>
</glyph>
<glyph name="Ocircumflex" format="1">
  <advance width="649"/>
  <unicode hex="00D4"/>
  <outline>
    <contour>
      <point x="256" y="840" type="line" smooth="yes"/>
      <point x="324" y="906" type="line" smooth="yes"/>
      <point x="392" y="840" type="line" smooth="yes"/>
      <point x="462" y="840" type="line" smooth="yes"/>
      <point x="356" y="950" type="line" smooth="yes"/>
      <point x="292" y="950" type="line" smooth="yes"/>
      <point x="186" y="840" type="line" smooth="yes"/>
    </contour>
    <contour>
      <point x="321" y="54" type="line" smooth="yes"/>
      <point x="177" y="129" type="line" smooth="yes"/>
      <point x="131" y="370" type="line" smooth="yes"/>
      <point x="131" y="410" type="line" smooth="yes"/>
      <point x="177" y="651" type="line" smooth="yes"/>
      <point x="321" y="726" type="line" smooth="yes"/>
      <point x="328" y="726" type="line" smooth="yes"/>
      <point x="472" y="651" type="line" smooth="yes"/>
      <point x="518" y="410" type="line" smooth="yes"/>
      <point x="518" y="370" type="line" smooth="yes"/>
      <point x="472" y="129" type="line" smooth="yes"/>
      <point x="328" y="54" type="line" smooth="yes"/>
    </contour>
    <contour>
      <point x="324" y="-11" type="line" smooth="yes"/>
      <point x="525" y="78" type="line" smooth="yes"/>
      <point x="592" y="370" type="line" smooth="yes"/>
      <point x="592" y="410" type="line" smooth="yes"/>
      <point x="525" y="702" type="line" smooth="yes"/>
      <point x="324" y="791" type="line" smooth="yes"/>
      <point x="124" y="702" type="line" smooth="yes"/>
      <point x="57" y="410" type="line" smooth="yes"/>
      <point x="57" y="370" type="line" smooth="yes"/>
      <point x="124" y="78" type="line" smooth="yes"/>
    </contour>
  </outline>
</glyph>
<glyph name="Otilde" format="1">
  <advance width="649"/>
  <unicode hex="00D5"/>
  <outline>
    <contour>
      <point x="426" y="936" type="line" smooth="yes"/>
      <point x="415" y="902" type="line" smooth="yes"/>
      <point x="389" y="893" type="line" smooth="yes"/>
      <point x="329" y="920" type="line" smooth="yes"/>
      <point x="251" y="947" type="line" smooth="yes"/>
      <point x="194" y="925" type="line" smooth="yes"/>
      <point x="172" y="854" type="line" smooth="yes"/>
      <point x="222" y="854" type="line" smooth="yes"/>
      <point x="233" y="888" type="line" smooth="yes"/>
      <point x="259" y="897" type="line" smooth="yes"/>
      <point x="319" y="870" type="line" smooth="yes"/>
      <point x="397" y="843" type="line" smooth="yes"/>
      <point x="454" y="865" type="line" smooth="yes"/>
      <point x="476" y="936" type="line" smooth="yes"/>
    </contour>
    <contour>
      <point x="321" y="54" type="line" smooth="yes"/>
      <point x="177" y="129" type="line" smooth="yes"/>
      <point x="131" y="370" type="line" smooth="yes"/>
      <point x="131" y="410" type="line" smooth="yes"/>
      <point x="177" y="651" type="line" smooth="yes"/>
      <point x="321" y="726" type="line" smooth="yes"/>
      <point x="328" y="726" type="line" smooth="yes"/>
      <point x="472" y="651" type="line" smooth="yes"/>
      <point x="518" y="410" type="line" smooth="yes"/>
      <point x="518" y="370" type="line" smooth="yes"/>
      <point x="472" y="129" type="line" smooth="yes"/>
      <point x="328" y="54" type="line" smooth="yes"/>
    </contour>
    <contour>
      <point x="324" y="-11" type="line" smooth="yes"/>
      <point x="525" y="78" type="line" smooth="yes"/>
      <point x="592" y="370" type="line" smooth="yes"/>
      <point x="592" y="410" type="line" smooth="yes"/>
      <point x="525" y="702" type="line" smooth="yes"/>
      <point x="324" y="791" type="line" smooth="yes"/>
      <point x="124" y="702" type="line" smooth="yes"/>
      <point x="57" y="410" type="line" smooth="yes"/>
      <point x="57" y="370" type="line" smooth="yes"/>
      <point x="124" y="78" type="line" smooth="yes"/>
    </contour>
  </outline>
</glyph>
<glyph name="Odieresis" format="1">
  <advance width="649"/>
  <unicode hex="00D6"/>
  <outline>
    <contour>
      <point x="442" y="930" type="line" smooth="yes"/>
      <point x="363" y="930" type="line" smooth="yes"/>
      <point x="363" y="860" type="line" smooth="yes"/>
      <point x="442" y="860" type="line" smooth="yes"/>
    </contour>
    <contour>
      <point x="285" y="930" type="line" smooth="yes"/>
      <point x="206" y="930" type="line" smooth="yes"/>
      <point x="206" y="860" type="line" smooth="yes"/>
      <point x="285" y="860" type="line" smooth="yes"/>
    </contour>
    <contour>
      <point x="321" y="54" type="line" smooth="yes"/>
      <point x="177" y="129" type="line" smooth="yes"/>
      <point x="131" y="370" type="line" smooth="yes"/>
      <point x="131" y="410" type="line" smooth="yes"/>
      <point x="177" y="651" type="line" smooth="yes"/>
      <point x="321" y="726" type="line" smooth="yes"/>
      <point x="328" y="726" type="line" smooth="yes"/>
      <point x="472" y="651" type="line" smooth="yes"/>
      <point x="518" y="410" type="line" smooth="yes"/>
      <point x="518" y="370" type="line" smooth="yes"/>
      <point x="472" y="129" type="line" smooth="yes"/>
      <point x="328" y="54" type="line" smooth="yes"/>
    </contour>
    <contour>
      <point x="324" y="-11" type="line" smooth="yes"/>
      <point x="525" y="78" type="line" smooth="yes"/>
      <point x="592" y="370" type="line" smooth="yes"/>
      <point x="592" y="410" type="line" smooth="yes"/>
      <point x="525" y="702" type="line" smooth="yes"/>
      <point x="324" y="791" type="line" smooth="yes"/>
      <point x="124" y="702" type="line" smooth="yes"/>
      <point x="57" y="410" type="line" smooth="yes"/>
      <point x="57" y="370" type="line" smooth="yes"/>
      <point x="124" y="78" type="line" smooth="yes"/>
    </contour>
  </outline>
</glyph>
<glyph name="Oslash" format="1">
  <advance width="638"/>
  <unicode hex="00D8"/>
  <outline>
    <contour>
      <point x="131" y="370" type="line" smooth="yes"/>
      <point x="131" y="410" type="line" smooth="yes"/>
      <point x="177" y="651" type="line" smooth="yes"/>
      <point x="321" y="726" type="line" smooth="yes"/>
      <point x="328" y="726" type="line" smooth="yes"/>
      <point x="404" y="712" type="line" smooth="yes"/>
      <point x="460" y="668" type="line" smooth="yes"/>
      <point x="157" y="170" type="line" smooth="yes"/>
      <point x="137" y="257" type="line" smooth="yes"/>
    </contour>
    <contour>
      <point x="518" y="410" type="line" smooth="yes"/>
      <point x="518" y="370" type="line" smooth="yes"/>
      <point x="472" y="129" type="line" smooth="yes"/>
      <point x="328" y="54" type="line" smooth="yes"/>
      <point x="321" y="54" type="line" smooth="yes"/>
      <point x="241" y="70" type="line" smooth="yes"/>
      <point x="183" y="118" type="line" smooth="yes"/>
      <point x="488" y="619" type="line" smooth="yes"/>
      <point x="511" y="530" type="line" smooth="yes"/>
    </contour>
    <contour>
      <point x="57" y="410" type="line" smooth="yes"/>
      <point x="57" y="370" type="line" smooth="yes"/>
      <point x="71" y="210" type="line" smooth="yes"/>
      <point x="112" y="95" type="line" smooth="yes"/>
      <point x="54" y="0" type="line" smooth="yes"/>
      <point x="112" y="0" type="line" smooth="yes"/>
      <point x="144" y="54" type="line" smooth="yes"/>
      <point x="222" y="5" type="line" smooth="yes"/>
      <point x="324" y="-11" type="line" smooth="yes"/>
      <point x="525" y="78" type="line" smooth="yes"/>
      <point x="592" y="370" type="line" smooth="yes"/>
      <point x="592" y="410" type="line" smooth="yes"/>
      <point x="577" y="575" type="line" smooth="yes"/>
      <point x="532" y="691" type="line" smooth="yes"/>
      <point x="586" y="780" type="line" smooth="yes"/>
      <point x="528" y="780" type="line" smooth="yes"/>
      <point x="498" y="731" type="line" smooth="yes"/>
      <point x="422" y="776" type="line" smooth="yes"/>
      <point x="324" y="791" type="line" smooth="yes"/>
      <point x="124" y="702" type="line" smooth="yes"/>
    </contour>
  </outline>
</glyph>
<glyph name="germandbls" format="1">
  <advance width="571"/>
  <unicode hex="00DF"/>
  <outline>
    <contour>
      <point x="262" y="370" type="line" smooth="yes"/>
      <point x="339" y="319" type="line" smooth="yes"/>
      <point x="440" y="241" type="line" smooth="yes"/>
      <point x="473" y="161" type="line" smooth="yes"/>
      <point x="452" y="83" type="line" smooth="yes"/>
      <point x="366" y="48" type="line" smooth="yes"/>
      <point x="279" y="83" type="line" smooth="yes"/>
      <point x="258" y="162" type="line" smooth="yes"/>
      <point x="196" y="162" type="line" smooth="yes"/>
      <point x="196" y="157" type="line" smooth="yes"/>
      <point x="229" y="44" type="line" smooth="yes"/>
      <point x="369" y="-11" type="line" smooth="yes"/>
      <point x="509" y="44" type="line" smooth="yes"/>
      <point x="543" y="159" type="line" smooth="yes"/>
      <point x="543" y="164" type="line" smooth="yes"/>
      <point x="504" y="270" type="line" smooth="yes"/>
      <point x="392" y="364" type="line" smooth="yes"/>
      <point x="342" y="396" type="line" smooth="yes"/>
      <point x="443" y="489" type="line" smooth="yes"/>
      <point x="475" y="602" type="line" smooth="yes"/>
      <point x="475" y="609" type="line" smooth="yes"/>
      <point x="425" y="754" type="line" smooth="yes"/>
      <point x="270" y="811" type="line" smooth="yes"/>
      <point x="114" y="755" type="line" smooth="yes"/>
      <point x="65" y="609" type="line" smooth="yes"/>
      <point x="65" y="0" type="line" smooth="yes"/>
      <point x="135" y="0" type="line" smooth="yes"/>
      <point x="135" y="604" type="line" smooth="yes"/>
      <point x="167" y="706" type="line" smooth="yes"/>
      <point x="270" y="746" type="line" smooth="yes"/>
      <point x="373" y="706" type="line" smooth="yes"/>
      <point x="405" y="602" type="line" smooth="yes"/>
      <point x="371" y="499" type="line" smooth="yes"/>
      <point x="262" y="416" type="line" smooth="yes"/>
    </contour>
  </outline>
</glyph>
<glyph name="atilde" format="1">
  <advance width="512"/>
  <unicode hex="00E3"/>
  <outline>
    <contour>
      <point x="357" y="746" type="line" smooth="yes"/>
      <point x="347" y="712" type="line" smooth="yes"/>
      <point x="321" y="703" type="line" smooth="yes"/>
      <point x="259" y="730" type="line" smooth="yes"/>
      <point x="181" y="757" type="line" smooth="yes"/>
      <point x="123" y="732" type="line" smooth="yes"/>
      <point x="100" y="654" type="line" smooth="yes"/>
      <point x="155" y="654" type="line" smooth="yes"/>
      <point x="166" y="688" type="line" smooth="yes"/>
      <point x="191" y="697" type="line" smooth="yes"/>
      <point x="253" y="670" type="line" smooth="yes"/>
      <point x="331" y="643" type="line" smooth="yes"/>
      <point x="390" y="668" type="line" smooth="yes"/>
      <point x="412" y="746" type="line" smooth="yes"/>
    </contour>
    <contour>
      <point x="216" y="50" type="line" smooth="yes"/>
      <point x="139" y="77" type="line" smooth="yes"/>
      <point x="115" y="140" type="line" smooth="yes"/>
      <point x="115" y="149" type="line" smooth="yes"/>
      <point x="144" y="220" type="line" smooth="yes"/>
      <point x="224" y="254" type="line" smooth="yes"/>
      <point x="378" y="279" type="line" smooth="yes"/>
      <point x="378" y="134" type="line" smooth="yes"/>
      <point x="327" y="80" type="line" smooth="yes"/>
    </contour>
    <contour>
      <point x="396" y="0" type="line" smooth="yes"/>
      <point x="454" y="0" type="line" smooth="yes"/>
      <point x="448" y="150" type="line" smooth="yes"/>
      <point x="448" y="344" type="line" smooth="yes"/>
      <point x="407" y="486" type="line" smooth="yes"/>
      <point x="256" y="541" type="line" smooth="yes"/>
      <point x="102" y="483" type="line" smooth="yes"/>
      <point x="65" y="364" type="line" smooth="yes"/>
      <point x="65" y="355" type="line" smooth="yes"/>
      <point x="132" y="355" type="line" smooth="yes"/>
      <point x="156" y="444" type="line" smooth="yes"/>
      <point x="255" y="482" type="line" smooth="yes"/>
      <point x="352" y="447" type="line" smooth="yes"/>
      <point x="378" y="344" type="line" smooth="yes"/>
      <point x="378" y="330" type="line" smooth="yes"/>
      <point x="218" y="305" type="line" smooth="yes"/>
      <point x="99" y="263" type="line" smooth="yes"/>
      <point x="45" y="144" type="line" smooth="yes"/>
      <point x="45" y="134" type="line" smooth="yes"/>
      <point x="85" y="30" type="line" smooth="yes"/>
      <point x="198" y="-11" type="line" smooth="yes"/>
      <point x="313" y="14" type="line" smooth="yes"/>
      <point x="385" y="74" type="line" smooth="yes"/>
    </contour>
  </outline>
</glyph>
<glyph name="aring" format="1">
  <advance width="512"/>
  <unicode hex="00E5"/>
  <outline>
    <contour>
      <point x="200" y="697" type="line" smooth="yes"/>
      <point x="216" y="737" type="line" smooth="yes"/>
      <point x="256" y="753" type="line" smooth="yes"/>
      <point x="296" y="737" type="line" smooth="yes"/>
      <point x="312" y="697" type="line" smooth="yes"/>
      <point x="296" y="657" type="line" smooth="yes"/>
      <point x="256" y="641" type="line" smooth="yes"/>
      <point x="216" y="657" type="line" smooth="yes"/>
    </contour>
    <contour>
      <point x="162" y="697" type="line" smooth="yes"/>
      <point x="190" y="631" type="line" smooth="yes"/>
      <point x="256" y="603" type="line" smooth="yes"/>
      <point x="323" y="631" type="line" smooth="yes"/>
      <point x="350" y="697" type="line" smooth="yes"/>
      <point x="323" y="764" type="line" smooth="yes"/>
      <point x="256" y="791" type="line" smooth="yes"/>
      <point x="190" y="764" type="line" smooth="yes"/>
    </contour>
    <contour>
      <point x="216" y="50" type="line" smooth="yes"/>
      <point x="139" y="77" type="line" smooth="yes"/>
      <point x="115" y="140" type="line" smooth="yes"/>
      <point x="115" y="149" type="line" smooth="yes"/>
      <point x="144" y="220" type="line" smooth="yes"/>
      <point x="224" y="254" type="line" smooth="yes"/>
      <point x="378" y="279" type="line" smooth="yes"/>
      <point x="378" y="134" type="line" smooth="yes"/>
      <point x="327" y="80" type="line" smooth="yes"/>
    </contour>
    <contour>
      <point x="396" y="0" type="line" smooth="yes"/>
      <point x="454" y="0" type="line" smooth="yes"/>
      <point x="448" y="150" type="line" smooth="yes"/>
      <point x="448" y="344" type="line" smooth="yes"/>
      <point x="407" y="486" type="line" smooth="yes"/>
      <point x="256" y="541" type="line" smooth="yes"/>
      <point x="102" y="483" type="line" smooth="yes"/>
      <point x="65" y="364" type="line" smooth="yes"/>
      <point x="65" y="355" type="line" smooth="yes"/>
      <point x="132" y="355" type="line" smooth="yes"/>
      <point x="156" y="444" type="line" smooth="yes"/>
      <point x="255" y="482" type="line" smooth="yes"/>
      <point x="352" y="447" type="line" smooth="yes"/>
      <point x="378" y="344" type="line" smooth="yes"/>
      <point x="378" y="330" type="line" smooth="yes"/>
      <point x="218" y="305" type="line" smooth="yes"/>
      <point x="99" y="263" type="line" smooth="yes"/>
      <point x="45" y="144" type="line" smooth="yes"/>
      <point x="45" y="134" type="line" smooth="yes"/>
      <point x="85" y="30" type="line" smooth="yes"/>
      <point x="198" y="-11" type="line" smooth="yes"/>
      <point x="313" y="14" type="line" smooth="yes"/>
      <point x="385" y="74" type="line" smooth="yes"/>
    </contour>
  </outline>
</glyph>
<glyph name="ae" format="1">
  <advance width="871"/>
  <unicode hex="00E6"/>
  <outline>
    <contour>
      <point x="601" y="482" type="line" smooth="yes"/>
      <point x="713" y="431" type="line" smooth="yes"/>
      <point x="753" y="294" type="line" smooth="yes"/>
      <point x="449" y="294" type="line" smooth="yes"/>
      <point x="489" y="431" type="line" smooth="yes"/>
    </contour>
    <contour>
      <point x="381" y="138" type="line" smooth="yes"/>
      <point x="331" y="83" type="line" smooth="yes"/>
      <point x="216" y="49" type="line" smooth="yes"/>
      <point x="139" y="76" type="line" smooth="yes"/>
      <point x="115" y="139" type="line" smooth="yes"/>
      <point x="115" y="148" type="line" smooth="yes"/>
      <point x="144" y="219" type="line" smooth="yes"/>
      <point x="225" y="253" type="line" smooth="yes"/>
      <point x="378" y="278" type="line" smooth="yes"/>
      <point x="378" y="254" type="line" smooth="yes"/>
      <point x="381" y="201" type="line" smooth="yes"/>
      <point x="391" y="152" type="line" smooth="yes"/>
    </contour>
    <contour>
      <point x="825" y="236" type="line" smooth="yes"/>
      <point x="825" y="276" type="line" smooth="yes"/>
      <point x="772" y="464" type="line" smooth="yes"/>
      <point x="602" y="541" type="line" smooth="yes"/>
      <point x="492" y="514" type="line" smooth="yes"/>
      <point x="424" y="442" type="line" smooth="yes"/>
      <point x="369" y="514" type="line" smooth="yes"/>
      <point x="256" y="541" type="line" smooth="yes"/>
      <point x="102" y="483" type="line" smooth="yes"/>
      <point x="65" y="364" type="line" smooth="yes"/>
      <point x="65" y="355" type="line" smooth="yes"/>
      <point x="132" y="355" type="line" smooth="yes"/>
      <point x="156" y="444" type="line" smooth="yes"/>
      <point x="255" y="482" type="line" smooth="yes"/>
      <point x="352" y="447" type="line" smooth="yes"/>
      <point x="378" y="344" type="line" smooth="yes"/>
      <point x="378" y="330" type="line" smooth="yes"/>
      <point x="219" y="305" type="line" smooth="yes"/>
      <point x="100" y="263" type="line" smooth="yes"/>
      <point x="45" y="144" type="line" smooth="yes"/>
      <point x="45" y="134" type="line" smooth="yes"/>
      <point x="86" y="30" type="line" smooth="yes"/>
      <point x="201" y="-11" type="line" smooth="yes"/>
      <point x="333" y="21" type="line" smooth="yes"/>
      <point x="415" y="92" type="line" smooth="yes"/>
      <point x="489" y="17" type="line" smooth="yes"/>
      <point x="607" y="-11" type="line" smooth="yes"/>
      <point x="772" y="47" type="line" smooth="yes"/>
      <point x="825" y="166" type="line" smooth="yes"/>
      <point x="825" y="170" type="line" smooth="yes"/>
      <point x="757" y="170" type="line" smooth="yes"/>
      <point x="722" y="88" type="line" smooth="yes"/>
      <point x="608" y="48" type="line" smooth="yes"/>
      <point x="490" y="99" type="line" smooth="yes"/>
      <point x="449" y="236" type="line" smooth="yes"/>
    </contour>
  </outline>
</glyph>
<glyph name="ccedilla" format="1">
  <advance width="522"/>
  <unicode hex="00E7"/>
  <outline>
    <contour>
      <point x="188" y="-191" type="line" smooth="yes"/>
      <point x="228" y="-206" type="line" smooth="yes"/>
      <point x="280" y="-211" type="line" smooth="yes"/>
      <point x="354" y="-193" type="line" smooth="yes"/>
      <point x="383" y="-133" type="line" smooth="yes"/>
      <point x="351" y="-74" type="line" smooth="yes"/>
      <point x="283" y="-56" type="line" smooth="yes"/>
      <point x="279" y="-56" type="line" smooth="yes"/>
      <point x="296" y="-10" type="line" smooth="yes"/>
      <point x="432" y="54" type="line" smooth="yes"/>
      <point x="473" y="168" type="line" smooth="yes"/>
      <point x="473" y="184" type="line" smooth="yes"/>
      <point x="406" y="184" type="line" smooth="yes"/>
      <point x="376" y="92" type="line" smooth="yes"/>
      <point x="271" y="52" type="line" smooth="yes"/>
      <point x="156" y="107" type="line" smooth="yes"/>
      <point x="120" y="253" type="line" smooth="yes"/>
      <point x="120" y="277" type="line" smooth="yes"/>
      <point x="156" y="423" type="line" smooth="yes"/>
      <point x="271" y="478" type="line" smooth="yes"/>
      <point x="375" y="437" type="line" smooth="yes"/>
      <point x="406" y="336" type="line" smooth="yes"/>
      <point x="473" y="336" type="line" smooth="yes"/>
      <point x="473" y="356" type="line" smooth="yes"/>
      <point x="426" y="481" type="line" smooth="yes"/>
      <point x="270" y="541" type="line" smooth="yes"/>
      <point x="101" y="464" type="line" smooth="yes"/>
      <point x="49" y="277" type="line" smooth="yes"/>
      <point x="49" y="253" type="line" smooth="yes"/>
      <point x="96" y="73" type="line" smooth="yes"/>
      <point x="248" y="-10" type="line" smooth="yes"/>
      <point x="221" y="-80" type="line" smooth="yes"/>
      <point x="240" y="-103" type="line" smooth="yes"/>
      <point x="249" y="-102" type="line" smooth="yes"/>
      <point x="269" y="-100" type="line" smooth="yes"/>
      <point x="314" y="-107" type="line" smooth="yes"/>
      <point x="331" y="-131" type="line" smooth="yes"/>
      <point x="317" y="-156" type="line" smooth="yes"/>
      <point x="273" y="-162" type="line" smooth="yes"/>
      <point x="235" y="-158" type="line" smooth="yes"/>
      <point x="203" y="-147" type="line" smooth="yes"/>
    </contour>
  </outline>
</glyph>
<glyph name="icircumflex" format="1">
  <advance width="217"/>
  <unicode hex="00EE"/>
  <outline>
    <contour>
      <point x="15" y="614" type="line" smooth="yes"/>
      <point x="108" y="727" type="line" smooth="yes"/>
      <point x="201" y="614" type="line" smooth="yes"/>
      <point x="270" y="614" type="line" smooth="yes"/>
      <point x="139" y="780" type="line" smooth="yes"/>
      <point x="77" y="780" type="line" smooth="yes"/>
      <point x="-54" y="614" type="line" smooth="yes"/>
    </contour>
    <contour>
      <point x="73" y="0" type="line" smooth="yes"/>
      <point x="143" y="0" type="line" smooth="yes"/>
      <point x="143" y="530" type="line" smooth="yes"/>
      <point x="73" y="530" type="line" smooth="yes"/>
    </contour>
  </outline>
</glyph>
<glyph name="idieresis" format="1">
  <advance width="217"/>
  <unicode hex="00EF"/>
  <outline>
    <contour>
      <point x="235" y="745" type="line" smooth="yes"/>
      <point x="148" y="745" type="line" smooth="yes"/>
      <point x="148" y="657" type="line" smooth="yes"/>
      <point x="235" y="657" type="line" smooth="yes"/>
    </contour>
    <contour>
      <point x="68" y="745" type="line" smooth="yes"/>
      <point x="-19" y="745" type="line" smooth="yes"/>
      <point x="-19" y="657" type="line" smooth="yes"/>
      <point x="68" y="657" type="line" smooth="yes"/>
    </contour>
    <contour>
      <point x="73" y="0" type="line" smooth="yes"/>
      <point x="143" y="0" type="line" smooth="yes"/>
      <point x="143" y="530" type="line" smooth="yes"/>
      <point x="73" y="530" type="line" smooth="yes"/>
    </contour>
  </outline>
</glyph>
<glyph name="eth" format="1">
  <advance width="544"/>
  <unicode hex="00F0"/>
  <outline>
    <contour>
      <point x="272" y="52" type="line" smooth="yes"/>
      <point x="157" y="107" type="line" smooth="yes"/>
      <point x="120" y="253" type="line" smooth="yes"/>
      <point x="120" y="277" type="line" smooth="yes"/>
      <point x="157" y="423" type="line" smooth="yes"/>
      <point x="272" y="478" type="line" smooth="yes"/>
      <point x="387" y="423" type="line" smooth="yes"/>
      <point x="424" y="277" type="line" smooth="yes"/>
      <point x="424" y="253" type="line" smooth="yes"/>
      <point x="387" y="107" type="line" smooth="yes"/>
    </contour>
    <contour>
      <point x="49" y="747" type="line" smooth="yes"/>
      <point x="132" y="731" type="line" smooth="yes"/>
      <point x="210" y="703" type="line" smooth="yes"/>
      <point x="87" y="632" type="line" smooth="yes"/>
      <point x="87" y="577" type="line" smooth="yes"/>
      <point x="258" y="676" type="line" smooth="yes"/>
      <point x="292" y="650" type="line" smooth="yes"/>
      <point x="325" y="620" type="line" smooth="yes"/>
      <point x="367" y="562" type="line" smooth="yes"/>
      <point x="398" y="494" type="line" smooth="yes"/>
      <point x="341" y="528" type="line" smooth="yes"/>
      <point x="266" y="541" type="line" smooth="yes"/>
      <point x="101" y="464" type="line" smooth="yes"/>
      <point x="49" y="277" type="line" smooth="yes"/>
      <point x="49" y="253" type="line" smooth="yes"/>
      <point x="102" y="66" type="line" smooth="yes"/>
      <point x="272" y="-11" type="line" smooth="yes"/>
      <point x="442" y="66" type="line" smooth="yes"/>
      <point x="495" y="253" type="line" smooth="yes"/>
      <point x="495" y="277" type="line" smooth="yes"/>
      <point x="472" y="474" type="line" smooth="yes"/>
      <point x="380" y="662" type="line" smooth="yes"/>
      <point x="352" y="690" type="line" smooth="yes"/>
      <point x="324" y="714" type="line" smooth="yes"/>
      <point x="398" y="756" type="line" smooth="yes"/>
      <point x="398" y="811" type="line" smooth="yes"/>
      <point x="281" y="743" type="line" smooth="yes"/>
      <point x="170" y="790" type="line" smooth="yes"/>
      <point x="49" y="811" type="line" smooth="yes"/>
    </contour>
  </outline>
</glyph>
<glyph name="ntilde" format="1">
  <advance width="528"/>
  <unicode hex="00F1"/>
  <outline>
    <contour>
      <point x="368" y="746" type="line" smooth="yes"/>
      <point x="358" y="712" type="line" smooth="yes"/>
      <point x="332" y="703" type="line" smooth="yes"/>
      <point x="270" y="730" type="line" smooth="yes"/>
      <point x="192" y="757" type="line" smooth="yes"/>
      <point x="134" y="732" type="line" smooth="yes"/>
      <point x="111" y="654" type="line" smooth="yes"/>
      <point x="166" y="654" type="line" smooth="yes"/>
      <point x="177" y="688" type="line" smooth="yes"/>
      <point x="202" y="697" type="line" smooth="yes"/>
      <point x="264" y="670" type="line" smooth="yes"/>
      <point x="342" y="643" type="line" smooth="yes"/>
      <point x="401" y="668" type="line" smooth="yes"/>
      <point x="423" y="746" type="line" smooth="yes"/>
    </contour>
    <contour>
      <point x="467" y="0" type="line" smooth="yes"/>
      <point x="467" y="371" type="line" smooth="yes"/>
      <point x="426" y="493" type="line" smooth="yes"/>
      <point x="306" y="541" type="line" smooth="yes"/>
      <point x="195" y="516" type="line" smooth="yes"/>
      <point x="128" y="455" type="line" smooth="yes"/>
      <point x="118" y="530" type="line" smooth="yes"/>
      <point x="60" y="530" type="line" smooth="yes"/>
      <point x="66" y="380" type="line" smooth="yes"/>
      <point x="66" y="0" type="line" smooth="yes"/>
      <point x="136" y="0" type="line" smooth="yes"/>
      <point x="136" y="396" type="line" smooth="yes"/>
      <point x="186" y="450" type="line" smooth="yes"/>
      <point x="282" y="478" type="line" smooth="yes"/>
      <point x="366" y="450" type="line" smooth="yes"/>
      <point x="397" y="361" type="line" smooth="yes"/>
      <point x="397" y="0" type="line" smooth="yes"/>
    </contour>
  </outline>
</glyph>
<glyph name="ograve" format="1">
  <advance width="544"/>
  <unicode hex="00F2"/>
  <outline>
    <contour>
      <point x="142" y="780" type="line" smooth="yes"/>
      <point x="236" y="614" type="line" smooth="yes"/>
      <point x="308" y="614" type="line" smooth="yes"/>
      <point x="218" y="780" type="line" smooth="yes"/>
    </contour>
    <contour>
      <point x="272" y="52" type="line" smooth="yes"/>
      <point x="157" y="107" type="line" smooth="yes"/>
      <point x="120" y="253" type="line" smooth="yes"/>
      <point x="120" y="277" type="line" smooth="yes"/>
      <point x="157" y="423" type="line" smooth="yes"/>
      <point x="272" y="478" type="line" smooth="yes"/>
      <point x="387" y="423" type="line" smooth="yes"/>
      <point x="424" y="277" type="line" smooth="yes"/>
      <point x="424" y="253" type="line" smooth="yes"/>
      <point x="387" y="107" type="line" smooth="yes"/>
    </contour>
    <contour>
      <point x="272" y="-11" type="line" smooth="yes"/>
      <point x="442" y="66" type="line" smooth="yes"/>
      <point x="495" y="253" type="line" smooth="yes"/>
      <point x="495" y="277" type="line" smooth="yes"/>
      <point x="442" y="464" type="line" smooth="yes"/>
      <point x="272" y="541" type="line" smooth="yes"/>
      <point x="102" y="464" type="line" smooth="yes"/>
      <point x="49" y="277" type="line" smooth="yes"/>
      <point x="49" y="253" type="line" smooth="yes"/>
      <point x="102" y="66" type="line" smooth="yes"/>
    </contour>
  </outline>
</glyph>
<glyph name="otilde" format="1">
  <advance width="544"/>
  <unicode hex="00F5"/>
  <outline>
    <contour>
      <point x="373" y="746" type="line" smooth="yes"/>
      <point x="363" y="712" type="line" smooth="yes"/>
      <point x="337" y="703" type="line" smooth="yes"/>
      <point x="275" y="730" type="line" smooth="yes"/>
      <point x="197" y="757" type="line" smooth="yes"/>
      <point x="139" y="732" type="line" smooth="yes"/>
      <point x="116" y="654" type="line" smooth="yes"/>
      <point x="171" y="654" type="line" smooth="yes"/>
      <point x="182" y="688" type="line" smooth="yes"/>
      <point x="207" y="697" type="line" smooth="yes"/>
      <point x="269" y="670" type="line" smooth="yes"/>
      <point x="347" y="643" type="line" smooth="yes"/>
      <point x="406" y="668" type="line" smooth="yes"/>
      <point x="428" y="746" type="line" smooth="yes"/>
    </contour>
    <contour>
      <point x="272" y="52" type="line" smooth="yes"/>
      <point x="157" y="107" type="line" smooth="yes"/>
      <point x="120" y="253" type="line" smooth="yes"/>
      <point x="120" y="277" type="line" smooth="yes"/>
      <point x="157" y="423" type="line" smooth="yes"/>
      <point x="272" y="478" type="line" smooth="yes"/>
      <point x="387" y="423" type="line" smooth="yes"/>
      <point x="424" y="277" type="line" smooth="yes"/>
      <point x="424" y="253" type="line" smooth="yes"/>
      <point x="387" y="107" type="line" smooth="yes"/>
    </contour>
    <contour>
      <point x="272" y="-11" type="line" smooth="yes"/>
      <point x="442" y="66" type="line" smooth="yes"/>
      <point x="495" y="253" type="line" smooth="yes"/>
      <point x="495" y="277" type="line" smooth="yes"/>
      <point x="442" y="464" type="line" smooth="yes"/>
      <point x="272" y="541" type="line" smooth="yes"/>
      <point x="102" y="464" type="line" smooth="yes"/>
      <point x="49" y="277" type="line" smooth="yes"/>
      <point x="49" y="253" type="line" smooth="yes"/>
      <point x="102" y="66" type="line" smooth="yes"/>
    </contour>
  </outline>
</glyph>
<glyph name="divide" format="1">
  <advance width="600"/>
  <unicode hex="00F7"/>
  <outline>
    <contour>
      <point x="344" y="651" type="line" smooth="yes"/>
      <point x="256" y="651" type="line" smooth="yes"/>
      <point x="256" y="563" type="line" smooth="yes"/>
      <point x="344" y="563" type="line" smooth="yes"/>
    </contour>
    <contour>
      <point x="344" y="217" type="line" smooth="yes"/>
      <point x="256" y="217" type="line" smooth="yes"/>
      <point x="256" y="129" type="line" smooth="yes"/>
      <point x="344" y="129" type="line" smooth="yes"/>
    </contour>
    <contour>
      <point x="48" y="357" type="line" smooth="yes"/>
      <point x="552" y="357" type="line" smooth="yes"/>
      <point x="552" y="423" type="line" smooth="yes"/>
      <point x="48" y="423" type="line" smooth="yes"/>
    </contour>
  </outline>
</glyph>
<glyph name="oslash" format="1">
  <advance width="544"/>
  <unicode hex="00F8"/>
  <outline>
    <contour>
      <point x="424" y="277" type="line" smooth="yes"/>
      <point x="424" y="253" type="line" smooth="yes"/>
      <point x="387" y="107" type="line" smooth="yes"/>
      <point x="272" y="52" type="line" smooth="yes"/>
      <point x="213" y="62" type="line" smooth="yes"/>
      <point x="169" y="91" type="line" smooth="yes"/>
      <point x="399" y="401" type="line" smooth="yes"/>
      <point x="418" y="345" type="line" smooth="yes"/>
    </contour>
    <contour>
      <point x="120" y="253" type="line" smooth="yes"/>
      <point x="120" y="277" type="line" smooth="yes"/>
      <point x="157" y="423" type="line" smooth="yes"/>
      <point x="272" y="478" type="line" smooth="yes"/>
      <point x="331" y="468" type="line" smooth="yes"/>
      <point x="374" y="438" type="line" smooth="yes"/>
      <point x="144" y="128" type="line" smooth="yes"/>
      <point x="126" y="185" type="line" smooth="yes"/>
    </contour>
    <contour>
      <point x="495" y="530" type="line" smooth="yes"/>
      <point x="442" y="530" type="line" smooth="yes"/>
      <point x="414" y="493" type="line" smooth="yes"/>
      <point x="352" y="528" type="line" smooth="yes"/>
      <point x="272" y="541" type="line" smooth="yes"/>
      <point x="102" y="464" type="line" smooth="yes"/>
      <point x="49" y="277" type="line" smooth="yes"/>
      <point x="49" y="253" type="line" smooth="yes"/>
      <point x="61" y="152" type="line" smooth="yes"/>
      <point x="100" y="68" type="line" smooth="yes"/>
      <point x="49" y="0" type="line" smooth="yes"/>
      <point x="102" y="0" type="line" smooth="yes"/>
      <point x="129" y="37" type="line" smooth="yes"/>
      <point x="191" y="2" type="line" smooth="yes"/>
      <point x="272" y="-11" type="line" smooth="yes"/>
      <point x="442" y="66" type="line" smooth="yes"/>
      <point x="495" y="253" type="line" smooth="yes"/>
      <point x="495" y="277" type="line" smooth="yes"/>
      <point x="483" y="378" type="line" smooth="yes"/>
      <point x="444" y="461" type="line" smooth="yes"/>
    </contour>
  </outline>
</glyph>
<glyph name="yacute" format="1">
  <advance width="484"/>
  <unicode hex="00FD"/>
  <outline>
    <contour>
      <point x="303" y="780" type="line" smooth="yes"/>
      <point x="213" y="614" type="line" smooth="yes"/>
      <point x="285" y="614" type="line" smooth="yes"/>
      <point x="379" y="780" type="line" smooth="yes"/>
    </contour>
    <contour>
      <point x="249" y="97" type="line" smooth="yes"/>
      <point x="98" y="530" type="line" smooth="yes"/>
      <point x="23" y="530" type="line" smooth="yes"/>
      <point x="213" y="20" type="line" smooth="yes"/>
      <point x="130" y="-200" type="line" smooth="yes"/>
      <point x="211" y="-200" type="line" smooth="yes"/>
      <point x="286" y="20" type="line" smooth="yes"/>
      <point x="476" y="530" type="line" smooth="yes"/>
      <point x="401" y="530" type="line" smooth="yes"/>
    </contour>
  </outline>
</glyph>
<glyph name="thorn" format="1">
  <advance width="537"/>
  <unicode hex="00FE"/>
  <outline>
    <contour>
      <point x="136" y="134" type="line" smooth="yes"/>
      <point x="136" y="396" type="line" smooth="yes"/>
      <point x="184" y="450" type="line" smooth="yes"/>
      <point x="270" y="478" type="line" smooth="yes"/>
      <point x="381" y="424" type="line" smooth="yes"/>
      <point x="417" y="277" type="line" smooth="yes"/>
      <point x="417" y="253" type="line" smooth="yes"/>
      <point x="381" y="106" type="line" smooth="yes"/>
      <point x="270" y="52" type="line" smooth="yes"/>
      <point x="184" y="80" type="line" smooth="yes"/>
    </contour>
    <contour>
      <point x="65" y="800" type="line" smooth="yes"/>
      <point x="65" y="-200" type="line" smooth="yes"/>
      <point x="135" y="-200" type="line" smooth="yes"/>
      <point x="135" y="62" type="line" smooth="yes"/>
      <point x="193" y="10" type="line" smooth="yes"/>
      <point x="286" y="-11" type="line" smooth="yes"/>
      <point x="442" y="66" type="line" smooth="yes"/>
      <point x="489" y="253" type="line" smooth="yes"/>
      <point x="489" y="277" type="line" smooth="yes"/>
      <point x="442" y="464" type="line" smooth="yes"/>
      <point x="286" y="541" type="line" smooth="yes"/>
      <point x="193" y="520" type="line" smooth="yes"/>
      <point x="135" y="468" type="line" smooth="yes"/>
      <point x="135" y="800" type="line" smooth="yes"/>
    </contour>
  </outline>
</glyph>
<glyph name="Abreve" format="1">
  <advance width="611"/>
  <unicode hex="0102"/>
  <outline>
    <contour>
      <point x="305" y="829" type="line" smooth="yes"/>
      <point x="417" y="864" type="line" smooth="yes"/>
      <point x="450" y="950" type="line" smooth="yes"/>
      <point x="394" y="950" type="line" smooth="yes"/>
      <point x="373" y="898" type="line" smooth="yes"/>
      <point x="305" y="879" type="line" smooth="yes"/>
      <point x="237" y="898" type="line" smooth="yes"/>
      <point x="216" y="950" type="line" smooth="yes"/>
      <point x="160" y="950" type="line" smooth="yes"/>
      <point x="193" y="864" type="line" smooth="yes"/>
    </contour>
    <contour>
      <point x="305" y="709" type="line" smooth="yes"/>
      <point x="429" y="265" type="line" smooth="yes"/>
      <point x="181" y="265" type="line" smooth="yes"/>
    </contour>
    <contour>
      <point x="254" y="788" type="line" smooth="yes"/>
      <point x="29" y="0" type="line" smooth="yes"/>
      <point x="107" y="0" type="line" smooth="yes"/>
      <point x="163" y="200" type="line" smooth="yes"/>
      <point x="448" y="200" type="line" smooth="yes"/>
      <point x="504" y="0" type="line" smooth="yes"/>
      <point x="582" y="0" type="line" smooth="yes"/>
      <point x="357" y="788" type="line" smooth="yes"/>
    </contour>
  </outline>
</glyph>
<glyph name="aogonek" format="1">
  <advance width="512"/>
  <unicode hex="0105"/>
  <outline>
    <contour>
      <point x="216" y="50" type="line" smooth="yes"/>
      <point x="139" y="77" type="line" smooth="yes"/>
      <point x="115" y="140" type="line" smooth="yes"/>
      <point x="115" y="149" type="line" smooth="yes"/>
      <point x="144" y="220" type="line" smooth="yes"/>
      <point x="224" y="254" type="line" smooth="yes"/>
      <point x="378" y="279" type="line" smooth="yes"/>
      <point x="378" y="134" type="line" smooth="yes"/>
      <point x="327" y="80" type="line" smooth="yes"/>
    </contour>
    <contour>
      <point x="371" y="-103" type="line" smooth="yes"/>
      <point x="396" y="-40" type="line" smooth="yes"/>
      <point x="454" y="0" type="line" smooth="yes"/>
      <point x="448" y="150" type="line" smooth="yes"/>
      <point x="448" y="344" type="line" smooth="yes"/>
      <point x="407" y="486" type="line" smooth="yes"/>
      <point x="256" y="541" type="line" smooth="yes"/>
      <point x="102" y="483" type="line" smooth="yes"/>
      <point x="65" y="364" type="line" smooth="yes"/>
      <point x="65" y="355" type="line" smooth="yes"/>
      <point x="132" y="355" type="line" smooth="yes"/>
      <point x="156" y="444" type="line" smooth="yes"/>
      <point x="255" y="482" type="line" smooth="yes"/>
      <point x="352" y="447" type="line" smooth="yes"/>
      <point x="378" y="344" type="line" smooth="yes"/>
      <point x="378" y="330" type="line" smooth="yes"/>
      <point x="218" y="305" type="line" smooth="yes"/>
      <point x="99" y="263" type="line" smooth="yes"/>
      <point x="45" y="144" type="line" smooth="yes"/>
      <point x="45" y="134" type="line" smooth="yes"/>
      <point x="85" y="30" type="line" smooth="yes"/>
      <point x="198" y="-11" type="line" smooth="yes"/>
      <point x="313" y="14" type="line" smooth="yes"/>
      <point x="385" y="74" type="line" smooth="yes"/>
      <point x="393" y="21" type="line" smooth="yes"/>
      <point x="335" y="-34" type="line" smooth="yes"/>
      <point x="311" y="-113" type="line" smooth="yes"/>
      <point x="341" y="-188" type="line" smooth="yes"/>
      <point x="420" y="-211" type="line" smooth="yes"/>
      <point x="469" y="-206" type="line" smooth="yes"/>
      <point x="509" y="-191" type="line" smooth="yes"/>
      <point x="490" y="-139" type="line" smooth="yes"/>
      <point x="462" y="-149" type="line" smooth="yes"/>
      <point x="427" y="-153" type="line" smooth="yes"/>
      <point x="386" y="-139" type="line" smooth="yes"/>
    </contour>
  </outline>
</glyph>
<glyph name="Cacute" format="1">
  <advance width="618"/>
  <unicode hex="0106"/>
  <outline>
    <contour>
      <point x="346" y="950" type="line" smooth="yes"/>
      <point x="286" y="840" type="line" smooth="yes"/>
      <point x="358" y="840" type="line" smooth="yes"/>
      <point x="420" y="950" type="line" smooth="yes"/>
    </contour>
    <contour>
      <point x="131" y="370" type="line" smooth="yes"/>
      <point x="131" y="410" type="line" smooth="yes"/>
      <point x="177" y="651" type="line" smooth="yes"/>
      <point x="321" y="726" type="line" smooth="yes"/>
      <point x="328" y="726" type="line" smooth="yes"/>
      <point x="455" y="671" type="line" smooth="yes"/>
      <point x="494" y="496" type="line" smooth="yes"/>
      <point x="568" y="496" type="line" smooth="yes"/>
      <point x="568" y="524" type="line" smooth="yes"/>
      <point x="507" y="724" type="line" smooth="yes"/>
      <point x="322" y="791" type="line" smooth="yes"/>
      <point x="122" y="702" type="line" smooth="yes"/>
      <point x="57" y="410" type="line" smooth="yes"/>
      <point x="57" y="370" type="line" smooth="yes"/>
      <point x="122" y="78" type="line" smooth="yes"/>
      <point x="322" y="-11" type="line" smooth="yes"/>
      <point x="507" y="55" type="line" smooth="yes"/>
      <point x="568" y="244" type="line" smooth="yes"/>
      <point x="568" y="254" type="line" smooth="yes"/>
      <point x="494" y="254" type="line" smooth="yes"/>
      <point x="455" y="106" type="line" smooth="yes"/>
      <point x="328" y="54" type="line" smooth="yes"/>
      <point x="321" y="54" type="line" smooth="yes"/>
      <point x="177" y="129" type="line" smooth="yes"/>
    </contour>
  </outline>
</glyph>
<glyph name="ccircumflex" format="1">
  <advance width="522"/>
  <unicode hex="0109"/>
  <outline>
    <contour>
      <point x="177" y="614" type="line" smooth="yes"/>
      <point x="270" y="727" type="line" smooth="yes"/>
      <point x="363" y="614" type="line" smooth="yes"/>
      <point x="432" y="614" type="line" smooth="yes"/>
      <point x="301" y="780" type="line" smooth="yes"/>
      <point x="239" y="780" type="line" smooth="yes"/>
      <point x="108" y="614" type="line" smooth="yes"/>
    </contour>
    <contour>
      <point x="120" y="253" type="line" smooth="yes"/>
      <point x="120" y="277" type="line" smooth="yes"/>
      <point x="156" y="423" type="line" smooth="yes"/>
      <point x="271" y="478" type="line" smooth="yes"/>
      <point x="375" y="437" type="line" smooth="yes"/>
      <point x="406" y="336" type="line" smooth="yes"/>
      <point x="473" y="336" type="line" smooth="yes"/>
      <point x="473" y="356" type="line" smooth="yes"/>
      <point x="426" y="481" type="line" smooth="yes"/>
      <point x="270" y="541" type="line" smooth="yes"/>
      <point x="101" y="464" type="line" smooth="yes"/>
      <point x="49" y="277" type="line" smooth="yes"/>
      <point x="49" y="253" type="line" smooth="yes"/>
      <point x="101" y="66" type="line" smooth="yes"/>
      <point x="270" y="-11" type="line" smooth="yes"/>
      <point x="426" y="47" type="line" smooth="yes"/>
      <point x="473" y="168" type="line" smooth="yes"/>
      <point x="473" y="184" type="line" smooth="yes"/>
      <point x="406" y="184" type="line" smooth="yes"/>
      <point x="376" y="92" type="line" smooth="yes"/>
      <point x="271" y="52" type="line" smooth="yes"/>
      <point x="156" y="107" type="line" smooth="yes"/>
    </contour>
  </outline>
</glyph>
<glyph name="Ccaron" format="1">
  <advance width="618"/>
  <unicode hex="010C"/>
  <outline>
    <contour>
      <point x="184" y="950" type="line" smooth="yes"/>
      <point x="290" y="840" type="line" smooth="yes"/>
      <point x="354" y="840" type="line" smooth="yes"/>
      <point x="460" y="950" type="line" smooth="yes"/>
      <point x="390" y="950" type="line" smooth="yes"/>
      <point x="322" y="883" type="line" smooth="yes"/>
      <point x="254" y="950" type="line" smooth="yes"/>
    </contour>
    <contour>
      <point x="131" y="370" type="line" smooth="yes"/>
      <point x="131" y="410" type="line" smooth="yes"/>
      <point x="177" y="651" type="line" smooth="yes"/>
      <point x="321" y="726" type="line" smooth="yes"/>
      <point x="328" y="726" type="line" smooth="yes"/>
      <point x="455" y="671" type="line" smooth="yes"/>
      <point x="494" y="496" type="line" smooth="yes"/>
      <point x="568" y="496" type="line" smooth="yes"/>
      <point x="568" y="524" type="line" smooth="yes"/>
      <point x="507" y="724" type="line" smooth="yes"/>
      <point x="322" y="791" type="line" smooth="yes"/>
      <point x="122" y="702" type="line" smooth="yes"/>
      <point x="57" y="410" type="line" smooth="yes"/>
      <point x="57" y="370" type="line" smooth="yes"/>
      <point x="122" y="78" type="line" smooth="yes"/>
      <point x="322" y="-11" type="line" smooth="yes"/>
      <point x="507" y="55" type="line" smooth="yes"/>
      <point x="568" y="244" type="line" smooth="yes"/>
      <point x="568" y="254" type="line" smooth="yes"/>
      <point x="494" y="254" type="line" smooth="yes"/>
      <point x="455" y="106" type="line" smooth="yes"/>
      <point x="328" y="54" type="line" smooth="yes"/>
      <point x="321" y="54" type="line" smooth="yes"/>
      <point x="177" y="129" type="line" smooth="yes"/>
    </contour>
  </outline>
</glyph>
<glyph name="Dcaron" format="1">
  <advance width="639"/>
  <unicode hex="010E"/>
  <outline>
    <contour>
      <point x="154" y="950" type="line" smooth="yes"/>
      <point x="260" y="840" type="line" smooth="yes"/>
      <point x="324" y="840" type="line" smooth="yes"/>
      <point x="430" y="950" type="line" smooth="yes"/>
      <point x="360" y="950" type="line" smooth="yes"/>
      <point x="292" y="883" type="line" smooth="yes"/>
      <point x="224" y="950" type="line" smooth="yes"/>
    </contour>
    <contour>
      <point x="146" y="65" type="line" smooth="yes"/>
      <point x="146" y="715" type="line" smooth="yes"/>
      <point x="274" y="715" type="line" smooth="yes"/>
      <point x="447" y="646" type="line" smooth="yes"/>
      <point x="508" y="410" type="line" smooth="yes"/>
      <point x="508" y="370" type="line" smooth="yes"/>
      <point x="447" y="134" type="line" smooth="yes"/>
      <point x="274" y="65" type="line" smooth="yes"/>
    </contour>
    <contour>
      <point x="582" y="370" type="line" smooth="yes"/>
      <point x="582" y="410" type="line" smooth="yes"/>
      <point x="502" y="696" type="line" smooth="yes"/>
      <point x="280" y="780" type="line" smooth="yes"/>
      <point x="74" y="780" type="line" smooth="yes"/>
      <point x="74" y="0" type="line" smooth="yes"/>
      <point x="280" y="0" type="line" smooth="yes"/>
      <point x="502" y="84" type="line" smooth="yes"/>
    </contour>
  </outline>
</glyph>
<glyph name="dcaron" format="1">
  <advance width="540"/>
  <unicode hex="010F"/>
  <outline>
    <contour>
      <point x="548" y="800" type="line" smooth="yes"/>
      <point x="548" y="614" type="line" smooth="yes"/>
      <point x="588" y="614" type="line" smooth="yes"/>
      <point x="607" y="800" type="line" smooth="yes"/>
    </contour>
    <contour>
      <point x="269" y="52" type="line" smooth="yes"/>
      <point x="158" y="106" type="line" smooth="yes"/>
      <point x="122" y="253" type="line" smooth="yes"/>
      <point x="122" y="277" type="line" smooth="yes"/>
      <point x="158" y="424" type="line" smooth="yes"/>
      <point x="269" y="478" type="line" smooth="yes"/>
      <point x="355" y="450" type="line" smooth="yes"/>
      <point x="404" y="396" type="line" smooth="yes"/>
      <point x="404" y="134" type="line" smooth="yes"/>
      <point x="355" y="80" type="line" smooth="yes"/>
    </contour>
    <contour>
      <point x="254" y="541" type="line" smooth="yes"/>
      <point x="98" y="464" type="line" smooth="yes"/>
      <point x="51" y="277" type="line" smooth="yes"/>
      <point x="51" y="253" type="line" smooth="yes"/>
      <point x="98" y="66" type="line" smooth="yes"/>
      <point x="254" y="-11" type="line" smooth="yes"/>
      <point x="352" y="13" type="line" smooth="yes"/>
      <point x="411" y="71" type="line" smooth="yes"/>
      <point x="421" y="0" type="line" smooth="yes"/>
      <point x="480" y="0" type="line" smooth="yes"/>
      <point x="474" y="150" type="line" smooth="yes"/>
      <point x="474" y="800" type="line" smooth="yes"/>
      <point x="404" y="800" type="line" smooth="yes"/>
      <point x="404" y="469" type="line" smooth="yes"/>
      <point x="346" y="520" type="line" smooth="yes"/>
    </contour>
  </outline>
</glyph>
<glyph name="emacron" format="1">
  <advance width="544"/>
  <unicode hex="0113"/>
  <outline>
    <contour>
      <point x="156" y="664" type="line" smooth="yes"/>
      <point x="390" y="664" type="line" smooth="yes"/>
      <point x="390" y="730" type="line" smooth="yes"/>
      <point x="156" y="730" type="line" smooth="yes"/>
    </contour>
    <contour>
      <point x="272" y="482" type="line" smooth="yes"/>
      <point x="384" y="431" type="line" smooth="yes"/>
      <point x="424" y="294" type="line" smooth="yes"/>
      <point x="120" y="294" type="line" smooth="yes"/>
      <point x="160" y="431" type="line" smooth="yes"/>
    </contour>
    <contour>
      <point x="495" y="236" type="line" smooth="yes"/>
      <point x="495" y="276" type="line" smooth="yes"/>
      <point x="442" y="464" type="line" smooth="yes"/>
      <point x="273" y="541" type="line" smooth="yes"/>
      <point x="103" y="464" type="line" smooth="yes"/>
      <point x="49" y="276" type="line" smooth="yes"/>
      <point x="49" y="254" type="line" smooth="yes"/>
      <point x="104" y="66" type="line" smooth="yes"/>
      <point x="278" y="-11" type="line" smooth="yes"/>
      <point x="442" y="47" type="line" smooth="yes"/>
      <point x="495" y="166" type="line" smooth="yes"/>
      <point x="495" y="170" type="line" smooth="yes"/>
      <point x="428" y="170" type="line" smooth="yes"/>
      <point x="393" y="88" type="line" smooth="yes"/>
      <point x="278" y="48" type="line" smooth="yes"/>
      <point x="160" y="99" type="line" smooth="yes"/>
      <point x="120" y="236" type="line" smooth="yes"/>
    </contour>
  </outline>
</glyph>
<glyph name="Ebreve" format="1">
  <advance width="549"/>
  <unicode hex="0114"/>
  <outline>
    <contour>
      <point x="74" y="780" type="line" smooth="yes"/>
      <point x="74" y="0" type="line" smooth="yes"/>
      <point x="509" y="0" type="line" smooth="yes"/>
      <point x="509" y="65" type="line" smooth="yes"/>
      <point x="146" y="65" type="line" smooth="yes"/>
      <point x="146" y="366" type="line" smooth="yes"/>
      <point x="459" y="366" type="line" smooth="yes"/>
      <point x="459" y="430" type="line" smooth="yes"/>
      <point x="146" y="430" type="line" smooth="yes"/>
      <point x="146" y="715" type="line" smooth="yes"/>
      <point x="509" y="715" type="line" smooth="yes"/>
      <point x="509" y="780" type="line" smooth="yes"/>
    </contour>
    <contour>
      <point x="299" y="829" type="line" smooth="yes"/>
      <point x="411" y="864" type="line" smooth="yes"/>
      <point x="444" y="950" type="line" smooth="yes"/>
      <point x="388" y="950" type="line" smooth="yes"/>
      <point x="367" y="898" type="line" smooth="yes"/>
      <point x="299" y="879" type="line" smooth="yes"/>
      <point x="231" y="898" type="line" smooth="yes"/>
      <point x="210" y="950" type="line" smooth="yes"/>
      <point x="154" y="950" type="line" smooth="yes"/>
      <point x="187" y="864" type="line" smooth="yes"/>
    </contour>
  </outline>
</glyph>
<glyph name="ebreve" format="1">
  <advance width="544"/>
  <unicode hex="0115"/>
  <outline>
    <contour>
      <point x="273" y="603" type="line" smooth="yes"/>
      <point x="397" y="653" type="line" smooth="yes"/>
      <point x="434" y="780" type="line" smooth="yes"/>
      <point x="377" y="780" type="line" smooth="yes"/>
      <point x="353" y="694" type="line" smooth="yes"/>
      <point x="273" y="662" type="line" smooth="yes"/>
      <point x="193" y="694" type="line" smooth="yes"/>
      <point x="169" y="780" type="line" smooth="yes"/>
      <point x="112" y="780" type="line" smooth="yes"/>
      <point x="149" y="653" type="line" smooth="yes"/>
    </contour>
    <contour>
      <point x="272" y="482" type="line" smooth="yes"/>
      <point x="384" y="431" type="line" smooth="yes"/>
      <point x="424" y="294" type="line" smooth="yes"/>
      <point x="120" y="294" type="line" smooth="yes"/>
      <point x="160" y="431" type="line" smooth="yes"/>
    </contour>
    <contour>
      <point x="495" y="236" type="line" smooth="yes"/>
      <point x="495" y="276" type="line" smooth="yes"/>
      <point x="442" y="464" type="line" smooth="yes"/>
      <point x="273" y="541" type="line" smooth="yes"/>
      <point x="103" y="464" type="line" smooth="yes"/>
      <point x="49" y="276" type="line" smooth="yes"/>
      <point x="49" y="254" type="line" smooth="yes"/>
      <point x="104" y="66" type="line" smooth="yes"/>
      <point x="278" y="-11" type="line" smooth="yes"/>
      <point x="442" y="47" type="line" smooth="yes"/>
      <point x="495" y="166" type="line" smooth="yes"/>
      <point x="495" y="170" type="line" smooth="yes"/>
      <point x="428" y="170" type="line" smooth="yes"/>
      <point x="393" y="88" type="line" smooth="yes"/>
      <point x="278" y="48" type="line" smooth="yes"/>
      <point x="160" y="99" type="line" smooth="yes"/>
      <point x="120" y="236" type="line" smooth="yes"/>
    </contour>
  </outline>
</glyph>
<glyph name="eogonek" format="1">
  <advance width="544"/>
  <unicode hex="0119"/>
  <outline>
    <contour>
      <point x="272" y="482" type="line" smooth="yes"/>
      <point x="384" y="431" type="line" smooth="yes"/>
      <point x="424" y="294" type="line" smooth="yes"/>
      <point x="120" y="294" type="line" smooth="yes"/>
      <point x="160" y="431" type="line" smooth="yes"/>
    </contour>
    <contour>
      <point x="495" y="236" type="line" smooth="yes"/>
      <point x="495" y="276" type="line" smooth="yes"/>
      <point x="442" y="464" type="line" smooth="yes"/>
      <point x="273" y="541" type="line" smooth="yes"/>
      <point x="103" y="464" type="line" smooth="yes"/>
      <point x="49" y="276" type="line" smooth="yes"/>
      <point x="49" y="254" type="line" smooth="yes"/>
      <point x="99" y="73" type="line" smooth="yes"/>
      <point x="259" y="-10" type="line" smooth="yes"/>
      <point x="228" y="-56" type="line" smooth="yes"/>
      <point x="216" y="-113" type="line" smooth="yes"/>
      <point x="246" y="-188" type="line" smooth="yes"/>
      <point x="325" y="-211" type="line" smooth="yes"/>
      <point x="374" y="-206" type="line" smooth="yes"/>
      <point x="414" y="-191" type="line" smooth="yes"/>
      <point x="395" y="-139" type="line" smooth="yes"/>
      <point x="367" y="-149" type="line" smooth="yes"/>
      <point x="332" y="-153" type="line" smooth="yes"/>
      <point x="291" y="-139" type="line" smooth="yes"/>
      <point x="276" y="-103" type="line" smooth="yes"/>
      <point x="301" y="-37" type="line" smooth="yes"/>
      <point x="358" y="0" type="line" smooth="yes"/>
      <point x="462" y="68" type="line" smooth="yes"/>
      <point x="495" y="166" type="line" smooth="yes"/>
      <point x="495" y="170" type="line" smooth="yes"/>
      <point x="428" y="170" type="line" smooth="yes"/>
      <point x="393" y="88" type="line" smooth="yes"/>
      <point x="278" y="48" type="line" smooth="yes"/>
      <point x="160" y="99" type="line" smooth="yes"/>
      <point x="120" y="236" type="line" smooth="yes"/>
    </contour>
  </outline>
</glyph>
<glyph name="gcircumflex" format="1">
  <advance width="537"/>
  <unicode hex="011D"/>
  <outline>
    <contour>
      <point x="172" y="614" type="line" smooth="yes"/>
      <point x="265" y="727" type="line" smooth="yes"/>
      <point x="358" y="614" type="line" smooth="yes"/>
      <point x="427" y="614" type="line" smooth="yes"/>
      <point x="296" y="780" type="line" smooth="yes"/>
      <point x="234" y="780" type="line" smooth="yes"/>
      <point x="103" y="614" type="line" smooth="yes"/>
    </contour>
    <contour>
      <point x="402" y="396" type="line" smooth="yes"/>
      <point x="402" y="171" type="line" smooth="yes"/>
      <point x="354" y="118" type="line" smooth="yes"/>
      <point x="267" y="90" type="line" smooth="yes"/>
      <point x="156" y="140" type="line" smooth="yes"/>
      <point x="120" y="273" type="line" smooth="yes"/>
      <point x="120" y="295" type="line" smooth="yes"/>
      <point x="156" y="427" type="line" smooth="yes"/>
      <point x="267" y="478" type="line" smooth="yes"/>
      <point x="354" y="450" type="line" smooth="yes"/>
    </contour>
    <contour>
      <point x="402" y="-1" type="line" smooth="yes"/>
      <point x="371" y="-112" type="line" smooth="yes"/>
      <point x="263" y="-150" type="line" smooth="yes"/>
      <point x="157" y="-113" type="line" smooth="yes"/>
      <point x="126" y="0" type="line" smooth="yes"/>
      <point x="59" y="0" type="line" smooth="yes"/>
      <point x="59" y="-13" type="line" smooth="yes"/>
      <point x="104" y="-153" type="line" smooth="yes"/>
      <point x="264" y="-211" type="line" smooth="yes"/>
      <point x="425" y="-153" type="line" smooth="yes"/>
      <point x="472" y="-5" type="line" smooth="yes"/>
      <point x="472" y="380" type="line" smooth="yes"/>
      <point x="478" y="530" type="line" smooth="yes"/>
      <point x="420" y="530" type="line" smooth="yes"/>
      <point x="410" y="459" type="line" smooth="yes"/>
      <point x="351" y="517" type="line" smooth="yes"/>
      <point x="252" y="541" type="line" smooth="yes"/>
      <point x="97" y="468" type="line" smooth="yes"/>
      <point x="49" y="295" type="line" smooth="yes"/>
      <point x="49" y="273" type="line" smooth="yes"/>
      <point x="97" y="99" type="line" smooth="yes"/>
      <point x="252" y="27" type="line" smooth="yes"/>
      <point x="344" y="47" type="line" smooth="yes"/>
      <point x="402" y="97" type="line" smooth="yes"/>
    </contour>
  </outline>
</glyph>
<glyph name="gbreve" format="1">
  <advance width="537"/>
  <unicode hex="011F"/>
  <outline>
    <contour>
      <point x="265" y="603" type="line" smooth="yes"/>
      <point x="389" y="653" type="line" smooth="yes"/>
      <point x="426" y="780" type="line" smooth="yes"/>
      <point x="369" y="780" type="line" smooth="yes"/>
      <point x="345" y="694" type="line" smooth="yes"/>
      <point x="265" y="662" type="line" smooth="yes"/>
      <point x="185" y="694" type="line" smooth="yes"/>
      <point x="161" y="780" type="line" smooth="yes"/>
      <point x="104" y="780" type="line" smooth="yes"/>
      <point x="141" y="653" type="line" smooth="yes"/>
    </contour>
    <contour>
      <point x="402" y="396" type="line" smooth="yes"/>
      <point x="402" y="171" type="line" smooth="yes"/>
      <point x="354" y="118" type="line" smooth="yes"/>
      <point x="267" y="90" type="line" smooth="yes"/>
      <point x="156" y="140" type="line" smooth="yes"/>
      <point x="120" y="273" type="line" smooth="yes"/>
      <point x="120" y="295" type="line" smooth="yes"/>
      <point x="156" y="427" type="line" smooth="yes"/>
      <point x="267" y="478" type="line" smooth="yes"/>
      <point x="354" y="450" type="line" smooth="yes"/>
    </contour>
    <contour>
      <point x="402" y="-1" type="line" smooth="yes"/>
      <point x="371" y="-112" type="line" smooth="yes"/>
      <point x="263" y="-150" type="line" smooth="yes"/>
      <point x="157" y="-113" type="line" smooth="yes"/>
      <point x="126" y="0" type="line" smooth="yes"/>
      <point x="59" y="0" type="line" smooth="yes"/>
      <point x="59" y="-13" type="line" smooth="yes"/>
      <point x="104" y="-153" type="line" smooth="yes"/>
      <point x="264" y="-211" type="line" smooth="yes"/>
      <point x="425" y="-153" type="line" smooth="yes"/>
      <point x="472" y="-5" type="line" smooth="yes"/>
      <point x="472" y="380" type="line" smooth="yes"/>
      <point x="478" y="530" type="line" smooth="yes"/>
      <point x="420" y="530" type="line" smooth="yes"/>
      <point x="410" y="459" type="line" smooth="yes"/>
      <point x="351" y="517" type="line" smooth="yes"/>
      <point x="252" y="541" type="line" smooth="yes"/>
      <point x="97" y="468" type="line" smooth="yes"/>
      <point x="49" y="295" type="line" smooth="yes"/>
      <point x="49" y="273" type="line" smooth="yes"/>
      <point x="97" y="99" type="line" smooth="yes"/>
      <point x="252" y="27" type="line" smooth="yes"/>
      <point x="344" y="47" type="line" smooth="yes"/>
      <point x="402" y="97" type="line" smooth="yes"/>
    </contour>
  </outline>
</glyph>
<glyph name="Gdotaccent" format="1">
  <advance width="648"/>
  <unicode hex="0120"/>
  <outline>
    <contour>
      <point x="371" y="930" type="line" smooth="yes"/>
      <point x="291" y="930" type="line" smooth="yes"/>
      <point x="291" y="860" type="line" smooth="yes"/>
      <point x="371" y="860" type="line" smooth="yes"/>
    </contour>
    <contour>
      <point x="341" y="-11" type="line" smooth="yes"/>
      <point x="491" y="18" type="line" smooth="yes"/>
      <point x="579" y="79" type="line" smooth="yes"/>
      <point x="579" y="384" type="line" smooth="yes"/>
      <point x="373" y="384" type="line" smooth="yes"/>
      <point x="373" y="320" type="line" smooth="yes"/>
      <point x="507" y="320" type="line" smooth="yes"/>
      <point x="507" y="114" type="line" smooth="yes"/>
      <point x="446" y="73" type="line" smooth="yes"/>
      <point x="346" y="54" type="line" smooth="yes"/>
      <point x="339" y="54" type="line" smooth="yes"/>
      <point x="182" y="129" type="line" smooth="yes"/>
      <point x="132" y="370" type="line" smooth="yes"/>
      <point x="132" y="410" type="line" smooth="yes"/>
      <point x="182" y="651" type="line" smooth="yes"/>
      <point x="331" y="726" type="line" smooth="yes"/>
      <point x="337" y="726" type="line" smooth="yes"/>
      <point x="467" y="671" type="line" smooth="yes"/>
      <point x="506" y="496" type="line" smooth="yes"/>
      <point x="579" y="496" type="line" smooth="yes"/>
      <point x="579" y="524" type="line" smooth="yes"/>
      <point x="518" y="724" type="line" smooth="yes"/>
      <point x="331" y="791" type="line" smooth="yes"/>
      <point x="127" y="702" type="line" smooth="yes"/>
      <point x="57" y="410" type="line" smooth="yes"/>
      <point x="57" y="370" type="line" smooth="yes"/>
      <point x="129" y="78" type="line" smooth="yes"/>
    </contour>
  </outline>
</glyph>
<glyph name="Gcommaaccent" format="1">
  <advance width="648"/>
  <unicode hex="0122"/>
  <outline>
    <contour>
      <point x="382" y="-56" type="line" smooth="yes"/>
      <point x="300" y="-56" type="line" smooth="yes"/>
      <point x="300" y="-124" type="line" smooth="yes"/>
      <point x="344" y="-124" type="line" smooth="yes"/>
      <point x="322" y="-166" type="line" smooth="yes"/>
      <point x="277" y="-178" type="line" smooth="yes"/>
      <point x="277" y="-214" type="line" smooth="yes"/>
      <point x="354" y="-186" type="line" smooth="yes"/>
      <point x="382" y="-106" type="line" smooth="yes"/>
    </contour>
    <contour>
      <point x="341" y="-11" type="line" smooth="yes"/>
      <point x="491" y="18" type="line" smooth="yes"/>
      <point x="579" y="79" type="line" smooth="yes"/>
      <point x="579" y="384" type="line" smooth="yes"/>
      <point x="373" y="384" type="line" smooth="yes"/>
      <point x="373" y="320" type="line" smooth="yes"/>
      <point x="507" y="320" type="line" smooth="yes"/>
      <point x="507" y="114" type="line" smooth="yes"/>
      <point x="446" y="73" type="line" smooth="yes"/>
      <point x="346" y="54" type="line" smooth="yes"/>
      <point x="339" y="54" type="line" smooth="yes"/>
      <point x="182" y="129" type="line" smooth="yes"/>
      <point x="132" y="370" type="line" smooth="yes"/>
      <point x="132" y="410" type="line" smooth="yes"/>
      <point x="182" y="651" type="line" smooth="yes"/>
      <point x="331" y="726" type="line" smooth="yes"/>
      <point x="337" y="726" type="line" smooth="yes"/>
      <point x="467" y="671" type="line" smooth="yes"/>
      <point x="506" y="496" type="line" smooth="yes"/>
      <point x="579" y="496" type="line" smooth="yes"/>
      <point x="579" y="524" type="line" smooth="yes"/>
      <point x="518" y="724" type="line" smooth="yes"/>
      <point x="331" y="791" type="line" smooth="yes"/>
      <point x="127" y="702" type="line" smooth="yes"/>
      <point x="57" y="410" type="line" smooth="yes"/>
      <point x="57" y="370" type="line" smooth="yes"/>
      <point x="129" y="78" type="line" smooth="yes"/>
    </contour>
  </outline>
</glyph>
<glyph name="gcommaaccent" format="1">
  <advance width="537"/>
  <unicode hex="0123"/>
  <outline>
    <contour>
      <point x="224" y="614" type="line" smooth="yes"/>
      <point x="305" y="614" type="line" smooth="yes"/>
      <point x="305" y="684" type="line" smooth="yes"/>
      <point x="260" y="684" type="line" smooth="yes"/>
      <point x="280" y="740" type="line" smooth="yes"/>
      <point x="328" y="755" type="line" smooth="yes"/>
      <point x="328" y="791" type="line" smooth="yes"/>
      <point x="250" y="760" type="line" smooth="yes"/>
      <point x="224" y="666" type="line" smooth="yes"/>
    </contour>
    <contour>
      <point x="402" y="396" type="line" smooth="yes"/>
      <point x="402" y="171" type="line" smooth="yes"/>
      <point x="354" y="118" type="line" smooth="yes"/>
      <point x="267" y="90" type="line" smooth="yes"/>
      <point x="156" y="140" type="line" smooth="yes"/>
      <point x="120" y="273" type="line" smooth="yes"/>
      <point x="120" y="295" type="line" smooth="yes"/>
      <point x="156" y="427" type="line" smooth="yes"/>
      <point x="267" y="478" type="line" smooth="yes"/>
      <point x="354" y="450" type="line" smooth="yes"/>
    </contour>
    <contour>
      <point x="402" y="-1" type="line" smooth="yes"/>
      <point x="371" y="-112" type="line" smooth="yes"/>
      <point x="263" y="-150" type="line" smooth="yes"/>
      <point x="157" y="-113" type="line" smooth="yes"/>
      <point x="126" y="0" type="line" smooth="yes"/>
      <point x="59" y="0" type="line" smooth="yes"/>
      <point x="59" y="-13" type="line" smooth="yes"/>
      <point x="104" y="-153" type="line" smooth="yes"/>
      <point x="264" y="-211" type="line" smooth="yes"/>
      <point x="425" y="-153" type="line" smooth="yes"/>
      <point x="472" y="-5" type="line" smooth="yes"/>
      <point x="472" y="380" type="line" smooth="yes"/>
      <point x="478" y="530" type="line" smooth="yes"/>
      <point x="420" y="530" type="line" smooth="yes"/>
      <point x="410" y="459" type="line" smooth="yes"/>
      <point x="351" y="517" type="line" smooth="yes"/>
      <point x="252" y="541" type="line" smooth="yes"/>
      <point x="97" y="468" type="line" smooth="yes"/>
      <point x="49" y="295" type="line" smooth="yes"/>
      <point x="49" y="273" type="line" smooth="yes"/>
      <point x="97" y="99" type="line" smooth="yes"/>
      <point x="252" y="27" type="line" smooth="yes"/>
      <point x="344" y="47" type="line" smooth="yes"/>
      <point x="402" y="97" type="line" smooth="yes"/>
    </contour>
  </outline>
</glyph>
<glyph name="hcircumflex" format="1">
  <advance width="528"/>
  <unicode hex="0125"/>
  <outline>
    <contour>
      <point x="33" y="840" type="line" smooth="yes"/>
      <point x="101" y="906" type="line" smooth="yes"/>
      <point x="169" y="840" type="line" smooth="yes"/>
      <point x="239" y="840" type="line" smooth="yes"/>
      <point x="133" y="950" type="line" smooth="yes"/>
      <point x="69" y="950" type="line" smooth="yes"/>
      <point x="-37" y="840" type="line" smooth="yes"/>
    </contour>
    <contour>
      <point x="136" y="800" type="line" smooth="yes"/>
      <point x="66" y="800" type="line" smooth="yes"/>
      <point x="66" y="0" type="line" smooth="yes"/>
      <point x="136" y="0" type="line" smooth="yes"/>
      <point x="136" y="396" type="line" smooth="yes"/>
      <point x="186" y="450" type="line" smooth="yes"/>
      <point x="282" y="478" type="line" smooth="yes"/>
      <point x="366" y="450" type="line" smooth="yes"/>
      <point x="397" y="361" type="line" smooth="yes"/>
      <point x="397" y="0" type="line" smooth="yes"/>
      <point x="467" y="0" type="line" smooth="yes"/>
      <point x="467" y="371" type="line" smooth="yes"/>
      <point x="426" y="493" type="line" smooth="yes"/>
      <point x="306" y="541" type="line" smooth="yes"/>
      <point x="202" y="519" type="line" smooth="yes"/>
      <point x="136" y="466" type="line" smooth="yes"/>
    </contour>
  </outline>
</glyph>
<glyph name="hbar" format="1">
  <advance width="528"/>
  <unicode hex="0127"/>
  <outline>
    <contour>
      <point x="136" y="800" type="line" smooth="yes"/>
      <point x="66" y="800" type="line" smooth="yes"/>
      <point x="66" y="694" type="line" smooth="yes"/>
      <point x="-26" y="694" type="line" smooth="yes"/>
      <point x="-26" y="636" type="line" smooth="yes"/>
      <point x="66" y="636" type="line" smooth="yes"/>
      <point x="66" y="0" type="line" smooth="yes"/>
      <point x="136" y="0" type="line" smooth="yes"/>
      <point x="136" y="396" type="line" smooth="yes"/>
      <point x="186" y="450" type="line" smooth="yes"/>
      <point x="282" y="478" type="line" smooth="yes"/>
      <point x="366" y="450" type="line" smooth="yes"/>
      <point x="397" y="361" type="line" smooth="yes"/>
      <point x="397" y="0" type="line" smooth="yes"/>
      <point x="467" y="0" type="line" smooth="yes"/>
      <point x="467" y="371" type="line" smooth="yes"/>
      <point x="426" y="493" type="line" smooth="yes"/>
      <point x="306" y="541" type="line" smooth="yes"/>
      <point x="202" y="519" type="line" smooth="yes"/>
      <point x="136" y="466" type="line" smooth="yes"/>
      <point x="136" y="636" type="line" smooth="yes"/>
      <point x="269" y="636" type="line" smooth="yes"/>
      <point x="269" y="694" type="line" smooth="yes"/>
      <point x="136" y="694" type="line" smooth="yes"/>
    </contour>
  </outline>
</glyph>
<glyph name="Itilde" format="1">
  <advance width="229"/>
  <unicode hex="0128"/>
  <outline>
    <contour>
      <point x="217" y="936" type="line" smooth="yes"/>
      <point x="206" y="902" type="line" smooth="yes"/>
      <point x="180" y="893" type="line" smooth="yes"/>
      <point x="120" y="920" type="line" smooth="yes"/>
      <point x="42" y="947" type="line" smooth="yes"/>
      <point x="-15" y="925" type="line" smooth="yes"/>
      <point x="-37" y="854" type="line" smooth="yes"/>
      <point x="13" y="854" type="line" smooth="yes"/>
      <point x="24" y="888" type="line" smooth="yes"/>
      <point x="50" y="897" type="line" smooth="yes"/>
      <point x="110" y="870" type="line" smooth="yes"/>
      <point x="188" y="843" type="line" smooth="yes"/>
      <point x="245" y="865" type="line" smooth="yes"/>
      <point x="267" y="936" type="line" smooth="yes"/>
    </contour>
    <contour>
      <point x="151" y="780" type="line" smooth="yes"/>
      <point x="79" y="780" type="line" smooth="yes"/>
      <point x="79" y="0" type="line" smooth="yes"/>
      <point x="151" y="0" type="line" smooth="yes"/>
    </contour>
  </outline>
</glyph>
<glyph name="Ibreve" format="1">
  <advance width="229"/>
  <unicode hex="012C"/>
  <outline>
    <contour>
      <point x="115" y="829" type="line" smooth="yes"/>
      <point x="227" y="864" type="line" smooth="yes"/>
      <point x="260" y="950" type="line" smooth="yes"/>
      <point x="204" y="950" type="line" smooth="yes"/>
      <point x="183" y="898" type="line" smooth="yes"/>
      <point x="115" y="879" type="line" smooth="yes"/>
      <point x="47" y="898" type="line" smooth="yes"/>
      <point x="26" y="950" type="line" smooth="yes"/>
      <point x="-30" y="950" type="line" smooth="yes"/>
      <point x="3" y="864" type="line" smooth="yes"/>
    </contour>
    <contour>
      <point x="151" y="780" type="line" smooth="yes"/>
      <point x="79" y="780" type="line" smooth="yes"/>
      <point x="79" y="0" type="line" smooth="yes"/>
      <point x="151" y="0" type="line" smooth="yes"/>
    </contour>
  </outline>
</glyph>
<glyph name="ibreve" format="1">
  <advance width="217"/>
  <unicode hex="012D"/>
  <outline>
    <contour>
      <point x="108" y="603" type="line" smooth="yes"/>
      <point x="232" y="653" type="line" smooth="yes"/>
      <point x="269" y="780" type="line" smooth="yes"/>
      <point x="212" y="780" type="line" smooth="yes"/>
      <point x="188" y="694" type="line" smooth="yes"/>
      <point x="108" y="662" type="line" smooth="yes"/>
      <point x="28" y="694" type="line" smooth="yes"/>
      <point x="4" y="780" type="line" smooth="yes"/>
      <point x="-53" y="780" type="line" smooth="yes"/>
      <point x="-16" y="653" type="line" smooth="yes"/>
    </contour>
    <contour>
      <point x="73" y="0" type="line" smooth="yes"/>
      <point x="143" y="0" type="line" smooth="yes"/>
      <point x="143" y="530" type="line" smooth="yes"/>
      <point x="73" y="530" type="line" smooth="yes"/>
    </contour>
  </outline>
</glyph>
<glyph name="Iogonek" format="1">
  <advance width="229"/>
  <unicode hex="012E"/>
  <outline>
    <contour>
      <point x="67" y="-103" type="line" smooth="yes"/>
      <point x="92" y="-40" type="line" smooth="yes"/>
      <point x="150" y="0" type="line" smooth="yes"/>
      <point x="151" y="0" type="line" smooth="yes"/>
      <point x="151" y="780" type="line" smooth="yes"/>
      <point x="79" y="780" type="line" smooth="yes"/>
      <point x="79" y="14" type="line" smooth="yes"/>
      <point x="28" y="-38" type="line" smooth="yes"/>
      <point x="7" y="-113" type="line" smooth="yes"/>
      <point x="37" y="-188" type="line" smooth="yes"/>
      <point x="116" y="-211" type="line" smooth="yes"/>
      <point x="165" y="-206" type="line" smooth="yes"/>
      <point x="205" y="-191" type="line" smooth="yes"/>
      <point x="186" y="-139" type="line" smooth="yes"/>
      <point x="158" y="-149" type="line" smooth="yes"/>
      <point x="123" y="-153" type="line" smooth="yes"/>
      <point x="82" y="-139" type="line" smooth="yes"/>
    </contour>
  </outline>
</glyph>
<glyph name="iogonek" format="1">
  <advance width="217"/>
  <unicode hex="012F"/>
  <outline>
    <contour>
      <point x="153" y="745" type="line" smooth="yes"/>
      <point x="63" y="745" type="line" smooth="yes"/>
      <point x="63" y="655" type="line" smooth="yes"/>
      <point x="153" y="655" type="line" smooth="yes"/>
    </contour>
    <contour>
      <point x="60" y="-103" type="line" smooth="yes"/>
      <point x="85" y="-40" type="line" smooth="yes"/>
      <point x="143" y="0" type="line" smooth="yes"/>
      <point x="143" y="530" type="line" smooth="yes"/>
      <point x="73" y="530" type="line" smooth="yes"/>
      <point x="73" y="15" type="line" smooth="yes"/>
      <point x="21" y="-38" type="line" smooth="yes"/>
      <point x="0" y="-113" type="line" smooth="yes"/>
      <point x="30" y="-188" type="line" smooth="yes"/>
      <point x="109" y="-211" type="line" smooth="yes"/>
      <point x="158" y="-206" type="line" smooth="yes"/>
      <point x="198" y="-191" type="line" smooth="yes"/>
      <point x="179" y="-139" type="line" smooth="yes"/>
      <point x="151" y="-149" type="line" smooth="yes"/>
      <point x="116" y="-153" type="line" smooth="yes"/>
      <point x="75" y="-139" type="line" smooth="yes"/>
    </contour>
  </outline>
</glyph>
<glyph name="dotlessi" format="1">
  <advance width="216"/>
  <unicode hex="0131"/>
  <outline>
    <contour>
      <point x="73" y="0" type="line" smooth="yes"/>
      <point x="143" y="0" type="line" smooth="yes"/>
      <point x="143" y="530" type="line" smooth="yes"/>
      <point x="73" y="530" type="line" smooth="yes"/>
    </contour>
  </outline>
</glyph>
<glyph name="IJ" format="1">
  <advance width="499"/>
  <unicode hex="0132"/>
  <outline>
    <contour>
      <point x="151" y="780" type="line" smooth="yes"/>
      <point x="79" y="780" type="line" smooth="yes"/>
      <point x="79" y="0" type="line" smooth="yes"/>
      <point x="151" y="0" type="line" smooth="yes"/>
    </contour>
    <contour>
      <point x="358" y="166" type="line" smooth="yes"/>
      <point x="335" y="79" type="line" smooth="yes"/>
      <point x="264" y="54" type="line" smooth="yes"/>
      <point x="231" y="58" type="line" smooth="yes"/>
      <point x="206" y="64" type="line" smooth="yes"/>
      <point x="206" y="2" type="line" smooth="yes"/>
      <point x="231" y="-6" type="line" smooth="yes"/>
      <point x="283" y="-11" type="line" smooth="yes"/>
      <point x="388" y="28" type="line" smooth="yes"/>
      <point x="430" y="157" type="line" smooth="yes"/>
      <point x="430" y="780" type="line" smooth="yes"/>
      <point x="358" y="780" type="line" smooth="yes"/>
    </contour>
  </outline>
</glyph>
<glyph name="jcircumflex" format="1">
  <advance width="217"/>
  <unicode hex="0135"/>
  <outline>
    <contour>
      <point x="15" y="614" type="line" smooth="yes"/>
      <point x="108" y="727" type="line" smooth="yes"/>
      <point x="201" y="614" type="line" smooth="yes"/>
      <point x="270" y="614" type="line" smooth="yes"/>
      <point x="139" y="780" type="line" smooth="yes"/>
      <point x="77" y="780" type="line" smooth="yes"/>
      <point x="-54" y="614" type="line" smooth="yes"/>
    </contour>
    <contour>
      <point x="73" y="-44" type="line" smooth="yes"/>
      <point x="47" y="-128" type="line" smooth="yes"/>
      <point x="-29" y="-148" type="line" smooth="yes"/>
      <point x="-62" y="-145" type="line" smooth="yes"/>
      <point x="-86" y="-139" type="line" smooth="yes"/>
      <point x="-86" y="-200" type="line" smooth="yes"/>
      <point x="-62" y="-207" type="line" smooth="yes"/>
      <point x="-12" y="-211" type="line" smooth="yes"/>
      <point x="99" y="-175" type="line" smooth="yes"/>
      <point x="143" y="-53" type="line" smooth="yes"/>
      <point x="143" y="530" type="line" smooth="yes"/>
      <point x="73" y="530" type="line" smooth="yes"/>
    </contour>
  </outline>
</glyph>
<glyph name="Kcommaaccent" format="1">
  <advance width="562"/>
  <unicode hex="0136"/>
  <outline>
    <contour>
      <point x="319" y="-56" type="line" smooth="yes"/>
      <point x="237" y="-56" type="line" smooth="yes"/>
      <point x="237" y="-124" type="line" smooth="yes"/>
      <point x="281" y="-124" type="line" smooth="yes"/>
      <point x="259" y="-166" type="line" smooth="yes"/>
      <point x="214" y="-178" type="line" smooth="yes"/>
      <point x="214" y="-214" type="line" smooth="yes"/>
      <point x="291" y="-186" type="line" smooth="yes"/>
      <point x="319" y="-106" type="line" smooth="yes"/>
    </contour>
    <contour>
      <point x="146" y="780" type="line" smooth="yes"/>
      <point x="74" y="780" type="line" smooth="yes"/>
      <point x="74" y="0" type="line" smooth="yes"/>
      <point x="146" y="0" type="line" smooth="yes"/>
      <point x="146" y="240" type="line" smooth="yes"/>
      <point x="250" y="387" type="line" smooth="yes"/>
      <point x="446" y="0" type="line" smooth="yes"/>
      <point x="528" y="0" type="line" smooth="yes"/>
      <point x="296" y="452" type="line" smooth="yes"/>
      <point x="528" y="780" type="line" smooth="yes"/>
      <point x="440" y="780" type="line" smooth="yes"/>
      <point x="146" y="352" type="line" smooth="yes"/>
    </contour>
  </outline>
</glyph>
<glyph name="lacute" format="1">
  <advance width="217"/>
  <unicode hex="013A"/>
  <outline>
    <contour>
      <point x="132" y="950" type="line" smooth="yes"/>
      <point x="72" y="840" type="line" smooth="yes"/>
      <point x="144" y="840" type="line" smooth="yes"/>
      <point x="206" y="950" type="line" smooth="yes"/>
    </contour>
    <contour>
      <point x="73" y="0" type="line" smooth="yes"/>
      <point x="143" y="0" type="line" smooth="yes"/>
      <point x="143" y="800" type="line" smooth="yes"/>
      <point x="73" y="800" type="line" smooth="yes"/>
    </contour>
  </outline>
</glyph>
<glyph name="Lcommaaccent" format="1">
  <advance width="491"/>
  <unicode hex="013B"/>
  <outline>
    <contour>
      <point x="317" y="-56" type="line" smooth="yes"/>
      <point x="235" y="-56" type="line" smooth="yes"/>
      <point x="235" y="-124" type="line" smooth="yes"/>
      <point x="279" y="-124" type="line" smooth="yes"/>
      <point x="257" y="-166" type="line" smooth="yes"/>
      <point x="212" y="-178" type="line" smooth="yes"/>
      <point x="212" y="-214" type="line" smooth="yes"/>
      <point x="289" y="-186" type="line" smooth="yes"/>
      <point x="317" y="-106" type="line" smooth="yes"/>
    </contour>
    <contour>
      <point x="476" y="0" type="line" smooth="yes"/>
      <point x="476" y="65" type="line" smooth="yes"/>
      <point x="146" y="65" type="line" smooth="yes"/>
      <point x="146" y="780" type="line" smooth="yes"/>
      <point x="74" y="780" type="line" smooth="yes"/>
      <point x="74" y="0" type="line" smooth="yes"/>
    </contour>
  </outline>
</glyph>
<glyph name="ldot" format="1">
  <advance width="335"/>
  <unicode hex="0140"/>
  <outline>
    <contour>
      <point x="320" y="394" type="line" smooth="yes"/>
      <point x="233" y="394" type="line" smooth="yes"/>
      <point x="233" y="306" type="line" smooth="yes"/>
      <point x="320" y="306" type="line" smooth="yes"/>
    </contour>
    <contour>
      <point x="73" y="0" type="line" smooth="yes"/>
      <point x="143" y="0" type="line" smooth="yes"/>
      <point x="143" y="800" type="line" smooth="yes"/>
      <point x="73" y="800" type="line" smooth="yes"/>
    </contour>
  </outline>
</glyph>
<glyph name="ncommaaccent" format="1">
  <advance width="528"/>
  <unicode hex="0146"/>
  <outline>
    <contour>
      <point x="308" y="-56" type="line" smooth="yes"/>
      <point x="226" y="-56" type="line" smooth="yes"/>
      <point x="226" y="-124" type="line" smooth="yes"/>
      <point x="270" y="-124" type="line" smooth="yes"/>
      <point x="248" y="-166" type="line" smooth="yes"/>
      <point x="203" y="-178" type="line" smooth="yes"/>
      <point x="203" y="-214" type="line" smooth="yes"/>
      <point x="280" y="-186" type="line" smooth="yes"/>
      <point x="308" y="-106" type="line" smooth="yes"/>
    </contour>
    <contour>
      <point x="467" y="0" type="line" smooth="yes"/>
      <point x="467" y="371" type="line" smooth="yes"/>
      <point x="426" y="493" type="line" smooth="yes"/>
      <point x="306" y="541" type="line" smooth="yes"/>
      <point x="195" y="516" type="line" smooth="yes"/>
      <point x="128" y="455" type="line" smooth="yes"/>
      <point x="118" y="530" type="line" smooth="yes"/>
      <point x="60" y="530" type="line" smooth="yes"/>
      <point x="66" y="380" type="line" smooth="yes"/>
      <point x="66" y="0" type="line" smooth="yes"/>
      <point x="136" y="0" type="line" smooth="yes"/>
      <point x="136" y="396" type="line" smooth="yes"/>
      <point x="186" y="450" type="line" smooth="yes"/>
      <point x="282" y="478" type="line" smooth="yes"/>
      <point x="366" y="450" type="line" smooth="yes"/>
      <point x="397" y="361" type="line" smooth="yes"/>
      <point x="397" y="0" type="line" smooth="yes"/>
    </contour>
  </outline>
</glyph>
<glyph name="eng" format="1">
  <advance width="528"/>
  <unicode hex="014B"/>
  <outline>
    <contour>
      <point x="397" y="-44" type="line" smooth="yes"/>
      <point x="371" y="-128" type="line" smooth="yes"/>
      <point x="295" y="-148" type="line" smooth="yes"/>
      <point x="261" y="-145" type="line" smooth="yes"/>
      <point x="238" y="-139" type="line" smooth="yes"/>
      <point x="238" y="-200" type="line" smooth="yes"/>
      <point x="262" y="-207" type="line" smooth="yes"/>
      <point x="312" y="-211" type="line" smooth="yes"/>
      <point x="423" y="-175" type="line" smooth="yes"/>
      <point x="467" y="-53" type="line" smooth="yes"/>
      <point x="467" y="371" type="line" smooth="yes"/>
      <point x="426" y="493" type="line" smooth="yes"/>
      <point x="306" y="541" type="line" smooth="yes"/>
      <point x="195" y="516" type="line" smooth="yes"/>
      <point x="128" y="455" type="line" smooth="yes"/>
      <point x="118" y="530" type="line" smooth="yes"/>
      <point x="60" y="530" type="line" smooth="yes"/>
      <point x="66" y="380" type="line" smooth="yes"/>
      <point x="66" y="0" type="line" smooth="yes"/>
      <point x="136" y="0" type="line" smooth="yes"/>
      <point x="136" y="396" type="line" smooth="yes"/>
      <point x="186" y="450" type="line" smooth="yes"/>
      <point x="282" y="478" type="line" smooth="yes"/>
      <point x="366" y="450" type="line" smooth="yes"/>
      <point x="397" y="361" type="line" smooth="yes"/>
    </contour>
  </outline>
</glyph>
<glyph name="omacron" format="1">
  <advance width="544"/>
  <unicode hex="014D"/>
  <outline>
    <contour>
      <point x="155" y="664" type="line" smooth="yes"/>
      <point x="389" y="664" type="line" smooth="yes"/>
      <point x="389" y="730" type="line" smooth="yes"/>
      <point x="155" y="730" type="line" smooth="yes"/>
    </contour>
    <contour>
      <point x="272" y="52" type="line" smooth="yes"/>
      <point x="157" y="107" type="line" smooth="yes"/>
      <point x="120" y="253" type="line" smooth="yes"/>
      <point x="120" y="277" type="line" smooth="yes"/>
      <point x="157" y="423" type="line" smooth="yes"/>
      <point x="272" y="478" type="line" smooth="yes"/>
      <point x="387" y="423" type="line" smooth="yes"/>
      <point x="424" y="277" type="line" smooth="yes"/>
      <point x="424" y="253" type="line" smooth="yes"/>
      <point x="387" y="107" type="line" smooth="yes"/>
    </contour>
    <contour>
      <point x="272" y="-11" type="line" smooth="yes"/>
      <point x="442" y="66" type="line" smooth="yes"/>
      <point x="495" y="253" type="line" smooth="yes"/>
      <point x="495" y="277" type="line" smooth="yes"/>
      <point x="442" y="464" type="line" smooth="yes"/>
      <point x="272" y="541" type="line" smooth="yes"/>
      <point x="102" y="464" type="line" smooth="yes"/>
      <point x="49" y="277" type="line" smooth="yes"/>
      <point x="49" y="253" type="line" smooth="yes"/>
      <point x="102" y="66" type="line" smooth="yes"/>
    </contour>
  </outline>
</glyph>
<glyph name="Obreve" format="1">
  <advance width="649"/>
  <unicode hex="014E"/>
  <outline>
    <contour>
      <point x="324" y="829" type="line" smooth="yes"/>
      <point x="436" y="864" type="line" smooth="yes"/>
      <point x="469" y="950" type="line" smooth="yes"/>
      <point x="413" y="950" type="line" smooth="yes"/>
      <point x="392" y="898" type="line" smooth="yes"/>
      <point x="324" y="879" type="line" smooth="yes"/>
      <point x="256" y="898" type="line" smooth="yes"/>
      <point x="235" y="950" type="line" smooth="yes"/>
      <point x="179" y="950" type="line" smooth="yes"/>
      <point x="212" y="864" type="line" smooth="yes"/>
    </contour>
    <contour>
      <point x="321" y="54" type="line" smooth="yes"/>
      <point x="177" y="129" type="line" smooth="yes"/>
      <point x="131" y="370" type="line" smooth="yes"/>
      <point x="131" y="410" type="line" smooth="yes"/>
      <point x="177" y="651" type="line" smooth="yes"/>
      <point x="321" y="726" type="line" smooth="yes"/>
      <point x="328" y="726" type="line" smooth="yes"/>
      <point x="472" y="651" type="line" smooth="yes"/>
      <point x="518" y="410" type="line" smooth="yes"/>
      <point x="518" y="370" type="line" smooth="yes"/>
      <point x="472" y="129" type="line" smooth="yes"/>
      <point x="328" y="54" type="line" smooth="yes"/>
    </contour>
    <contour>
      <point x="324" y="-11" type="line" smooth="yes"/>
      <point x="525" y="78" type="line" smooth="yes"/>
      <point x="592" y="370" type="line" smooth="yes"/>
      <point x="592" y="410" type="line" smooth="yes"/>
      <point x="525" y="702" type="line" smooth="yes"/>
      <point x="324" y="791" type="line" smooth="yes"/>
      <point x="124" y="702" type="line" smooth="yes"/>
      <point x="57" y="410" type="line" smooth="yes"/>
      <point x="57" y="370" type="line" smooth="yes"/>
      <point x="124" y="78" type="line" smooth="yes"/>
    </contour>
  </outline>
</glyph>
<glyph name="obreve" format="1">
  <advance width="544"/>
  <unicode hex="014F"/>
  <outline>
    <contour>
      <point x="272" y="603" type="line" smooth="yes"/>
      <point x="396" y="653" type="line" smooth="yes"/>
      <point x="433" y="780" type="line" smooth="yes"/>
      <point x="376" y="780" type="line" smooth="yes"/>
      <point x="352" y="694" type="line" smooth="yes"/>
      <point x="272" y="662" type="line" smooth="yes"/>
      <point x="192" y="694" type="line" smooth="yes"/>
      <point x="168" y="780" type="line" smooth="yes"/>
      <point x="111" y="780" type="line" smooth="yes"/>
      <point x="148" y="653" type="line" smooth="yes"/>
    </contour>
    <contour>
      <point x="272" y="52" type="line" smooth="yes"/>
      <point x="157" y="107" type="line" smooth="yes"/>
      <point x="120" y="253" type="line" smooth="yes"/>
      <point x="120" y="277" type="line" smooth="yes"/>
      <point x="157" y="423" type="line" smooth="yes"/>
      <point x="272" y="478" type="line" smooth="yes"/>
      <point x="387" y="423" type="line" smooth="yes"/>
      <point x="424" y="277" type="line" smooth="yes"/>
      <point x="424" y="253" type="line" smooth="yes"/>
      <point x="387" y="107" type="line" smooth="yes"/>
    </contour>
    <contour>
      <point x="272" y="-11" type="line" smooth="yes"/>
      <point x="442" y="66" type="line" smooth="yes"/>
      <point x="495" y="253" type="line" smooth="yes"/>
      <point x="495" y="277" type="line" smooth="yes"/>
      <point x="442" y="464" type="line" smooth="yes"/>
      <point x="272" y="541" type="line" smooth="yes"/>
      <point x="102" y="464" type="line" smooth="yes"/>
      <point x="49" y="277" type="line" smooth="yes"/>
      <point x="49" y="253" type="line" smooth="yes"/>
      <point x="102" y="66" type="line" smooth="yes"/>
    </contour>
  </outline>
</glyph>
<glyph name="oe" format="1">
  <advance width="919"/>
  <unicode hex="0153"/>
  <outline>
    <contour>
      <point x="647" y="482" type="line" smooth="yes"/>
      <point x="759" y="431" type="line" smooth="yes"/>
      <point x="799" y="294" type="line" smooth="yes"/>
      <point x="495" y="294" type="line" smooth="yes"/>
      <point x="535" y="431" type="line" smooth="yes"/>
    </contour>
    <contour>
      <point x="120" y="253" type="line" smooth="yes"/>
      <point x="120" y="277" type="line" smooth="yes"/>
      <point x="157" y="423" type="line" smooth="yes"/>
      <point x="272" y="478" type="line" smooth="yes"/>
      <point x="387" y="423" type="line" smooth="yes"/>
      <point x="424" y="277" type="line" smooth="yes"/>
      <point x="424" y="253" type="line" smooth="yes"/>
      <point x="387" y="107" type="line" smooth="yes"/>
      <point x="272" y="52" type="line" smooth="yes"/>
      <point x="157" y="107" type="line" smooth="yes"/>
    </contour>
    <contour>
      <point x="871" y="236" type="line" smooth="yes"/>
      <point x="871" y="276" type="line" smooth="yes"/>
      <point x="818" y="464" type="line" smooth="yes"/>
      <point x="648" y="541" type="line" smooth="yes"/>
      <point x="529" y="508" type="line" smooth="yes"/>
      <point x="460" y="423" type="line" smooth="yes"/>
      <point x="391" y="508" type="line" smooth="yes"/>
      <point x="272" y="541" type="line" smooth="yes"/>
      <point x="102" y="464" type="line" smooth="yes"/>
      <point x="49" y="277" type="line" smooth="yes"/>
      <point x="49" y="253" type="line" smooth="yes"/>
      <point x="102" y="66" type="line" smooth="yes"/>
      <point x="272" y="-11" type="line" smooth="yes"/>
      <point x="391" y="22" type="line" smooth="yes"/>
      <point x="460" y="107" type="line" smooth="yes"/>
      <point x="531" y="22" type="line" smooth="yes"/>
      <point x="653" y="-11" type="line" smooth="yes"/>
      <point x="818" y="47" type="line" smooth="yes"/>
      <point x="871" y="166" type="line" smooth="yes"/>
      <point x="871" y="170" type="line" smooth="yes"/>
      <point x="803" y="170" type="line" smooth="yes"/>
      <point x="768" y="88" type="line" smooth="yes"/>
      <point x="654" y="48" type="line" smooth="yes"/>
      <point x="536" y="99" type="line" smooth="yes"/>
      <point x="495" y="236" type="line" smooth="yes"/>
    </contour>
  </outline>
</glyph>
<glyph name="racute" format="1">
  <advance width="333"/>
  <unicode hex="0155"/>
  <outline>
    <contour>
      <point x="232" y="780" type="line" smooth="yes"/>
      <point x="142" y="614" type="line" smooth="yes"/>
      <point x="214" y="614" type="line" smooth="yes"/>
      <point x="308" y="780" type="line" smooth="yes"/>
    </contour>
    <contour>
      <point x="276" y="541" type="line" smooth="yes"/>
      <point x="186" y="517" type="line" smooth="yes"/>
      <point x="128" y="460" type="line" smooth="yes"/>
      <point x="118" y="530" type="line" smooth="yes"/>
      <point x="60" y="530" type="line" smooth="yes"/>
      <point x="66" y="380" type="line" smooth="yes"/>
      <point x="66" y="0" type="line" smooth="yes"/>
      <point x="136" y="0" type="line" smooth="yes"/>
      <point x="136" y="393" type="line" smooth="yes"/>
      <point x="185" y="446" type="line" smooth="yes"/>
      <point x="277" y="473" type="line" smooth="yes"/>
      <point x="291" y="473" type="line" smooth="yes"/>
      <point x="291" y="540" type="line" smooth="yes"/>
      <point x="286" y="541" type="line" smooth="yes"/>
    </contour>
  </outline>
</glyph>
<glyph name="Rcommaaccent" format="1">
  <advance width="584"/>
  <unicode hex="0156"/>
  <outline>
    <contour>
      <point x="325" y="-56" type="line" smooth="yes"/>
      <point x="243" y="-56" type="line" smooth="yes"/>
      <point x="243" y="-124" type="line" smooth="yes"/>
      <point x="287" y="-124" type="line" smooth="yes"/>
      <point x="265" y="-166" type="line" smooth="yes"/>
      <point x="220" y="-178" type="line" smooth="yes"/>
      <point x="220" y="-214" type="line" smooth="yes"/>
      <point x="297" y="-186" type="line" smooth="yes"/>
      <point x="325" y="-106" type="line" smooth="yes"/>
    </contour>
    <contour>
      <point x="146" y="382" type="line" smooth="yes"/>
      <point x="146" y="715" type="line" smooth="yes"/>
      <point x="292" y="715" type="line" smooth="yes"/>
      <point x="399" y="686" type="line" smooth="yes"/>
      <point x="455" y="556" type="line" smooth="yes"/>
      <point x="455" y="541" type="line" smooth="yes"/>
      <point x="399" y="411" type="line" smooth="yes"/>
      <point x="292" y="382" type="line" smooth="yes"/>
    </contour>
    <contour>
      <point x="146" y="317" type="line" smooth="yes"/>
      <point x="290" y="317" type="line" smooth="yes"/>
      <point x="308" y="317" type="line" smooth="yes"/>
      <point x="326" y="318" type="line" smooth="yes"/>
      <point x="450" y="0" type="line" smooth="yes"/>
      <point x="529" y="0" type="line" smooth="yes"/>
      <point x="394" y="332" type="line" smooth="yes"/>
      <point x="489" y="398" type="line" smooth="yes"/>
      <point x="529" y="538" type="line" smooth="yes"/>
      <point x="529" y="558" type="line" smooth="yes"/>
      <point x="451" y="737" type="line" smooth="yes"/>
      <point x="290" y="780" type="line" smooth="yes"/>
      <point x="74" y="780" type="line" smooth="yes"/>
      <point x="74" y="0" type="line" smooth="yes"/>
      <point x="146" y="0" type="line" smooth="yes"/>
    </contour>
  </outline>
</glyph>
<glyph name="rcommaaccent" format="1">
  <advance width="333"/>
  <unicode hex="0157"/>
  <outline>
    <contour>
      <point x="142" y="-56" type="line" smooth="yes"/>
      <point x="60" y="-56" type="line" smooth="yes"/>
      <point x="60" y="-124" type="line" smooth="yes"/>
      <point x="104" y="-124" type="line" smooth="yes"/>
      <point x="82" y="-166" type="line" smooth="yes"/>
      <point x="37" y="-178" type="line" smooth="yes"/>
      <point x="37" y="-214" type="line" smooth="yes"/>
      <point x="114" y="-186" type="line" smooth="yes"/>
      <point x="142" y="-106" type="line" smooth="yes"/>
    </contour>
    <contour>
      <point x="276" y="541" type="line" smooth="yes"/>
      <point x="186" y="517" type="line" smooth="yes"/>
      <point x="128" y="460" type="line" smooth="yes"/>
      <point x="118" y="530" type="line" smooth="yes"/>
      <point x="60" y="530" type="line" smooth="yes"/>
      <point x="66" y="380" type="line" smooth="yes"/>
      <point x="66" y="0" type="line" smooth="yes"/>
      <point x="136" y="0" type="line" smooth="yes"/>
      <point x="136" y="393" type="line" smooth="yes"/>
      <point x="185" y="446" type="line" smooth="yes"/>
      <point x="277" y="473" type="line" smooth="yes"/>
      <point x="291" y="473" type="line" smooth="yes"/>
      <point x="291" y="540" type="line" smooth="yes"/>
      <point x="286" y="541" type="line" smooth="yes"/>
    </contour>
  </outline>
</glyph>
<glyph name="Rcaron" format="1">
  <advance width="584"/>
  <unicode hex="0158"/>
  <outline>
    <contour>
      <point x="136" y="950" type="line" smooth="yes"/>
      <point x="242" y="840" type="line" smooth="yes"/>
      <point x="306" y="840" type="line" smooth="yes"/>
      <point x="412" y="950" type="line" smooth="yes"/>
      <point x="342" y="950" type="line" smooth="yes"/>
      <point x="274" y="883" type="line" smooth="yes"/>
      <point x="206" y="950" type="line" smooth="yes"/>
    </contour>
    <contour>
      <point x="146" y="382" type="line" smooth="yes"/>
      <point x="146" y="715" type="line" smooth="yes"/>
      <point x="292" y="715" type="line" smooth="yes"/>
      <point x="399" y="686" type="line" smooth="yes"/>
      <point x="455" y="556" type="line" smooth="yes"/>
      <point x="455" y="541" type="line" smooth="yes"/>
      <point x="399" y="411" type="line" smooth="yes"/>
      <point x="292" y="382" type="line" smooth="yes"/>
    </contour>
    <contour>
      <point x="146" y="317" type="line" smooth="yes"/>
      <point x="290" y="317" type="line" smooth="yes"/>
      <point x="308" y="317" type="line" smooth="yes"/>
      <point x="326" y="318" type="line" smooth="yes"/>
      <point x="450" y="0" type="line" smooth="yes"/>
      <point x="529" y="0" type="line" smooth="yes"/>
      <point x="394" y="332" type="line" smooth="yes"/>
      <point x="489" y="398" type="line" smooth="yes"/>
      <point x="529" y="538" type="line" smooth="yes"/>
      <point x="529" y="558" type="line" smooth="yes"/>
      <point x="451" y="737" type="line" smooth="yes"/>
      <point x="290" y="780" type="line" smooth="yes"/>
      <point x="74" y="780" type="line" smooth="yes"/>
      <point x="74" y="0" type="line" smooth="yes"/>
      <point x="146" y="0" type="line" smooth="yes"/>
    </contour>
  </outline>
</glyph>
<glyph name="rcaron" format="1">
  <advance width="333"/>
  <unicode hex="0159"/>
  <outline>
    <contour>
      <point x="16" y="780" type="line" smooth="yes"/>
      <point x="147" y="614" type="line" smooth="yes"/>
      <point x="209" y="614" type="line" smooth="yes"/>
      <point x="340" y="780" type="line" smooth="yes"/>
      <point x="271" y="780" type="line" smooth="yes"/>
      <point x="178" y="666" type="line" smooth="yes"/>
      <point x="85" y="780" type="line" smooth="yes"/>
    </contour>
    <contour>
      <point x="276" y="541" type="line" smooth="yes"/>
      <point x="186" y="517" type="line" smooth="yes"/>
      <point x="128" y="460" type="line" smooth="yes"/>
      <point x="118" y="530" type="line" smooth="yes"/>
      <point x="60" y="530" type="line" smooth="yes"/>
      <point x="66" y="380" type="line" smooth="yes"/>
      <point x="66" y="0" type="line" smooth="yes"/>
      <point x="136" y="0" type="line" smooth="yes"/>
      <point x="136" y="393" type="line" smooth="yes"/>
      <point x="185" y="446" type="line" smooth="yes"/>
      <point x="277" y="473" type="line" smooth="yes"/>
      <point x="291" y="473" type="line" smooth="yes"/>
      <point x="291" y="540" type="line" smooth="yes"/>
      <point x="286" y="541" type="line" smooth="yes"/>
    </contour>
  </outline>
</glyph>
<glyph name="Scircumflex" format="1">
  <advance width="601"/>
  <unicode hex="015C"/>
  <outline>
    <contour>
      <point x="232" y="840" type="line" smooth="yes"/>
      <point x="300" y="906" type="line" smooth="yes"/>
      <point x="368" y="840" type="line" smooth="yes"/>
      <point x="438" y="840" type="line" smooth="yes"/>
      <point x="332" y="950" type="line" smooth="yes"/>
      <point x="268" y="950" type="line" smooth="yes"/>
      <point x="162" y="840" type="line" smooth="yes"/>
    </contour>
    <contour>
      <point x="288" y="370" type="line" smooth="yes"/>
      <point x="436" y="319" type="line" smooth="yes"/>
      <point x="481" y="213" type="line" smooth="yes"/>
      <point x="481" y="204" type="line" smooth="yes"/>
      <point x="432" y="93" type="line" smooth="yes"/>
      <point x="304" y="54" type="line" smooth="yes"/>
      <point x="297" y="54" type="line" smooth="yes"/>
      <point x="168" y="103" type="line" smooth="yes"/>
      <point x="118" y="254" type="line" smooth="yes"/>
      <point x="46" y="254" type="line" smooth="yes"/>
      <point x="46" y="244" type="line" smooth="yes"/>
      <point x="111" y="56" type="line" smooth="yes"/>
      <point x="300" y="-11" type="line" smooth="yes"/>
      <point x="486" y="47" type="line" smooth="yes"/>
      <point x="555" y="209" type="line" smooth="yes"/>
      <point x="555" y="219" type="line" smooth="yes"/>
      <point x="499" y="361" type="line" smooth="yes"/>
      <point x="315" y="431" type="line" smooth="yes"/>
      <point x="168" y="483" type="line" smooth="yes"/>
      <point x="129" y="583" type="line" smooth="yes"/>
      <point x="129" y="591" type="line" smooth="yes"/>
      <point x="177" y="690" type="line" smooth="yes"/>
      <point x="296" y="726" type="line" smooth="yes"/>
      <point x="303" y="726" type="line" smooth="yes"/>
      <point x="433" y="677" type="line" smooth="yes"/>
      <point x="474" y="516" type="line" smooth="yes"/>
      <point x="546" y="516" type="line" smooth="yes"/>
      <point x="546" y="540" type="line" smooth="yes"/>
      <point x="488" y="726" type="line" smooth="yes"/>
      <point x="300" y="791" type="line" smooth="yes"/>
      <point x="122" y="735" type="line" smooth="yes"/>
      <point x="55" y="582" type="line" smooth="yes"/>
      <point x="55" y="572" type="line" smooth="yes"/>
      <point x="108" y="441" type="line" smooth="yes"/>
    </contour>
  </outline>
</glyph>
<glyph name="Scedilla" format="1">
  <advance width="601"/>
  <unicode hex="015E"/>
  <outline>
    <contour>
      <point x="212" y="-191" type="line" smooth="yes"/>
      <point x="252" y="-206" type="line" smooth="yes"/>
      <point x="304" y="-211" type="line" smooth="yes"/>
      <point x="378" y="-193" type="line" smooth="yes"/>
      <point x="407" y="-133" type="line" smooth="yes"/>
      <point x="375" y="-74" type="line" smooth="yes"/>
      <point x="307" y="-56" type="line" smooth="yes"/>
      <point x="303" y="-56" type="line" smooth="yes"/>
      <point x="320" y="-10" type="line" smooth="yes"/>
      <point x="492" y="53" type="line" smooth="yes"/>
      <point x="555" y="209" type="line" smooth="yes"/>
      <point x="555" y="219" type="line" smooth="yes"/>
      <point x="499" y="361" type="line" smooth="yes"/>
      <point x="315" y="431" type="line" smooth="yes"/>
      <point x="168" y="483" type="line" smooth="yes"/>
      <point x="129" y="583" type="line" smooth="yes"/>
      <point x="129" y="591" type="line" smooth="yes"/>
      <point x="177" y="690" type="line" smooth="yes"/>
      <point x="296" y="726" type="line" smooth="yes"/>
      <point x="303" y="726" type="line" smooth="yes"/>
      <point x="433" y="677" type="line" smooth="yes"/>
      <point x="474" y="516" type="line" smooth="yes"/>
      <point x="546" y="516" type="line" smooth="yes"/>
      <point x="546" y="540" type="line" smooth="yes"/>
      <point x="488" y="726" type="line" smooth="yes"/>
      <point x="300" y="791" type="line" smooth="yes"/>
      <point x="122" y="735" type="line" smooth="yes"/>
      <point x="55" y="582" type="line" smooth="yes"/>
      <point x="55" y="572" type="line" smooth="yes"/>
      <point x="108" y="441" type="line" smooth="yes"/>
      <point x="288" y="370" type="line" smooth="yes"/>
      <point x="436" y="319" type="line" smooth="yes"/>
      <point x="481" y="213" type="line" smooth="yes"/>
      <point x="481" y="204" type="line" smooth="yes"/>
      <point x="432" y="93" type="line" smooth="yes"/>
      <point x="304" y="54" type="line" smooth="yes"/>
      <point x="297" y="54" type="line" smooth="yes"/>
      <point x="168" y="103" type="line" smooth="yes"/>
      <point x="118" y="254" type="line" smooth="yes"/>
      <point x="46" y="254" type="line" smooth="yes"/>
      <point x="46" y="244" type="line" smooth="yes"/>
      <point x="104" y="64" type="line" smooth="yes"/>
      <point x="272" y="-10" type="line" smooth="yes"/>
      <point x="245" y="-80" type="line" smooth="yes"/>
      <point x="264" y="-103" type="line" smooth="yes"/>
      <point x="273" y="-102" type="line" smooth="yes"/>
      <point x="293" y="-100" type="line" smooth="yes"/>
      <point x="338" y="-107" type="line" smooth="yes"/>
      <point x="355" y="-131" type="line" smooth="yes"/>
      <point x="341" y="-156" type="line" smooth="yes"/>
      <point x="297" y="-162" type="line" smooth="yes"/>
      <point x="259" y="-158" type="line" smooth="yes"/>
      <point x="227" y="-147" type="line" smooth="yes"/>
    </contour>
  </outline>
</glyph>
<glyph name="Tcommaaccent" format="1">
  <advance width="515"/>
  <unicode hex="0162"/>
  <outline>
    <contour>
      <point x="298" y="-56" type="line" smooth="yes"/>
      <point x="216" y="-56" type="line" smooth="yes"/>
      <point x="216" y="-124" type="line" smooth="yes"/>
      <point x="260" y="-124" type="line" smooth="yes"/>
      <point x="238" y="-166" type="line" smooth="yes"/>
      <point x="193" y="-178" type="line" smooth="yes"/>
      <point x="193" y="-214" type="line" smooth="yes"/>
      <point x="270" y="-186" type="line" smooth="yes"/>
      <point x="298" y="-106" type="line" smooth="yes"/>
    </contour>
    <contour>
      <point x="293" y="715" type="line" smooth="yes"/>
      <point x="492" y="715" type="line" smooth="yes"/>
      <point x="492" y="780" type="line" smooth="yes"/>
      <point x="23" y="780" type="line" smooth="yes"/>
      <point x="23" y="715" type="line" smooth="yes"/>
      <point x="221" y="715" type="line" smooth="yes"/>
      <point x="221" y="0" type="line" smooth="yes"/>
      <point x="293" y="0" type="line" smooth="yes"/>
    </contour>
  </outline>
</glyph>
<glyph name="tbar" format="1">
  <advance width="400"/>
  <unicode hex="0167"/>
  <outline>
    <contour>
      <point x="185" y="530" type="line" smooth="yes"/>
      <point x="185" y="680" type="line" smooth="yes"/>
      <point x="115" y="680" type="line" smooth="yes"/>
      <point x="115" y="530" type="line" smooth="yes"/>
      <point x="31" y="530" type="line" smooth="yes"/>
      <point x="31" y="467" type="line" smooth="yes"/>
      <point x="115" y="467" type="line" smooth="yes"/>
      <point x="115" y="294" type="line" smooth="yes"/>
      <point x="35" y="294" type="line" smooth="yes"/>
      <point x="35" y="236" type="line" smooth="yes"/>
      <point x="115" y="236" type="line" smooth="yes"/>
      <point x="115" y="147" type="line" smooth="yes"/>
      <point x="159" y="25" type="line" smooth="yes"/>
      <point x="270" y="-11" type="line" smooth="yes"/>
      <point x="320" y="-7" type="line" smooth="yes"/>
      <point x="344" y="0" type="line" smooth="yes"/>
      <point x="344" y="61" type="line" smooth="yes"/>
      <point x="321" y="55" type="line" smooth="yes"/>
      <point x="287" y="52" type="line" smooth="yes"/>
      <point x="211" y="73" type="line" smooth="yes"/>
      <point x="185" y="156" type="line" smooth="yes"/>
      <point x="185" y="236" type="line" smooth="yes"/>
      <point x="314" y="236" type="line" smooth="yes"/>
      <point x="314" y="294" type="line" smooth="yes"/>
      <point x="185" y="294" type="line" smooth="yes"/>
      <point x="185" y="467" type="line" smooth="yes"/>
      <point x="354" y="467" type="line" smooth="yes"/>
      <point x="354" y="530" type="line" smooth="yes"/>
    </contour>
  </outline>
</glyph>
<glyph name="Utilde" format="1">
  <advance width="639"/>
  <unicode hex="0168"/>
  <outline>
    <contour>
      <point x="319" y="-11" type="line" smooth="yes"/>
      <point x="507" y="45" type="line" smooth="yes"/>
      <point x="570" y="242" type="line" smooth="yes"/>
      <point x="570" y="780" type="line" smooth="yes"/>
      <point x="498" y="780" type="line" smooth="yes"/>
      <point x="498" y="247" type="line" smooth="yes"/>
      <point x="454" y="95" type="line" smooth="yes"/>
      <point x="319" y="54" type="line" smooth="yes"/>
      <point x="185" y="95" type="line" smooth="yes"/>
      <point x="141" y="247" type="line" smooth="yes"/>
      <point x="141" y="780" type="line" smooth="yes"/>
      <point x="69" y="780" type="line" smooth="yes"/>
      <point x="69" y="242" type="line" smooth="yes"/>
      <point x="132" y="45" type="line" smooth="yes"/>
    </contour>
    <contour>
      <point x="421" y="936" type="line" smooth="yes"/>
      <point x="410" y="902" type="line" smooth="yes"/>
      <point x="384" y="893" type="line" smooth="yes"/>
      <point x="324" y="920" type="line" smooth="yes"/>
      <point x="246" y="947" type="line" smooth="yes"/>
      <point x="189" y="925" type="line" smooth="yes"/>
      <point x="167" y="854" type="line" smooth="yes"/>
      <point x="217" y="854" type="line" smooth="yes"/>
      <point x="228" y="888" type="line" smooth="yes"/>
      <point x="254" y="897" type="line" smooth="yes"/>
      <point x="314" y="870" type="line" smooth="yes"/>
      <point x="392" y="843" type="line" smooth="yes"/>
      <point x="449" y="865" type="line" smooth="yes"/>
      <point x="471" y="936" type="line" smooth="yes"/>
    </contour>
  </outline>
</glyph>
<glyph name="utilde" format="1">
  <advance width="528"/>
  <unicode hex="0169"/>
  <outline>
    <contour>
      <point x="362" y="746" type="line" smooth="yes"/>
      <point x="352" y="712" type="line" smooth="yes"/>
      <point x="326" y="703" type="line" smooth="yes"/>
      <point x="264" y="730" type="line" smooth="yes"/>
      <point x="186" y="757" type="line" smooth="yes"/>
      <point x="128" y="732" type="line" smooth="yes"/>
      <point x="105" y="654" type="line" smooth="yes"/>
      <point x="160" y="654" type="line" smooth="yes"/>
      <point x="171" y="688" type="line" smooth="yes"/>
      <point x="196" y="697" type="line" smooth="yes"/>
      <point x="258" y="670" type="line" smooth="yes"/>
      <point x="336" y="643" type="line" smooth="yes"/>
      <point x="395" y="668" type="line" smooth="yes"/>
      <point x="417" y="746" type="line" smooth="yes"/>
    </contour>
    <contour>
      <point x="61" y="530" type="line" smooth="yes"/>
      <point x="61" y="159" type="line" smooth="yes"/>
      <point x="102" y="37" type="line" smooth="yes"/>
      <point x="222" y="-11" type="line" smooth="yes"/>
      <point x="333" y="14" type="line" smooth="yes"/>
      <point x="399" y="74" type="line" smooth="yes"/>
      <point x="410" y="0" type="line" smooth="yes"/>
      <point x="468" y="0" type="line" smooth="yes"/>
      <point x="462" y="150" type="line" smooth="yes"/>
      <point x="462" y="530" type="line" smooth="yes"/>
      <point x="392" y="530" type="line" smooth="yes"/>
      <point x="392" y="134" type="line" smooth="yes"/>
      <point x="342" y="80" type="line" smooth="yes"/>
      <point x="245" y="52" type="line" smooth="yes"/>
      <point x="161" y="81" type="line" smooth="yes"/>
      <point x="130" y="169" type="line" smooth="yes"/>
      <point x="130" y="530" type="line" smooth="yes"/>
    </contour>
  </outline>
</glyph>
<glyph name="Umacron" format="1">
  <advance width="639"/>
  <unicode hex="016A"/>
  <outline>
    <contour>
      <point x="206" y="868" type="line" smooth="yes"/>
      <point x="432" y="868" type="line" smooth="yes"/>
      <point x="432" y="922" type="line" smooth="yes"/>
      <point x="206" y="922" type="line" smooth="yes"/>
    </contour>
    <contour>
      <point x="319" y="-11" type="line" smooth="yes"/>
      <point x="507" y="45" type="line" smooth="yes"/>
      <point x="570" y="242" type="line" smooth="yes"/>
      <point x="570" y="780" type="line" smooth="yes"/>
      <point x="498" y="780" type="line" smooth="yes"/>
      <point x="498" y="247" type="line" smooth="yes"/>
      <point x="454" y="95" type="line" smooth="yes"/>
      <point x="319" y="54" type="line" smooth="yes"/>
      <point x="185" y="95" type="line" smooth="yes"/>
      <point x="141" y="247" type="line" smooth="yes"/>
      <point x="141" y="780" type="line" smooth="yes"/>
      <point x="69" y="780" type="line" smooth="yes"/>
      <point x="69" y="242" type="line" smooth="yes"/>
      <point x="132" y="45" type="line" smooth="yes"/>
    </contour>
  </outline>
</glyph>
<glyph name="ubreve" format="1">
  <advance width="528"/>
  <unicode hex="016D"/>
  <outline>
    <contour>
      <point x="261" y="603" type="line" smooth="yes"/>
      <point x="385" y="653" type="line" smooth="yes"/>
      <point x="422" y="780" type="line" smooth="yes"/>
      <point x="365" y="780" type="line" smooth="yes"/>
      <point x="341" y="694" type="line" smooth="yes"/>
      <point x="261" y="662" type="line" smooth="yes"/>
      <point x="181" y="694" type="line" smooth="yes"/>
      <point x="157" y="780" type="line" smooth="yes"/>
      <point x="100" y="780" type="line" smooth="yes"/>
      <point x="137" y="653" type="line" smooth="yes"/>
    </contour>
    <contour>
      <point x="61" y="530" type="line" smooth="yes"/>
      <point x="61" y="159" type="line" smooth="yes"/>
      <point x="102" y="37" type="line" smooth="yes"/>
      <point x="222" y="-11" type="line" smooth="yes"/>
      <point x="333" y="14" type="line" smooth="yes"/>
      <point x="399" y="74" type="line" smooth="yes"/>
      <point x="410" y="0" type="line" smooth="yes"/>
      <point x="468" y="0" type="line" smooth="yes"/>
      <point x="462" y="150" type="line" smooth="yes"/>
      <point x="462" y="530" type="line" smooth="yes"/>
      <point x="392" y="530" type="line" smooth="yes"/>
      <point x="392" y="134" type="line" smooth="yes"/>
      <point x="342" y="80" type="line" smooth="yes"/>
      <point x="245" y="52" type="line" smooth="yes"/>
      <point x="161" y="81" type="line" smooth="yes"/>
      <point x="130" y="169" type="line" smooth="yes"/>
      <point x="130" y="530" type="line" smooth="yes"/>
    </contour>
  </outline>
</glyph>
<glyph name="Uring" format="1">
  <advance width="639"/>
  <unicode hex="016E"/>
  <outline>
    <contour>
      <point x="263" y="867" type="line" smooth="yes"/>
      <point x="279" y="907" type="line" smooth="yes"/>
      <point x="319" y="923" type="line" smooth="yes"/>
      <point x="359" y="907" type="line" smooth="yes"/>
      <point x="375" y="867" type="line" smooth="yes"/>
      <point x="359" y="827" type="line" smooth="yes"/>
      <point x="319" y="811" type="line" smooth="yes"/>
      <point x="279" y="827" type="line" smooth="yes"/>
    </contour>
    <contour>
      <point x="225" y="867" type="line" smooth="yes"/>
      <point x="253" y="801" type="line" smooth="yes"/>
      <point x="319" y="773" type="line" smooth="yes"/>
      <point x="386" y="801" type="line" smooth="yes"/>
      <point x="413" y="867" type="line" smooth="yes"/>
      <point x="386" y="934" type="line" smooth="yes"/>
      <point x="319" y="961" type="line" smooth="yes"/>
      <point x="253" y="934" type="line" smooth="yes"/>
    </contour>
    <contour>
      <point x="319" y="-11" type="line" smooth="yes"/>
      <point x="507" y="45" type="line" smooth="yes"/>
      <point x="570" y="242" type="line" smooth="yes"/>
      <point x="570" y="780" type="line" smooth="yes"/>
      <point x="498" y="780" type="line" smooth="yes"/>
      <point x="498" y="247" type="line" smooth="yes"/>
      <point x="454" y="95" type="line" smooth="yes"/>
      <point x="319" y="54" type="line" smooth="yes"/>
      <point x="185" y="95" type="line" smooth="yes"/>
      <point x="141" y="247" type="line" smooth="yes"/>
      <point x="141" y="780" type="line" smooth="yes"/>
      <point x="69" y="780" type="line" smooth="yes"/>
      <point x="69" y="242" type="line" smooth="yes"/>
      <point x="132" y="45" type="line" smooth="yes"/>
    </contour>
  </outline>
</glyph>
<glyph name="uring" format="1">
  <advance width="528"/>
  <unicode hex="016F"/>
  <outline>
    <contour>
      <point x="205" y="697" type="line" smooth="yes"/>
      <point x="221" y="737" type="line" smooth="yes"/>
      <point x="261" y="753" type="line" smooth="yes"/>
      <point x="301" y="737" type="line" smooth="yes"/>
      <point x="317" y="697" type="line" smooth="yes"/>
      <point x="301" y="657" type="line" smooth="yes"/>
      <point x="261" y="641" type="line" smooth="yes"/>
      <point x="221" y="657" type="line" smooth="yes"/>
    </contour>
    <contour>
      <point x="167" y="697" type="line" smooth="yes"/>
      <point x="195" y="631" type="line" smooth="yes"/>
      <point x="261" y="603" type="line" smooth="yes"/>
      <point x="328" y="631" type="line" smooth="yes"/>
      <point x="355" y="697" type="line" smooth="yes"/>
      <point x="328" y="764" type="line" smooth="yes"/>
      <point x="261" y="791" type="line" smooth="yes"/>
      <point x="195" y="764" type="line" smooth="yes"/>
    </contour>
    <contour>
      <point x="61" y="530" type="line" smooth="yes"/>
      <point x="61" y="159" type="line" smooth="yes"/>
      <point x="102" y="37" type="line" smooth="yes"/>
      <point x="222" y="-11" type="line" smooth="yes"/>
      <point x="333" y="14" type="line" smooth="yes"/>
      <point x="399" y="74" type="line" smooth="yes"/>
      <point x="410" y="0" type="line" smooth="yes"/>
      <point x="468" y="0" type="line" smooth="yes"/>
      <point x="462" y="150" type="line" smooth="yes"/>
      <point x="462" y="530" type="line" smooth="yes"/>
      <point x="392" y="530" type="line" smooth="yes"/>
      <point x="392" y="134" type="line" smooth="yes"/>
      <point x="342" y="80" type="line" smooth="yes"/>
      <point x="245" y="52" type="line" smooth="yes"/>
      <point x="161" y="81" type="line" smooth="yes"/>
      <point x="130" y="169" type="line" smooth="yes"/>
      <point x="130" y="530" type="line" smooth="yes"/>
    </contour>
  </outline>
</glyph>
